<?xml version="1.0" encoding="utf-8"?>
<svg viewBox="-4.083 -152.961 600 600" width="344.083" height="135.961" xmlns="http://www.w3.org/2000/svg">
  <g id="Pen" opacity="1.000" transform="matrix(0, 0.308413, -0.287399, 0, 198.299942, -88.824631)">
    <path id="STROKE_6ff84b82-e706-45d5-9d6c-493fafd395e9" opacity="1.000" fill="none" stroke="#456150" stroke-width="6.416" stroke-opacity="1.000" stroke-linecap="round" stroke-linejoin="round" d="M 458.849 665.625 L 458.635 665.575 L 456.553 665.587 Q 456.041 665.561 451.223 665.556 Q 446.405 665.551 443.150 665.236 Q 439.895 664.920 438.179 664.296 Q 436.462 663.672 435.268 662.925 Q 434.075 662.178 433.385 661.582 Q 432.696 660.986 432.084 660.408 Q 431.473 659.830 430.880 659.043 Q 430.287 658.255 429.888 657.330 Q 429.489 656.404 429.289 655.081 Q 429.089 653.758 429.536 652.007 Q 429.982 650.255 431.011 648.842 Q 432.040 647.429 432.907 646.749 Q 433.774 646.068 434.860 645.494 Q 435.946 644.921 436.357 644.750 Q 436.767 644.579 440.371 643.846 Q 443.975 643.114 447.165 643.226 Q 450.355 643.339 451.417 643.511 Q 452.478 643.683 452.883 643.751 Q 453.287 643.819 453.762 643.873 Q 453.514 643.808 451.286 643.657 Q 449.059 643.505 446.277 642.659 Q 443.495 641.813 442.151 641.135 Q 440.807 640.458 440.305 640.119 Q 439.803 639.780 439.311 639.384 Q 438.818 638.989 437.935 638.012 Q 437.052 637.036 436.491 635.738 Q 435.930 634.440 435.848 634.039 Q 435.766 633.637 435.920 632.504 Q 436.073 631.371 436.270 630.948 Q 436.467 630.526 436.961 629.959 Q 437.455 629.391 438.015 628.949 Q 438.575 628.507 439.173 628.152 Q 439.771 627.797 440.021 627.681 Q 440.271 627.564 443.292 626.875 Q 446.312 626.187 449.566 626.041 Q 452.819 625.895 453.430 625.943 Q 454.040 625.991 454.422 626.045 Q 454.803 626.100 455.887 626.182 Q 456.970 626.263 457.310 626.272 Q 457.651 626.280 458.902 626.476 L 459.199 626.635 L 460.516 626.812 "/>
    <path id="STROKE_93bb0f79-43b3-4899-b9fc-3afb8025165c" opacity="1.000" fill="none" stroke="#456150" stroke-width="8.461" stroke-opacity="1.000" stroke-linecap="round" stroke-linejoin="round" d="M 437.276 609.094 Q 437.787 609.042 437.996 609.067 L 439.634 608.810 Q 440.727 608.698 444.294 607.473 Q 447.861 606.248 451.125 605.178 Q 454.388 604.108 455.846 603.639 Q 457.305 603.170 457.809 602.951 Q 458.312 602.732 458.527 602.625 Q 458.741 602.518 458.870 602.439 Q 459.000 602.360 459.132 602.167 Q 459.265 601.974 459.974 601.469 "/>
    <path id="STROKE_b700ca77-d1c3-4fb9-bb84-b3e3ad820a54" opacity="1.000" fill="none" stroke="#456150" stroke-width="9.310" stroke-opacity="1.000" stroke-linecap="round" stroke-linejoin="round" d="M 432.711 579.766 Q 433.364 579.885 434.944 580.641 Q 436.524 581.397 439.695 582.969 Q 442.865 584.542 446.151 586.350 Q 449.438 588.159 452.166 589.754 Q 454.895 591.350 457.711 592.953 Q 460.528 594.557 464.932 596.836 Q 469.336 599.116 472.662 600.678 Q 475.989 602.239 479.879 604.087 Q 483.769 605.934 488.126 607.980 Q 492.483 610.026 494.575 610.919 Q 496.667 611.812 499.510 612.986 Q 502.353 614.160 504.538 615.236 L 506.330 616.328 "/>
    <path id="STROKE_886d7b39-a54a-459c-a4e8-04a8f771e984" opacity="1.000" fill="none" stroke="#456150" stroke-width="9.244" stroke-opacity="1.000" stroke-linecap="round" stroke-linejoin="round" d="M 394.505 556.156 Q 394.609 556.141 394.172 555.508 Q 394.232 555.408 400.647 556.409 Q 407.063 557.409 413.456 558.554 Q 419.850 559.698 423.860 560.592 Q 427.871 561.486 437.378 563.842 Q 446.885 566.198 451.705 567.322 Q 456.525 568.446 460.222 569.240 Q 463.920 570.034 466.447 570.586 Q 466.480 570.618 466.595 570.560 Q 466.711 570.502 467.124 570.484 "/>
    <path id="STROKE_810de9f4-77f4-43d5-9357-683336d5d276" opacity="1.000" fill="none" stroke="#456150" stroke-width="8.073" stroke-opacity="1.000" stroke-linecap="round" stroke-linejoin="round" d="M 392.254 551.312 Q 392.770 550.935 394.084 550.508 Q 395.398 550.082 398.657 548.724 Q 401.916 547.365 404.756 545.994 Q 407.596 544.623 412.681 542.134 Q 417.767 539.644 421.898 537.892 Q 426.030 536.140 435.308 533.854 Q 444.585 531.569 450.241 530.634 Q 455.897 529.698 460.181 529.157 Q 464.464 528.615 467.093 528.464 Q 467.284 528.609 468.062 529.078 "/>
    <path id="STROKE_2bad8a40-6ba8-454f-ac31-f2be8517845f" opacity="1.000" fill="none" stroke="#456150" stroke-width="11.602" stroke-opacity="1.000" stroke-linecap="round" stroke-linejoin="round" d="M 440.319 535.047 Q 440.319 537.024 440.333 537.234 Q 440.347 537.443 440.288 540.199 Q 440.230 542.955 439.731 546.474 Q 439.233 549.994 438.763 552.224 Q 438.292 554.454 437.497 556.008 Q 436.702 557.562 436.004 559.062 "/>
    <path id="STROKE_9923f226-74ec-41b0-9a4f-9e344eeaf243" opacity="1.000" fill="none" stroke="#456150" stroke-width="7.613" stroke-opacity="1.000" stroke-linecap="round" stroke-linejoin="round" d="M 438.339 512.625 L 439.222 512.556 L 440.326 512.432 Q 441.082 512.299 448.858 512.213 Q 456.634 512.127 460.782 512.398 Q 460.634 512.465 455.131 511.268 Q 449.629 510.070 445.019 508.528 Q 440.410 506.986 438.666 505.922 Q 436.922 504.859 436.512 504.445 Q 436.102 504.032 435.845 503.493 Q 435.589 502.953 435.816 502.419 Q 436.043 501.885 440.220 500.468 Q 444.397 499.051 457.035 497.508 Q 457.189 497.383 456.897 497.166 Q 456.606 496.949 454.383 496.015 Q 452.160 495.080 448.474 493.392 Q 444.788 491.703 442.567 490.112 Q 440.345 488.520 439.542 487.541 Q 438.739 486.561 438.394 485.927 Q 438.050 485.293 437.936 484.431 Q 437.822 483.570 437.981 482.560 Q 438.140 481.549 439.221 480.427 Q 440.303 479.305 443.107 478.192 Q 445.911 477.079 448.672 476.614 Q 451.434 476.149 453.704 475.929 Q 455.975 475.710 458.769 475.460 Q 461.564 475.210 464.713 474.838 L 466.811 474.531 "/>
    <path id="STROKE_e9b85f26-1407-4975-97a5-444fea030d4f" opacity="1.000" fill="none" stroke="#456150" stroke-width="8.520" stroke-opacity="1.000" stroke-linecap="round" stroke-linejoin="round" d="M 439.131 441.953 L 439.048 442.391 Q 438.583 443.866 438.596 445.373 Q 438.608 446.881 438.719 447.703 Q 438.830 448.524 439.537 450.083 Q 440.245 451.642 441.856 453.236 Q 443.466 454.831 445.755 455.885 Q 448.044 456.939 450.113 457.355 Q 452.183 457.771 455.741 457.743 Q 459.299 457.715 461.486 457.199 Q 463.673 456.684 465.448 455.585 Q 467.223 454.487 467.911 453.730 Q 468.600 452.973 469.106 452.029 Q 469.611 451.085 469.796 450.468 Q 469.981 449.850 470.042 449.166 Q 470.103 448.482 470.087 447.648 Q 470.071 446.814 469.265 444.987 Q 468.459 443.160 466.615 441.354 Q 464.771 439.549 459.619 437.515 Q 454.466 435.482 449.561 434.123 Q 449.370 434.014 452.740 433.315 Q 456.110 432.616 459.414 432.036 Q 462.718 431.456 464.905 430.982 Q 467.092 430.509 470.622 429.565 L 471.959 429.156 "/>
    <path id="STROKE_642d38d9-3fb1-4037-a8a4-6186478d69cf" opacity="1.000" fill="none" stroke="#456150" stroke-width="8.290" stroke-opacity="1.000" stroke-linecap="round" stroke-linejoin="round" d="M 442.904 416.016 L 442.526 414.530 L 442.164 413.802 Q 441.775 413.097 441.307 410.262 Q 440.840 407.426 441.011 406.165 Q 441.181 404.904 441.428 404.264 Q 441.674 403.624 442.111 403.279 Q 442.548 402.935 443.716 402.603 Q 444.884 402.271 449.701 404.416 Q 454.517 406.561 459.115 409.108 Q 463.713 411.655 465.871 412.281 Q 468.028 412.906 468.959 412.714 Q 469.890 412.522 470.303 410.454 Q 470.715 408.386 470.625 406.037 Q 470.534 403.688 470.638 399.989 Q 470.743 396.290 471.959 389.016 "/>
    <path id="STROKE_2b4d33c1-e3f7-47bb-aeee-3cefb3be1f4e" opacity="1.000" fill="none" stroke="#456150" stroke-width="8.640" stroke-opacity="1.000" stroke-linecap="round" stroke-linejoin="round" d="M 449.845 369.641 Q 450.176 369.658 453.285 370.468 Q 456.393 371.277 461.891 371.856 Q 467.388 372.434 471.401 372.012 Q 471.537 371.906 472.168 371.422 "/>
    <path id="STROKE_c333b582-cf9d-4a39-bc2d-3cd302c39972" opacity="1.000" fill="none" stroke="#456150" stroke-width="4.756" stroke-opacity="1.000" stroke-linecap="round" stroke-linejoin="round" d="M 407.928 382.047 Q 408.159 381.586 408.558 380.824 Q 408.956 380.062 410.730 378.766 Q 412.504 377.469 413.973 376.406 "/>
    <path id="STROKE_03df9a55-11bf-4ce1-9097-9f1e6821a05e" opacity="1.000" fill="none" stroke="#456150" stroke-width="8.274" stroke-opacity="1.000" stroke-linecap="round" stroke-linejoin="round" d="M 439.131 354.781 Q 440.144 354.614 440.230 354.587 Q 440.316 354.560 441.640 354.405 Q 442.965 354.251 451.884 354.069 Q 460.802 353.886 466.469 352.868 Q 466.449 352.863 463.778 351.314 Q 461.107 349.766 457.590 347.523 Q 454.073 345.281 452.398 343.478 Q 450.723 341.674 450.138 340.294 Q 449.553 338.913 449.545 337.582 Q 449.538 336.251 450.561 334.758 Q 451.585 333.266 452.588 332.628 Q 453.592 331.991 454.860 331.428 Q 456.127 330.866 461.655 330.231 Q 467.183 329.596 474.301 330.630 L 474.815 330.750 "/>
    <path id="STROKE_7d80f4bf-b7bf-41ed-a929-341c62957b89" opacity="1.000" fill="none" stroke="#456150" stroke-width="8.936" stroke-opacity="1.000" stroke-linecap="round" stroke-linejoin="round" d="M 443.967 295.922 L 443.542 296.257 Q 443.358 296.463 443.358 297.983 Q 443.357 299.502 444.033 301.451 Q 444.709 303.400 445.718 304.889 Q 446.727 306.379 447.606 307.322 Q 448.486 308.265 450.596 309.686 Q 452.707 311.106 455.583 311.719 Q 458.460 312.331 459.976 312.132 Q 461.492 311.934 462.932 311.189 Q 464.372 310.444 465.523 308.894 Q 466.675 307.343 466.988 305.493 Q 467.301 303.643 467.113 302.352 Q 466.925 301.060 466.103 299.353 Q 465.280 297.646 463.733 295.945 Q 462.186 294.243 458.228 292.159 Q 454.270 290.074 450.760 288.763 Q 450.994 288.427 451.213 288.326 Q 451.432 288.225 458.259 287.783 Q 465.086 287.340 470.107 287.266 Q 475.128 287.191 477.716 287.234 Q 480.304 287.278 483.255 287.575 Q 486.206 287.872 488.962 288.376 Q 491.717 288.881 496.278 290.376 Q 500.839 291.872 503.558 293.256 Q 506.278 294.641 508.756 296.609 Q 511.235 298.578 512.579 300.281 Q 513.924 301.984 514.680 303.820 Q 515.437 305.656 515.685 308.163 Q 515.933 310.670 514.818 314.533 Q 513.704 318.397 510.103 325.047 "/>
    <path id="STROKE_6596b529-3f4d-459e-82c0-5387ab2ee96a" opacity="1.000" fill="none" stroke="#456150" stroke-width="5.444" stroke-opacity="1.000" stroke-linecap="round" stroke-linejoin="round" d="M 406.011 266.797 L 406.628 266.706 Q 407.163 266.675 412.657 267.158 Q 418.151 267.641 426.804 268.385 Q 435.456 269.128 440.125 269.532 Q 444.793 269.936 450.545 270.210 Q 456.297 270.484 458.243 270.361 Q 460.190 270.239 465.697 268.356 Q 466.055 268.085 467.101 266.265 Q 468.147 264.444 469.090 262.576 Q 470.034 260.708 471.803 257.837 Q 473.573 254.966 476.955 249.855 Q 480.338 244.743 481.110 244.234 "/>
    <path id="STROKE_91d36ae2-a0e2-44b9-a90b-913e88d66757" opacity="1.000" fill="none" stroke="#456150" stroke-width="5.854" stroke-opacity="1.000" stroke-linecap="round" stroke-linejoin="round" d="M 453.763 224.125 L 453.970 224.379 Q 454.206 225.080 454.593 225.911 Q 454.980 226.743 455.654 227.746 Q 456.327 228.749 458.747 230.623 Q 461.166 232.496 464.369 233.681 Q 467.571 234.865 469.938 234.946 Q 472.305 235.026 473.654 234.724 Q 475.003 234.423 475.925 233.906 Q 476.848 233.390 477.602 232.676 Q 478.356 231.962 478.773 231.287 Q 479.190 230.612 479.511 229.188 Q 479.832 227.763 478.933 225.458 Q 478.034 223.153 476.284 220.824 L 474.607 219.219 "/>
    <path id="STROKE_060cf93d-a183-4c95-a253-7d7692500ee3" opacity="1.000" fill="none" stroke="#456150" stroke-width="6.164" stroke-opacity="1.000" stroke-linecap="round" stroke-linejoin="round" d="M 448.198 217.688 Q 448.854 217.295 449.697 216.905 Q 450.541 216.514 455.864 216.087 Q 461.187 215.659 464.530 215.752 Q 467.873 215.845 471.250 215.725 Q 474.626 215.605 477.652 215.284 Q 480.677 214.962 483.006 214.712 L 483.694 214.766 "/>
    <path id="STROKE_683b71bf-ca9d-4480-a041-277f797086b3" opacity="1.000" fill="none" stroke="#456150" stroke-width="5.778" stroke-opacity="1.000" stroke-linecap="round" stroke-linejoin="round" d="M 454.159 203.031 Q 455.503 202.513 458.863 202.105 Q 462.222 201.696 467.324 201.762 Q 472.425 201.827 475.055 201.774 Q 474.860 201.796 470.925 200.838 Q 466.989 199.880 462.855 198.280 Q 458.721 196.680 456.711 195.334 Q 454.701 193.989 453.753 192.812 Q 452.804 191.635 452.455 190.772 Q 452.106 189.908 452.059 188.506 Q 452.011 187.104 452.451 186.102 Q 452.890 185.099 453.711 184.260 Q 454.532 183.422 460.980 182.128 Q 467.427 180.834 472.662 180.953 Q 477.897 181.072 483.747 181.875 L 485.279 182.266 "/>
    <path id="STROKE_49dacdfe-b81f-4f9b-b165-4516ddadd642" opacity="1.000" fill="none" stroke="#456150" stroke-width="7.165" stroke-opacity="1.000" stroke-linecap="round" stroke-linejoin="round" d="M 454.284 149.016 L 454.181 149.418 Q 454.049 149.891 454.105 151.912 Q 454.161 153.934 454.464 155.283 Q 454.767 156.633 455.463 157.947 Q 456.158 159.262 457.018 160.322 Q 457.879 161.381 459.958 162.761 Q 462.037 164.141 464.392 164.624 Q 466.746 165.107 468.900 164.837 Q 471.053 164.566 473.148 163.340 Q 475.244 162.115 476.077 161.181 Q 476.909 160.247 477.485 159.277 Q 478.061 158.306 478.454 156.346 Q 478.847 154.385 478.822 153.980 Q 478.797 153.574 478.795 153.328 Q 478.794 153.081 478.209 152.138 Q 477.625 151.196 477.422 150.968 Q 477.219 150.741 476.197 149.412 Q 476.019 149.198 476.274 147.828 "/>
    <path id="STROKE_e0563bae-140b-4ee2-b649-b2f403811343" opacity="1.000" fill="none" stroke="#456150" stroke-width="6.835" stroke-opacity="1.000" stroke-linecap="round" stroke-linejoin="round" d="M 454.097 143.516 Q 454.723 143.255 456.021 143.007 Q 457.319 142.760 458.309 142.637 Q 459.298 142.514 462.749 142.374 Q 466.200 142.234 476.746 142.276 Q 487.292 142.319 493.135 142.387 Q 498.977 142.454 503.566 143.074 Q 508.154 143.694 511.651 144.927 Q 515.148 146.160 516.939 147.425 Q 518.730 148.690 519.580 149.595 Q 520.430 150.500 521.397 152.220 Q 522.364 153.940 522.881 158.548 Q 523.398 163.155 522.525 167.631 Q 521.653 172.108 521.171 173.828 "/>
    <path id="STROKE_d7f25ace-6f15-42d8-8b7d-a716ba907cdb" opacity="1.000" fill="none" stroke="#456150" stroke-width="5.780" stroke-opacity="1.000" stroke-linecap="round" stroke-linejoin="round" d="M 453.555 128.250 Q 454.211 128.229 457.098 128.944 Q 459.986 129.659 464.085 130.068 Q 468.185 130.477 471.508 130.059 Q 474.832 129.641 476.857 128.720 Q 478.883 127.800 479.736 127.060 Q 480.588 126.320 480.993 125.307 Q 481.398 124.294 481.402 123.298 Q 481.407 122.302 479.396 119.962 Q 477.386 117.622 473.298 115.161 Q 469.209 112.699 465.976 111.244 Q 462.744 109.788 461.105 109.090 Q 459.466 108.392 457.206 107.242 Q 457.212 107.160 461.309 107.314 Q 465.405 107.468 471.143 107.540 Q 476.882 107.613 479.759 107.325 Q 482.637 107.037 484.065 106.562 Q 484.102 106.495 484.549 105.828 "/>
    <path id="STROKE_ae0d2cdf-8b55-4c27-a05b-d3d560fe418d" opacity="1.000" fill="none" stroke="#456150" stroke-width="6.598" stroke-opacity="1.000" stroke-linecap="round" stroke-linejoin="round" d="M 455.681 74.109 Q 455.659 74.339 454.564 75.310 Q 454.446 75.814 454.430 77.067 Q 454.415 78.320 455.451 80.901 Q 456.488 83.481 458.168 85.528 Q 459.848 87.576 462.370 89.331 Q 464.892 91.086 469.477 92.000 Q 474.062 92.913 476.924 92.526 Q 479.787 92.138 481.569 91.333 Q 483.351 90.527 484.528 89.362 Q 485.705 88.198 486.197 86.792 Q 486.688 85.387 485.997 83.229 Q 485.305 81.072 483.071 78.836 Q 480.837 76.601 477.079 74.698 Q 473.320 72.795 468.248 71.816 Q 463.177 70.837 460.464 70.717 Q 460.502 70.742 465.770 70.124 Q 471.038 69.507 476.263 68.693 Q 481.489 67.879 486.196 66.609 "/>
    <path id="STROKE_d4a47834-1f2d-4825-9fee-572f2240da6d" opacity="1.000" fill="none" stroke="#456150" stroke-width="6.685" stroke-opacity="1.000" stroke-linecap="round" stroke-linejoin="round" d="M 455.347 36.281 Q 455.240 36.396 454.979 36.558 Q 454.446 37.029 454.278 37.307 Q 454.109 37.585 453.966 37.958 Q 453.822 38.330 453.747 39.154 Q 453.673 39.979 453.889 41.242 Q 454.106 42.506 454.566 43.595 Q 455.026 44.684 456.441 46.356 Q 457.855 48.027 460.001 49.095 Q 462.146 50.162 464.384 50.438 Q 466.621 50.714 468.071 50.425 Q 469.521 50.136 470.362 49.716 Q 471.203 49.296 471.663 48.913 Q 472.123 48.531 472.653 47.733 Q 473.183 46.934 473.361 45.985 Q 473.539 45.036 473.525 44.467 Q 473.511 43.898 472.456 41.876 Q 471.401 39.854 469.888 38.518 Q 468.375 37.183 467.093 36.495 Q 465.811 35.806 465.001 35.475 Q 464.191 35.144 462.807 34.719 Q 461.424 34.294 460.079 33.872 Q 459.981 33.871 461.942 33.493 Q 463.904 33.115 465.925 32.817 Q 467.947 32.518 472.163 31.939 Q 476.379 31.359 482.978 30.823 Q 489.577 30.286 494.506 30.352 Q 499.436 30.418 502.330 30.788 Q 505.224 31.158 508.830 32.414 Q 512.437 33.670 515.599 35.937 Q 518.760 38.204 520.463 40.231 Q 522.165 42.258 523.259 44.457 Q 524.354 46.656 525.100 51.316 Q 525.846 55.975 525.484 61.537 Q 525.122 67.099 524.881 69.328 "/>
    <path id="STROKE_bb329671-4498-4771-bc5b-8652b5a852e6" opacity="1.000" fill="none" stroke="#456150" stroke-width="6.585" stroke-opacity="1.000" stroke-linecap="round" stroke-linejoin="round" d="M 479.380 -8.500 Q 480.135 -8.269 480.500 -8.121 Q 480.864 -7.973 481.075 -7.848 Q 481.285 -7.723 481.627 -7.347 Q 481.969 -6.972 482.722 -5.703 Q 483.475 -4.433 483.854 -2.186 Q 484.233 0.060 483.965 1.877 Q 483.697 3.694 482.446 6.040 Q 481.196 8.386 479.308 10.102 Q 477.420 11.818 475.633 12.639 Q 473.847 13.459 469.389 13.948 Q 464.931 14.437 462.089 14.054 Q 459.246 13.671 456.762 12.693 Q 454.279 11.714 452.927 10.796 Q 451.575 9.878 450.401 8.339 Q 449.227 6.800 448.670 5.088 Q 448.113 3.376 448.076 2.194 Q 448.039 1.012 448.279 -0.049 Q 448.518 -1.110 449.630 -2.749 Q 450.742 -4.387 451.631 -5.176 Q 452.519 -5.965 454.722 -6.505 Q 456.925 -7.045 458.867 -6.755 Q 460.809 -6.466 462.521 -5.482 Q 464.234 -4.497 465.327 -3.025 Q 466.420 -1.553 466.883 -0.044 Q 467.347 1.465 467.371 3.378 Q 467.395 5.291 467.148 6.454 Q 466.901 7.617 466.543 8.760 L 466.144 10.812 "/>
    <path id="STROKE_51f9e9df-0240-4f49-afe8-910f5d08f918" opacity="1.000" fill="none" stroke="#456150" stroke-width="9.470" stroke-opacity="1.000" stroke-linecap="round" stroke-linejoin="round" d="M 552.191 585.160 L 553.080 584.753 Q 553.681 584.549 559.024 583.937 Q 564.367 583.325 570.548 582.221 Q 576.729 581.116 581.248 579.157 Q 580.323 578.970 575.365 578.833 Q 570.408 578.695 567.303 578.392 Q 564.199 578.089 562.530 577.647 Q 560.862 577.204 559.864 576.772 Q 558.867 576.339 556.857 574.845 Q 554.847 573.351 552.958 570.261 Q 551.070 567.172 550.654 564.792 Q 550.238 562.412 550.530 559.935 Q 550.822 557.457 551.918 555.412 Q 553.015 553.367 554.099 552.038 Q 555.183 550.709 559.809 547.207 L 561.975 545.306 "/>
    <path id="STROKE_026e3f0b-ca95-41b4-8d7b-0451c1092e6b" opacity="1.000" fill="none" stroke="#456150" stroke-width="10.650" stroke-opacity="1.000" stroke-linecap="round" stroke-linejoin="round" d="M 557.791 518.682 Q 557.869 518.481 558.056 517.156 Q 558.243 515.831 558.363 514.887 Q 558.483 513.943 558.658 513.414 Q 558.833 512.886 558.868 512.669 Q 558.903 512.452 559.905 510.509 Q 560.908 508.567 563.488 506.312 Q 566.068 504.058 568.057 503.346 Q 570.047 502.634 572.048 502.548 Q 574.049 502.461 575.633 502.919 Q 577.217 503.378 578.133 503.894 Q 579.049 504.410 580.837 506.140 Q 582.624 507.869 583.540 509.651 Q 584.456 511.433 584.788 512.751 Q 585.121 514.069 585.169 514.763 Q 585.217 515.456 585.173 517.020 Q 585.129 518.584 584.329 520.702 Q 583.529 522.820 582.464 524.266 Q 581.400 525.711 581.155 525.950 Q 580.910 526.189 579.638 526.987 Q 578.366 527.786 574.654 528.491 Q 570.942 529.196 569.032 529.000 Q 567.123 528.805 566.131 528.511 Q 565.140 528.218 564.377 527.770 Q 563.614 527.322 560.465 524.884 "/>
    <path id="STROKE_965d189d-2b42-4915-94a4-8fcb751f9719" opacity="1.000" fill="none" stroke="#456150" stroke-width="9.094" stroke-opacity="1.000" stroke-linecap="round" stroke-linejoin="round" d="M 559.080 488.945 Q 560.047 488.665 566.211 485.853 Q 572.375 483.042 576.420 480.204 Q 580.464 477.366 581.467 476.094 Q 582.471 474.822 582.659 474.136 Q 582.847 473.450 582.895 472.988 Q 582.943 472.527 581.992 470.696 Q 581.042 468.866 579.823 467.561 Q 578.605 466.256 577.611 465.332 Q 576.616 464.408 575.663 463.496 Q 574.709 462.583 574.273 461.848 Q 574.390 461.438 577.402 460.076 Q 580.415 458.713 583.240 457.438 Q 586.065 456.163 588.081 454.505 Q 590.097 452.846 590.738 451.291 Q 591.379 449.735 591.367 448.729 Q 591.356 447.722 591.197 447.207 Q 591.038 446.692 590.117 445.105 Q 589.197 443.518 586.204 441.424 Q 583.211 439.330 580.830 438.453 Q 578.449 437.576 573.282 436.897 Q 568.115 436.218 565.656 436.563 Q 563.197 436.909 562.289 437.158 "/>
    <path id="STROKE_e9ad362d-913c-4a47-8a41-b406cbda3b34" opacity="1.000" fill="none" stroke="#456150" stroke-width="9.540" stroke-opacity="1.000" stroke-linecap="round" stroke-linejoin="round" d="M 558.577 387.895 Q 558.698 388.476 557.528 390.229 Q 557.240 391.832 558.385 395.261 Q 559.530 398.689 561.231 400.613 Q 562.932 402.536 564.058 403.259 Q 565.185 403.981 566.886 404.330 Q 568.588 404.679 572.363 402.523 Q 576.138 400.366 578.642 398.414 Q 581.145 396.462 582.612 395.437 Q 584.078 394.412 585.189 393.839 Q 586.300 393.266 587.900 392.932 Q 589.499 392.597 591.302 392.791 Q 593.104 392.985 595.491 394.591 Q 597.877 396.198 598.991 397.561 Q 600.105 398.924 601.388 402.146 Q 602.672 405.368 602.876 407.891 Q 603.081 410.414 602.755 412.507 Q 602.428 414.601 601.878 415.957 Q 601.328 417.314 600.450 418.584 Q 599.572 419.855 597.963 422.349 "/>
    <path id="STROKE_743b106c-ceab-4da2-bce6-e5e09d089326" opacity="1.000" fill="none" stroke="#456150" stroke-width="9.358" stroke-opacity="1.000" stroke-linecap="round" stroke-linejoin="round" d="M 581.951 264.231 L 581.895 264.667 Q 581.409 267.445 581.858 270.757 Q 582.307 274.070 582.925 275.683 Q 583.542 277.296 584.193 278.290 Q 584.843 279.284 586.015 280.476 Q 587.187 281.667 588.534 282.560 Q 589.880 283.453 590.795 283.949 Q 591.710 284.445 595.393 285.265 Q 599.076 286.084 602.066 285.750 Q 605.056 285.417 607.193 284.462 Q 609.330 283.508 611.159 282.004 Q 612.988 280.500 614.086 279.083 Q 615.185 277.667 615.631 276.902 Q 616.077 276.138 616.688 274.251 Q 617.299 272.365 617.413 270.757 Q 617.527 269.149 617.482 268.463 Q 617.436 267.778 617.282 265.898 Q 617.128 264.017 617.005 262.735 Q 616.882 261.454 616.334 258.312 "/>
    <path id="STROKE_04ec1dfa-2ded-4e40-a6d5-73acf99d642c" opacity="1.000" fill="none" stroke="#456150" stroke-width="13.233" stroke-opacity="1.000" stroke-linecap="round" stroke-linejoin="round" d="M 584.750 257.321 Q 585.745 257.021 592.178 256.381 Q 598.611 255.741 603.584 254.712 Q 608.557 253.683 610.668 253.003 Q 612.780 252.323 613.573 251.826 Q 614.367 251.329 617.152 249.492 "/>
    <path id="STROKE_95b9bcdc-f558-42de-af28-cbdf824a4c0c" opacity="1.000" fill="none" stroke="#456150" stroke-width="9.630" stroke-opacity="1.000" stroke-linecap="round" stroke-linejoin="round" d="M 586.449 207.752 Q 586.940 208.497 588.166 210.614 Q 589.392 212.731 591.365 214.909 Q 593.337 217.088 595.156 218.342 Q 596.974 219.596 598.445 220.366 Q 599.916 221.135 602.775 221.681 Q 605.633 222.227 607.896 221.975 Q 610.160 221.724 611.839 220.863 Q 613.519 220.002 615.084 218.396 Q 616.649 216.790 617.657 214.407 Q 618.666 212.024 619.004 210.465 Q 619.343 208.907 619.358 208.197 Q 619.374 207.488 619.229 204.544 "/>
    <path id="STROKE_5ea22d70-82a4-4bd4-ac49-d989294e004b" opacity="1.000" fill="none" stroke="#456150" stroke-width="13.691" stroke-opacity="1.000" stroke-linecap="round" stroke-linejoin="round" d="M 555.180 206.950 Q 555.918 206.640 561.758 205.437 Q 567.597 204.234 571.834 203.032 Q 576.071 201.830 581.594 199.977 Q 587.116 198.124 590.986 196.771 Q 594.855 195.419 602.629 192.756 Q 610.402 190.094 615.294 188.476 Q 620.186 186.858 630.669 183.536 L 631.938 183.108 "/>
    <path id="STROKE_71c11238-0e6d-4e02-a496-0a608e473188" opacity="1.000" fill="none" stroke="#456150" stroke-width="10.033" stroke-opacity="1.000" stroke-linecap="round" stroke-linejoin="round" d="M 597.050 139.033 Q 597.069 139.131 596.639 139.928 Q 596.210 140.724 596.429 141.266 Q 596.648 141.807 596.639 142.157 Q 596.630 142.506 596.792 143.823 Q 596.955 145.139 598.018 147.517 Q 599.081 149.895 601.187 152.424 Q 603.294 154.952 606.732 156.711 Q 610.171 158.469 612.958 158.707 Q 615.746 158.945 617.516 158.514 Q 619.285 158.083 621.338 156.462 Q 623.391 154.841 625.575 150.335 Q 627.760 145.829 628.476 137.090 L 627.942 134.647 "/>
    <path id="STROKE_d725b24f-a691-4343-ab2e-4b64d476724b" opacity="1.000" fill="none" stroke="#456150" stroke-width="10.662" stroke-opacity="1.000" stroke-linecap="round" stroke-linejoin="round" d="M 557.067 139.434 Q 557.848 139.214 566.031 138.755 Q 574.214 138.297 584.745 136.485 Q 595.276 134.674 603.794 132.530 Q 612.313 130.386 616.522 129.322 Q 620.732 128.258 623.094 127.694 Q 625.455 127.130 628.673 126.595 Q 631.890 126.061 634.889 125.984 L 638.324 126.134 "/>
    <path id="STROKE_ae6cb5a1-4edf-4c71-a27c-0dc5e3089e22" opacity="1.000" fill="none" stroke="#456150" stroke-width="11.252" stroke-opacity="1.000" stroke-linecap="round" stroke-linejoin="round" d="M 570.280 92.176 Q 570.301 92.373 570.350 92.513 Q 570.400 92.653 570.593 92.785 Q 570.786 92.916 578.868 93.349 Q 586.950 93.782 600.807 92.627 Q 614.664 91.473 628.503 88.658 Q 628.626 88.394 629.232 88.072 "/>
    <path id="STROKE_d40ec722-8a86-4de5-bc20-a3f23478e999" opacity="1.000" fill="none" stroke="#456150" stroke-width="9.788" stroke-opacity="1.000" stroke-linecap="round" stroke-linejoin="round" d="M 564.774 95.383 Q 564.527 95.050 562.789 92.058 Q 561.050 89.066 560.088 86.231 Q 559.125 83.396 558.958 80.905 Q 558.791 78.413 559.339 75.937 Q 559.887 73.460 561.891 70.737 Q 563.895 68.014 566.255 66.572 Q 568.616 65.130 571.346 64.865 Q 574.076 64.601 575.828 65.043 Q 577.579 65.486 580.203 67.712 Q 582.827 69.938 591.501 86.218 Q 592.492 86.868 598.780 82.371 Q 605.067 77.874 609.516 73.043 Q 613.964 68.212 617.145 64.700 Q 620.325 61.188 623.102 58.174 Q 625.878 55.161 629.920 51.042 Q 630.124 50.859 630.375 50.813 Q 630.627 50.766 631.623 50.011 "/>
    <path id="STROKE_22e3eade-5a39-44ce-b492-2b9e4fa6bd69" opacity="1.000" fill="none" stroke="#456150" stroke-width="8.899" stroke-opacity="1.000" stroke-linecap="round" stroke-linejoin="round" d="M 598.340 25.273 Q 598.665 24.457 599.369 22.202 Q 600.074 19.947 601.070 17.805 Q 602.066 15.663 604.291 13.446 Q 606.516 11.229 609.403 9.904 Q 612.291 8.578 615.444 8.191 Q 618.598 7.804 621.917 8.487 Q 625.235 9.171 627.832 10.884 Q 630.429 12.598 632.273 15.209 Q 634.117 17.820 634.825 21.606 Q 635.532 25.391 635.162 27.659 Q 634.792 29.926 633.380 32.402 Q 631.968 34.878 629.676 36.687 Q 627.384 38.495 623.721 39.160 Q 620.059 39.826 616.116 38.961 Q 612.172 38.097 609.062 36.401 Q 605.953 34.705 604.755 33.489 Q 603.557 32.273 603.220 31.679 Q 602.882 31.084 602.761 30.659 Q 602.641 30.233 602.681 29.953 Q 602.721 29.673 602.839 27.679 "/>
    <path id="STROKE_f52915f4-10ac-4f06-920c-5aa587cebfa3" opacity="1.000" fill="none" stroke="#456150" stroke-width="9.293" stroke-opacity="1.000" stroke-linecap="round" stroke-linejoin="round" d="M 595.352 -9.958 Q 596.711 -10.419 601.307 -10.417 Q 605.903 -10.416 610.831 -10.957 Q 615.760 -11.498 618.863 -12.489 Q 621.967 -13.479 623.909 -15.010 Q 625.851 -16.541 626.386 -18.254 Q 626.922 -19.967 626.495 -21.461 Q 626.068 -22.954 622.964 -25.992 Q 619.859 -29.029 608.831 -35.105 Q 608.867 -35.220 611.595 -36.497 Q 614.324 -37.773 618.767 -39.848 Q 623.210 -41.922 625.033 -43.205 Q 626.857 -44.488 628.812 -46.661 Q 630.767 -48.834 631.692 -51.509 Q 632.618 -54.184 632.483 -56.951 Q 632.349 -59.718 630.629 -62.559 Q 628.910 -65.400 623.593 -68.949 Q 618.275 -72.497 611.058 -74.302 Q 603.841 -76.106 595.201 -75.131 Q 594.658 -74.871 593.559 -73.159 "/>
    <path id="STROKE_b33a5a64-9f0c-48b1-9ef4-1add16c8d804" opacity="1.000" fill="none" stroke="#456150" stroke-width="10.615" stroke-opacity="1.000" stroke-linecap="round" stroke-linejoin="round" d="M 701.083 639.351 Q 700.977 640.607 701.088 640.931 Q 701.135 642.282 701.320 643.439 Q 701.505 644.596 701.667 645.333 Q 701.830 646.070 702.896 648.553 Q 703.961 651.036 707.173 654.062 Q 710.384 657.088 712.883 658.385 Q 715.382 659.682 719.887 660.886 Q 724.391 662.090 728.099 662.132 Q 731.806 662.173 734.234 661.600 Q 736.663 661.027 738.730 659.706 Q 740.797 658.386 741.622 657.227 Q 742.447 656.069 742.688 655.184 Q 742.930 654.299 742.963 653.739 Q 742.996 653.178 742.542 651.453 Q 742.088 649.728 737.737 645.928 Q 733.386 642.128 729.817 640.416 Q 726.248 638.703 715.308 635.211 Q 715.231 635.220 724.423 633.214 Q 733.615 631.207 744.713 628.785 Q 744.801 628.691 744.344 628.811 Q 743.888 628.930 743.142 629.140 "/>
    <path id="STROKE_390987ed-c569-406e-a78a-231f8c254d31" opacity="1.000" fill="none" stroke="#456150" stroke-width="8.754" stroke-opacity="1.000" stroke-linecap="round" stroke-linejoin="round" d="M 701.271 587.565 Q 701.855 587.768 706.883 591.085 Q 711.911 594.402 714.267 595.527 Q 716.622 596.653 720.320 597.271 Q 724.018 597.888 726.457 597.714 Q 728.897 597.540 731.360 596.728 Q 733.823 595.916 736.918 593.386 Q 740.014 590.856 741.400 587.827 Q 742.787 584.798 742.813 583.217 Q 742.839 581.636 742.202 580.249 Q 741.564 578.862 736.960 577.479 Q 732.356 576.096 728.772 576.176 Q 725.188 576.255 717.918 577.862 Q 710.649 579.468 697.894 583.543 Q 685.139 587.618 675.749 589.267 Q 675.639 588.710 677.535 587.975 Q 679.431 587.241 680.603 586.763 "/>
    <path id="STROKE_8ccf6dde-572e-483a-9bc9-8cece6b44e37" opacity="1.000" fill="none" stroke="#456150" stroke-width="8.491" stroke-opacity="1.000" stroke-linecap="round" stroke-linejoin="round" d="M 710.772 543.702 Q 711.037 543.818 711.361 543.915 Q 711.685 544.012 711.766 544.029 Q 711.846 544.046 714.679 545.796 Q 717.511 547.545 720.632 548.854 Q 723.753 550.163 728.122 550.684 Q 732.491 551.205 735.222 550.728 Q 737.953 550.252 739.840 549.123 Q 741.726 547.994 742.710 546.692 Q 743.694 545.390 743.950 543.582 Q 744.207 541.774 743.869 540.606 Q 743.530 539.438 742.661 538.380 Q 741.791 537.322 735.700 535.242 Q 729.608 533.161 722.810 532.954 Q 716.012 532.747 709.287 533.563 Q 702.562 534.379 699.129 535.046 Q 695.695 535.713 688.975 537.147 Q 682.254 538.580 680.146 539.040 Q 678.039 539.501 678.479 539.560 Q 678.918 539.620 679.408 539.599 "/>
    <path id="STROKE_6da3c510-57e4-40e6-9b1c-eeb56fc4fc25" opacity="1.000" fill="none" stroke="#456150" stroke-width="8.765" stroke-opacity="1.000" stroke-linecap="round" stroke-linejoin="round" d="M 693.879 501.349 L 695.312 500.727 L 697.035 500.752 Q 697.793 500.815 708.738 500.770 Q 719.684 500.724 728.000 500.198 Q 736.316 499.672 741.147 498.818 Q 745.978 497.964 752.553 495.295 Q 752.550 495.141 751.913 494.980 Q 751.275 494.819 750.063 494.652 "/>
    <path id="STROKE_d7f9d354-c62b-4cf0-ad91-bdb15a0cdeb3" opacity="1.000" fill="none" stroke="#456150" stroke-width="11.045" stroke-opacity="1.000" stroke-linecap="round" stroke-linejoin="round" d="M 695.892 506.655 Q 692.053 505.037 690.487 504.205 Q 688.921 503.373 686.910 501.853 Q 684.898 500.333 683.449 498.756 Q 682.000 497.180 680.762 494.591 Q 679.524 492.003 679.426 489.798 Q 679.327 487.593 679.913 485.842 Q 680.500 484.091 682.771 482.048 Q 685.043 480.004 687.896 479.236 Q 690.749 478.468 693.574 478.770 Q 696.398 479.073 700.557 481.320 Q 704.716 483.567 712.275 488.604 Q 712.838 488.697 713.660 488.533 Q 714.483 488.369 714.980 488.175 Q 715.477 487.981 719.316 485.654 Q 723.155 483.327 728.868 478.215 Q 734.580 473.103 737.815 470.034 Q 741.049 466.964 743.069 465.190 Q 745.088 463.415 746.015 462.627 Q 746.943 461.839 749.849 460.128 Q 750.179 460.070 750.327 460.449 Q 750.476 460.827 750.849 461.307 "/>
    <path id="STROKE_6b5e6d26-c046-4799-9580-aab7df038f72" opacity="1.000" fill="none" stroke="#456150" stroke-width="9.722" stroke-opacity="1.000" stroke-linecap="round" stroke-linejoin="round" d="M 715.082 429.258 Q 715.644 428.674 717.843 427.130 Q 720.042 425.586 723.570 424.095 Q 727.098 422.603 731.502 422.099 Q 735.906 421.594 739.520 422.316 Q 743.135 423.039 745.496 424.582 Q 747.857 426.125 749.043 427.646 Q 750.228 429.168 750.781 431.444 Q 751.334 433.720 750.993 435.593 Q 750.652 437.466 749.013 439.569 Q 747.375 441.672 743.793 442.994 Q 740.211 444.317 737.757 444.215 Q 735.303 444.113 733.040 443.136 Q 730.776 442.160 729.121 440.393 Q 727.466 438.625 726.775 436.513 Q 726.084 434.401 726.162 432.717 Q 726.240 431.034 727.256 426.546 "/>
    <path id="STROKE_84ed7497-1408-4d65-a00f-f92b397627ec" opacity="1.000" fill="none" stroke="#456150" stroke-width="8.289" stroke-opacity="1.000" stroke-linecap="round" stroke-linejoin="round" d="M 716.560 395.701 L 718.082 394.339 Q 718.371 394.118 723.106 393.114 Q 727.841 392.110 731.571 391.210 Q 735.302 390.309 738.023 388.978 Q 740.744 387.647 742.031 386.418 Q 743.318 385.190 744.021 383.512 Q 744.725 381.834 744.393 380.107 Q 744.060 378.380 740.523 374.915 Q 736.986 371.450 733.131 368.514 Q 729.276 365.579 731.503 363.794 Q 733.729 362.008 736.179 360.341 Q 738.630 358.673 740.767 356.516 Q 742.904 354.360 743.726 353.120 Q 744.549 351.881 745.217 349.830 Q 745.885 347.780 745.958 344.692 Q 746.031 341.605 744.594 338.078 Q 743.156 334.550 738.341 330.192 Q 733.525 325.833 725.685 322.469 Q 717.845 319.105 700.560 316.811 L 697.496 316.890 "/>
    <path id="STROKE_694bfac3-670b-4926-977e-b6afa4efc35a" opacity="1.000" fill="none" stroke="#456150" stroke-width="13.401" stroke-opacity="1.000" stroke-linecap="round" stroke-linejoin="round" d="M 805.115 546.414 L 804.870 546.971 Q 804.245 548.637 803.875 550.375 Q 803.505 552.114 803.566 554.826 Q 803.627 557.538 804.496 559.980 Q 805.364 562.421 807.228 564.316 Q 809.091 566.212 811.952 567.490 Q 814.813 568.768 817.567 569.100 Q 820.320 569.431 823.111 569.032 Q 825.903 568.633 828.949 567.151 Q 831.995 565.668 834.492 563.252 Q 836.989 560.836 838.405 557.685 Q 839.821 554.534 839.954 551.147 Q 840.088 547.760 838.329 541.174 L 837.108 537.996 "/>
    <path id="STROKE_86e24ae4-af04-4b12-9a1e-4917a28ed326" opacity="1.000" fill="none" stroke="#456150" stroke-width="11.069" stroke-opacity="1.000" stroke-linecap="round" stroke-linejoin="round" d="M 841.606 476.517 L 841.964 477.003 L 842.605 477.890 Q 843.764 480.180 844.567 484.545 Q 845.370 488.909 844.888 492.250 Q 844.406 495.590 842.936 498.193 Q 841.466 500.796 839.678 502.511 Q 837.891 504.225 834.922 505.330 Q 831.953 506.435 829.176 506.293 Q 826.399 506.151 824.222 504.955 Q 822.045 503.760 820.941 502.340 Q 819.838 500.921 819.516 499.472 Q 819.194 498.023 819.392 497.145 Q 819.589 496.267 819.686 496.087 Q 819.784 495.907 820.396 495.379 Q 821.008 494.852 821.616 494.669 Q 822.224 494.486 822.805 494.494 Q 823.386 494.501 824.504 495.179 Q 825.622 495.857 827.419 498.886 Q 829.217 501.915 829.993 506.098 Q 830.769 510.282 831.099 513.871 "/>
    <path id="STROKE_da770049-33da-48ea-9cf8-369b7ef4d0b8" opacity="1.000" fill="none" stroke="#456150" stroke-width="9.171" stroke-opacity="1.000" stroke-linecap="round" stroke-linejoin="round" d="M 786.114 456.802 L 786.798 456.521 Q 787.356 456.299 791.311 455.881 Q 795.267 455.463 807.857 455.173 Q 820.448 454.884 826.669 454.716 Q 832.891 454.547 836.477 454.210 Q 840.064 453.873 841.123 453.647 Q 842.181 453.421 844.595 453.076 "/>
    <path id="STROKE_675279a5-d02e-4b5e-9606-004e706b6e2e" opacity="1.000" fill="none" stroke="#456150" stroke-width="12.494" stroke-opacity="1.000" stroke-linecap="round" stroke-linejoin="round" d="M 788.442 427.042 Q 791.061 426.296 796.384 425.862 Q 801.708 425.428 816.088 424.551 Q 830.468 423.674 841.173 421.321 L 841.257 421.197 Q 841.125 420.924 839.687 419.943 "/>
    <path id="STROKE_cf1288e6-92c4-4b67-9ed4-e073e4fd9867" opacity="1.000" fill="none" stroke="#456150" stroke-width="8.879" stroke-opacity="1.000" stroke-linecap="round" stroke-linejoin="round" d="M 808.323 366.860 Q 808.348 367.112 809.211 371.235 Q 810.073 375.358 812.209 379.323 Q 814.345 383.288 816.019 384.805 Q 817.694 386.323 819.471 386.807 Q 821.248 387.292 822.456 387.075 Q 823.664 386.858 824.377 386.387 Q 825.089 385.916 827.589 382.610 Q 830.088 379.304 831.445 377.350 Q 832.802 375.397 834.326 373.598 Q 835.851 371.799 837.732 370.557 Q 839.613 369.315 841.093 369.067 Q 842.573 368.820 843.732 369.054 Q 844.890 369.289 846.278 370.711 Q 847.666 372.132 848.547 374.253 Q 849.427 376.375 849.958 380.516 Q 850.490 384.657 850.299 388.280 Q 850.108 391.904 849.188 400.300 "/>
    <path id="STROKE_3767cca6-f0e6-4ff1-8b20-21665fb6fedd" opacity="1.000" fill="none" stroke="#456150" stroke-width="12.759" stroke-opacity="1.000" stroke-linecap="round" stroke-linejoin="round" d="M 811.312 246.497 L 812.020 246.469 Q 812.963 246.719 845.825 243.297 Q 845.666 243.086 840.071 242.327 Q 834.477 241.569 827.845 240.136 Q 821.214 238.704 817.937 237.118 Q 814.659 235.531 813.322 234.372 Q 811.986 233.213 811.675 232.919 Q 811.364 232.624 810.482 231.041 Q 809.600 229.457 809.086 226.506 Q 808.572 223.556 808.628 223.091 Q 808.683 222.626 808.758 221.796 Q 808.833 220.966 809.938 218.681 Q 811.043 216.396 814.155 213.673 Q 817.267 210.949 819.587 209.731 Q 821.907 208.513 824.680 207.499 Q 827.454 206.486 831.627 205.607 Q 835.799 204.729 838.161 204.477 Q 840.523 204.224 842.027 204.336 Q 843.531 204.448 846.797 204.427 "/>
    <path id="STROKE_cebe7c12-b47f-4c82-83d5-372567ea3eb6" opacity="1.000" fill="none" stroke="#456150" stroke-width="8.193" stroke-opacity="1.000" stroke-linecap="round" stroke-linejoin="round" d="M 806.310 177.708 Q 809.065 177.565 814.952 177.823 Q 820.838 178.081 824.902 177.757 Q 828.966 177.432 831.728 176.590 Q 834.491 175.748 835.956 174.785 Q 837.422 173.822 838.473 172.491 Q 839.524 171.160 839.819 168.072 Q 840.113 164.983 838.596 161.911 Q 837.079 158.840 834.266 156.205 Q 831.453 153.569 828.765 152.157 Q 826.077 150.745 823.827 150.163 Q 821.578 149.581 820.296 149.751 Q 820.863 149.897 828.436 148.529 Q 836.009 147.160 841.075 145.501 Q 846.141 143.843 847.678 143.255 "/>
    <path id="STROKE_5a9ae8ee-5074-4fe8-a294-de17d9564ab9" opacity="1.000" fill="none" stroke="#456150" stroke-width="8.998" stroke-opacity="1.000" stroke-linecap="round" stroke-linejoin="round" d="M 806.027 127.431 Q 807.292 127.026 814.841 127.064 Q 822.391 127.102 829.948 127.055 Q 837.504 127.007 840.858 125.789 Q 840.966 125.456 838.045 123.770 Q 835.124 122.083 832.551 120.699 Q 829.977 119.315 827.899 117.818 Q 825.820 116.322 824.604 114.938 Q 823.387 113.554 822.937 112.433 Q 822.487 111.312 822.729 109.938 Q 822.971 108.563 830.831 100.135 Q 830.488 99.471 827.870 97.340 Q 825.253 95.210 822.540 92.984 Q 819.828 90.759 818.210 88.767 Q 816.592 86.774 815.996 85.033 Q 815.400 83.293 815.414 81.468 Q 815.429 79.643 817.955 76.878 Q 820.480 74.113 825.935 72.469 Q 831.389 70.826 834.799 70.743 Q 838.210 70.660 841.079 71.111 Q 843.949 71.562 848.873 73.451 "/>
    <path id="STROKE_78cbe209-1469-4678-a332-07d0753024b8" opacity="1.000" fill="none" stroke="#456150" stroke-width="7.263" stroke-opacity="1.000" stroke-linecap="round" stroke-linejoin="round" d="M 772.933 49.822 Q 775.099 48.912 785.418 47.881 Q 795.736 46.851 810.047 47.598 Q 824.358 48.344 836.362 48.348 Q 836.311 48.087 834.059 45.593 Q 831.808 43.099 829.782 40.590 Q 827.755 38.081 827.025 36.537 Q 826.294 34.993 826.020 32.366 Q 825.747 29.739 827.411 27.111 Q 829.076 24.483 830.555 23.402 Q 832.035 22.320 835.159 21.582 Q 838.283 20.845 840.749 21.215 Q 843.216 21.586 845.290 23.160 Q 847.365 24.734 848.625 27.004 Q 849.885 29.275 850.440 32.007 Q 850.995 34.739 851.056 37.787 Q 851.117 40.836 848.415 48.773 L 847.080 50.931 "/>
    <path id="STROKE_31d87056-cb25-4465-b4a3-abd8661a3f27" opacity="1.000" fill="none" stroke="#456150" stroke-width="6.612" stroke-opacity="1.000" stroke-linecap="round" stroke-linejoin="round" d="M 852.585 -24.391 Q 852.785 -24.359 853.368 -24.314 Q 853.950 -24.268 854.609 -23.941 Q 855.268 -23.613 855.879 -22.506 Q 856.489 -21.400 856.744 -18.968 Q 856.998 -16.536 856.558 -14.438 Q 856.117 -12.341 854.017 -9.269 Q 851.917 -6.197 849.290 -4.397 Q 846.664 -2.598 842.975 -1.935 Q 839.287 -1.273 835.938 -2.243 Q 832.590 -3.213 830.069 -5.446 Q 827.547 -7.679 826.563 -9.716 Q 825.579 -11.752 825.464 -12.745 Q 825.349 -13.738 825.504 -14.363 Q 825.659 -14.988 826.258 -15.184 Q 826.858 -15.380 827.741 -15.204 Q 828.624 -15.028 829.867 -13.633 Q 831.111 -12.238 832.064 -9.786 Q 833.018 -7.334 833.534 -4.731 Q 834.049 -2.128 834.685 3.554 "/>
    <path id="STROKE_cebe2c46-501d-4063-80dc-8d79d902ab89" opacity="1.000" fill="none" stroke="#456150" stroke-width="8.437" stroke-opacity="1.000" stroke-linecap="round" stroke-linejoin="round" d="M 826.318 -42.714 Q 827.513 -43.176 831.635 -43.800 Q 835.756 -44.423 844.466 -45.477 Q 844.272 -45.528 841.395 -45.854 Q 838.517 -46.179 835.395 -46.783 Q 832.274 -47.388 829.798 -48.305 Q 827.322 -49.222 824.133 -51.180 Q 820.943 -53.139 818.805 -55.635 Q 816.667 -58.131 815.474 -61.876 Q 814.280 -65.622 814.342 -68.567 Q 814.405 -71.512 815.490 -74.157 Q 816.574 -76.802 818.286 -78.475 Q 818.896 -78.478 820.215 -79.054 "/>
    <path id="STROKE_931c6809-dea4-48d4-9ecf-a70ccc0311f7" opacity="1.000" fill="none" stroke="#456150" stroke-width="12.844" stroke-opacity="1.000" stroke-linecap="round" stroke-linejoin="round" d="M 787.341 -135.132 Q 786.984 -134.838 785.905 -134.445 Q 784.825 -134.051 782.766 -132.647 Q 780.706 -131.242 779.154 -129.483 Q 777.603 -127.724 776.898 -126.282 Q 776.192 -124.839 775.992 -123.933 Q 775.793 -123.026 776.021 -120.564 Q 776.248 -118.102 778.152 -115.325 Q 780.056 -112.549 783.678 -110.199 Q 787.299 -107.849 792.144 -106.331 Q 796.988 -104.814 804.821 -104.187 Q 812.654 -103.560 818.506 -104.196 Q 824.359 -104.832 829.512 -106.616 Q 834.666 -108.400 837.968 -110.461 Q 841.270 -112.522 843.633 -115.079 Q 845.995 -117.636 847.111 -119.464 Q 848.227 -121.292 849.518 -126.549 Q 850.808 -131.805 847.898 -150.366 "/>
    <path id="STROKE_68c87d12-929a-461c-9328-384d7bfbd2b0" opacity="1.000" fill="none" stroke="#456150" stroke-width="8.178" stroke-opacity="1.000" stroke-linecap="round" stroke-linejoin="round" d="M 846.293 -208.237 L 846.654 -207.635 Q 847.022 -207.244 848.083 -204.191 Q 849.144 -201.139 849.243 -198.166 Q 849.342 -195.193 848.855 -193.171 Q 848.369 -191.148 846.144 -187.959 Q 843.920 -184.770 840.242 -182.649 Q 836.565 -180.528 832.286 -179.917 Q 828.007 -179.307 825.617 -179.645 Q 823.227 -179.982 821.497 -180.808 Q 819.766 -181.633 818.912 -182.460 Q 818.058 -183.286 817.682 -184.001 Q 817.306 -184.715 817.119 -185.798 Q 816.933 -186.881 817.400 -187.825 Q 817.867 -188.769 818.673 -189.268 Q 819.479 -189.768 820.399 -189.877 Q 821.319 -189.986 822.729 -189.417 Q 824.139 -188.847 827.079 -185.482 Q 830.019 -182.116 834.115 -173.018 L 834.497 -171.803 "/>
    <path id="STROKE_c1cbd277-22e1-4985-9648-65a1d65ed7d5" opacity="1.000" fill="none" stroke="#456150" stroke-width="7.624" stroke-opacity="1.000" stroke-linecap="round" stroke-linejoin="round" d="M 767.554 -227.480 Q 767.733 -227.525 770.136 -228.180 Q 772.539 -228.835 784.574 -229.175 Q 796.609 -229.514 803.215 -229.086 Q 809.821 -228.658 816.372 -228.380 Q 822.924 -228.102 841.896 -229.461 Q 842.501 -229.813 844.784 -231.064 "/>
    <path id="STROKE_72252ae7-5f40-4d42-8acd-8b4e99efa67f" opacity="1.000" fill="none" stroke="#456150" stroke-width="6.979" stroke-opacity="1.000" stroke-linecap="round" stroke-linejoin="round" d="M 762.332 -252.996 Q 762.485 -253.065 764.160 -253.947 Q 765.835 -254.829 772.727 -255.560 Q 779.618 -256.291 784.826 -256.307 Q 790.034 -256.322 796.538 -256.280 Q 803.042 -256.237 811.368 -256.309 Q 819.694 -256.381 824.944 -256.862 Q 830.194 -257.342 832.279 -257.709 Q 834.363 -258.077 835.431 -258.400 Q 836.500 -258.723 837.286 -259.276 Q 838.072 -259.828 840.379 -260.919 "/>
    <path id="STROKE_e9f63193-e068-417f-aec1-739a167f263c" opacity="1.000" fill="none" stroke="#456150" stroke-width="8.132" stroke-opacity="1.000" stroke-linecap="round" stroke-linejoin="round" d="M 799.735 -309.286 Q 800.185 -308.473 801.713 -304.911 Q 803.241 -301.349 804.459 -299.548 Q 805.678 -297.748 806.970 -296.712 Q 808.262 -295.676 809.240 -295.461 Q 810.218 -295.246 810.921 -295.286 Q 811.625 -295.326 812.407 -295.667 Q 813.189 -296.008 817.539 -299.395 Q 821.890 -302.782 824.584 -304.756 Q 827.278 -306.729 830.262 -307.714 Q 833.246 -308.699 834.856 -308.655 Q 836.466 -308.611 837.486 -308.278 Q 838.507 -307.944 839.345 -307.243 Q 840.184 -306.541 841.544 -304.399 Q 842.904 -302.256 843.339 -289.889 Q 843.774 -277.521 843.588 -274.738 "/>
    <path id="STROKE_024e5763-35d6-42df-a1e8-e5bb27fa41ad" opacity="1.000" fill="none" stroke="#456150" stroke-width="11.231" stroke-opacity="1.000" stroke-linecap="round" stroke-linejoin="round" d="M 929.532 556.130 Q 930.056 556.838 930.290 557.841 L 930.806 559.341 Q 930.855 559.715 932.400 562.463 Q 933.945 565.211 936.535 567.870 Q 939.125 570.530 942.581 572.331 Q 946.037 574.132 950.178 574.764 Q 954.319 575.397 957.533 574.843 Q 960.747 574.290 963.012 572.812 Q 965.277 571.334 966.631 569.150 Q 967.985 566.966 968.316 564.421 Q 968.648 561.877 968.253 559.695 Q 967.858 557.513 966.254 554.882 Q 964.650 552.250 960.575 549.216 Q 956.500 546.183 949.675 544.047 Q 942.851 541.912 935.348 541.478 Q 927.845 541.044 923.674 541.466 Q 919.502 541.889 911.844 544.006 Q 904.186 546.124 892.167 550.868 Q 892.145 550.909 892.038 551.001 Q 891.930 551.094 890.775 551.626 "/>
    <path id="STROKE_4914ec86-538d-418e-8f76-458e0b7b1664" opacity="1.000" fill="none" stroke="#456150" stroke-width="12.830" stroke-opacity="1.000" stroke-linecap="round" stroke-linejoin="round" d="M 963.223 503.849 Q 963.091 506.829 962.294 510.976 Q 961.497 515.122 960.294 517.909 Q 959.092 520.696 956.579 523.454 Q 954.067 526.211 951.647 527.510 Q 949.227 528.809 947.223 529.137 Q 945.219 529.465 942.525 528.846 Q 939.831 528.226 936.905 526.038 Q 933.980 523.849 932.784 521.647 Q 931.588 519.445 931.538 517.752 Q 931.489 516.059 931.861 515.246 Q 932.232 514.433 933.382 513.371 Q 934.531 512.309 936.029 511.952 Q 937.528 511.596 938.640 511.814 Q 939.753 512.032 940.705 512.821 Q 941.657 513.610 942.193 514.927 Q 942.728 516.244 942.854 517.389 Q 942.980 518.534 942.287 520.213 Q 941.594 521.891 940.920 523.776 "/>
    <path id="STROKE_65ee37cd-0c63-426c-9b7e-a1ff62265d20" opacity="1.000" fill="none" stroke="#456150" stroke-width="8.651" stroke-opacity="1.000" stroke-linecap="round" stroke-linejoin="round" d="M 917.137 458.099 Q 917.724 458.264 921.249 460.332 Q 924.774 462.400 926.852 463.214 Q 928.930 464.028 930.390 464.247 Q 931.850 464.466 933.115 464.297 Q 934.380 464.127 936.907 462.759 Q 939.434 461.390 940.891 460.459 Q 942.349 459.529 944.319 458.464 Q 946.289 457.400 949.014 456.551 Q 951.739 455.702 953.919 455.706 Q 956.100 455.710 957.226 456.039 Q 958.353 456.369 959.358 457.038 Q 960.364 457.708 961.274 458.992 Q 962.185 460.276 962.884 462.914 Q 963.584 465.552 963.412 468.956 Q 963.241 472.360 963.098 473.616 "/>
    <path id="STROKE_5fb387ea-0d65-43bd-8937-312895e6d0bd" opacity="1.000" fill="none" stroke="#456150" stroke-width="15.950" stroke-opacity="1.000" stroke-linecap="round" stroke-linejoin="round" d="M 925.222 415.628 Q 925.603 415.789 931.376 419.879 Q 937.150 423.968 941.694 426.157 Q 946.238 428.347 949.425 428.825 Q 952.613 429.303 955.496 428.818 Q 958.380 428.333 961.885 425.378 Q 965.390 422.423 967.531 418.035 Q 969.672 413.647 970.291 409.356 Q 970.910 405.066 970.785 402.772 Q 970.660 400.478 970.006 397.625 Q 969.440 396.871 968.194 394.994 "/>
    <path id="STROKE_36cbcd4e-2b3b-4390-8485-8b4695ac0db8" opacity="1.000" fill="none" stroke="#456150" stroke-width="11.604" stroke-opacity="1.000" stroke-linecap="round" stroke-linejoin="round" d="M 977.191 373.062 Q 975.771 372.095 975.365 371.842 Q 974.463 371.440 968.933 370.714 Q 963.403 369.987 959.097 369.314 Q 954.790 368.641 949.941 366.791 Q 945.092 364.940 941.940 362.603 Q 938.787 360.265 937.474 358.531 Q 936.162 356.797 935.864 355.531 Q 935.566 354.264 935.760 353.011 Q 935.955 351.759 937.826 350.475 Q 939.698 349.192 940.416 348.749 "/>
    <path id="STROKE_b5e4de8e-9987-4c0b-abf6-105ac9777ed2" opacity="1.000" fill="none" stroke="#456150" stroke-width="11.100" stroke-opacity="1.000" stroke-linecap="round" stroke-linejoin="round" d="M 946.614 319.908 Q 947.905 319.792 956.990 320.176 Q 966.074 320.559 974.406 322.497 L 977.317 323.705 "/>
    <path id="STROKE_436f2f83-8922-40b8-b4c0-4e78ff4f8421" opacity="1.000" fill="none" stroke="#456150" stroke-width="19.260" stroke-opacity="1.000" stroke-linecap="round" stroke-linejoin="round" d="M 915.030 334.812 Q 915.222 334.649 915.354 333.021 Q 915.686 332.449 916.910 331.801 Q 918.133 331.152 919.275 330.764 Q 920.417 330.376 921.458 330.455 Q 922.498 330.535 923.429 330.402 "/>
    <path id="STROKE_2514e065-b533-4a4f-95d5-16b44d7fea28" opacity="1.000" fill="none" stroke="#456150" stroke-width="15.188" stroke-opacity="1.000" stroke-linecap="round" stroke-linejoin="round" d="M 952.308 291.067 Q 954.364 290.166 954.682 290.091 Q 955.001 290.016 960.072 289.645 Q 965.143 289.273 970.870 289.113 Q 976.598 288.952 985.064 288.518 Q 993.530 288.084 999.709 287.466 Q 1005.888 286.848 1009.319 286.434 Q 1012.751 286.019 1033.218 283.667 Q 1033.230 283.560 1026.723 284.499 Q 1020.217 285.439 1013.589 286.483 Q 1006.961 287.527 995.762 288.403 Q 984.563 289.279 976.967 288.847 Q 969.371 288.415 965.181 287.449 Q 960.991 286.483 957.580 284.980 Q 954.170 283.477 951.845 281.616 Q 949.521 279.756 948.478 278.488 Q 947.436 277.220 946.387 275.019 Q 945.338 272.819 944.926 269.790 Q 944.514 266.762 945.405 263.206 Q 946.296 259.651 949.478 255.257 Q 952.659 250.863 956.099 248.468 Q 959.538 246.072 962.096 245.333 Q 964.654 244.594 966.625 244.719 Q 968.595 244.843 970.047 245.380 Q 971.499 245.917 973.204 247.595 Q 974.908 249.273 976.209 252.673 Q 977.511 256.074 977.514 261.265 Q 977.518 266.455 976.322 270.802 Q 975.127 275.150 974.209 276.996 Q 973.292 278.843 972.000 281.446 "/>
    <path id="STROKE_4bf8f5fa-077f-44d8-a8a5-5fee4441e980" opacity="1.000" fill="none" stroke="#456150" stroke-width="10.459" stroke-opacity="1.000" stroke-linecap="round" stroke-linejoin="round" d="M 917.641 209.332 Q 919.502 209.019 924.524 208.899 Q 929.546 208.779 935.550 208.739 Q 941.554 208.698 952.525 208.852 Q 963.496 209.007 979.900 208.427 L 982.004 208.152 "/>
    <path id="STROKE_a78cac77-70b0-41ff-8d6c-3d5eadd25468" opacity="1.000" fill="none" stroke="#456150" stroke-width="16.573" stroke-opacity="1.000" stroke-linecap="round" stroke-linejoin="round" d="M 952.433 188.108 Q 952.487 188.727 951.815 195.579 Q 951.143 202.432 951.042 209.102 Q 950.942 215.773 951.196 219.908 Q 951.450 224.042 952.161 227.861 Q 952.873 231.681 953.725 234.512 Q 953.801 234.583 954.227 235.979 "/>
    <path id="STROKE_558b9fea-8ed4-4c15-ba7b-24b06e3c2df1" opacity="1.000" fill="none" stroke="#456150" stroke-width="11.635" stroke-opacity="1.000" stroke-linecap="round" stroke-linejoin="round" d="M 953.220 160.375 Q 955.890 159.003 966.928 158.621 Q 977.965 158.239 978.795 158.276 "/>
    <path id="STROKE_0bb3a369-b170-4950-b9e9-52cc9df0b239" opacity="1.000" fill="none" stroke="#456150" stroke-width="11.367" stroke-opacity="1.000" stroke-linecap="round" stroke-linejoin="round" d="M 911.034 169.596 Q 911.648 168.941 911.642 168.832 Q 911.636 168.723 911.939 168.183 Q 912.241 167.643 913.079 166.705 Q 913.917 165.767 914.875 164.693 Q 915.832 163.620 916.634 162.568 "/>
    <path id="STROKE_7f0d354f-fd7d-4394-bc7b-d3f9d5e821d5" opacity="1.000" fill="none" stroke="#456150" stroke-width="10.869" stroke-opacity="1.000" stroke-linecap="round" stroke-linejoin="round" d="M 945.418 116.112 Q 945.485 115.861 946.089 112.248 Q 946.693 108.635 948.052 105.515 Q 949.410 102.394 951.202 100.463 Q 952.994 98.532 955.408 97.253 Q 957.822 95.974 960.979 95.750 Q 964.136 95.526 966.371 96.359 Q 968.606 97.191 969.903 98.403 Q 971.200 99.615 971.990 101.586 Q 972.780 103.556 972.377 105.813 Q 971.973 108.070 969.647 110.718 Q 967.322 113.365 965.376 114.439 Q 963.430 115.514 960.447 116.142 Q 957.463 116.769 955.864 116.725 Q 954.265 116.681 953.121 116.470 Q 951.977 116.260 948.816 114.720 "/>
    <path id="STROKE_1375886d-65bc-404d-8100-540f3fdc94d6" opacity="1.000" fill="none" stroke="#456150" stroke-width="10.481" stroke-opacity="1.000" stroke-linecap="round" stroke-linejoin="round" d="M 950.609 76.753 Q 954.422 71.755 956.503 70.223 Q 958.583 68.692 961.188 67.582 Q 963.793 66.473 966.588 66.031 Q 969.384 65.589 970.573 66.078 Q 970.245 66.058 967.454 65.727 Q 964.662 65.396 959.672 63.392 Q 954.683 61.389 950.740 58.612 Q 946.797 55.835 944.223 52.697 Q 941.648 49.559 940.699 46.651 Q 939.750 43.744 940.030 41.425 Q 940.311 39.106 941.089 37.491 Q 941.868 35.875 944.367 33.417 Q 946.866 30.958 951.149 28.957 Q 955.431 26.955 957.804 26.385 Q 960.177 25.815 965.108 25.442 Q 970.040 25.069 973.626 25.497 Q 977.213 25.925 978.103 26.075 "/>
    <path id="STROKE_3c67bb2d-bb46-4be9-8354-a735194e0b1e" opacity="1.000" fill="none" stroke="#456150" stroke-width="14.602" stroke-opacity="1.000" stroke-linecap="round" stroke-linejoin="round" d="M 918.832 -92.400 Q 919.936 -91.992 920.177 -91.769 Q 920.418 -91.546 924.352 -90.239 Q 928.286 -88.932 930.769 -88.344 Q 933.252 -87.755 941.102 -86.283 Q 948.952 -84.811 955.533 -83.863 Q 962.114 -82.916 996.903 -77.346 Q 996.638 -77.379 996.163 -77.664 Q 995.688 -77.949 994.577 -78.588 "/>
    <path id="STROKE_732c2e7a-0191-4d42-bee9-d7053017aab3" opacity="1.000" fill="none" stroke="#456150" stroke-width="11.610" stroke-opacity="1.000" stroke-linecap="round" stroke-linejoin="round" d="M 911.120 -97.307 L 911.886 -98.055 Q 912.362 -98.279 926.441 -105.988 Q 940.519 -113.697 955.743 -121.779 Q 970.967 -129.861 977.675 -133.125 Q 984.382 -136.390 988.294 -138.165 L 989.950 -138.307 "/>
    <path id="STROKE_177f7f9a-cf94-4eff-b760-cc5445fa12f2" opacity="1.000" fill="none" stroke="#456150" stroke-width="10.979" stroke-opacity="1.000" stroke-linecap="round" stroke-linejoin="round" d="M 962.395 -129.807 Q 962.685 -129.121 964.865 -120.914 Q 967.045 -112.708 966.707 -98.201 L 966.230 -95.057 "/>
    <path id="STROKE_fd90994a-e62c-4414-8468-b618e8afaf09" opacity="1.000" fill="none" stroke="#456150" stroke-width="8.537" stroke-opacity="1.000" stroke-linecap="round" stroke-linejoin="round" d="M 949.388 -189.275 L 949.860 -188.904 Q 951.532 -187.485 952.196 -186.812 Q 952.860 -186.138 956.463 -182.578 Q 960.065 -179.018 963.134 -176.790 Q 966.204 -174.563 968.795 -173.391 Q 971.387 -172.219 973.151 -171.874 Q 974.916 -171.529 977.603 -171.635 Q 980.290 -171.741 982.115 -172.423 Q 983.939 -173.106 985.483 -174.793 Q 987.028 -176.481 987.430 -178.863 Q 987.831 -181.246 987.609 -182.554 Q 987.387 -183.862 986.561 -185.588 Q 985.736 -187.315 981.909 -190.899 Q 978.082 -194.482 969.958 -196.948 Q 961.833 -199.414 951.514 -198.907 Q 941.195 -198.400 932.036 -195.523 Q 922.876 -192.647 917.380 -189.474 Q 911.884 -186.302 909.105 -182.951 Q 908.999 -182.519 909.466 -181.888 Q 909.932 -181.257 910.328 -180.244 "/>
    <path id="STROKE_c4ef10f9-a2f0-43b0-a726-bf6aa240deeb" opacity="1.000" fill="none" stroke="#456150" stroke-width="8.886" stroke-opacity="1.000" stroke-linecap="round" stroke-linejoin="round" d="M 952.598 -240.619 L 952.763 -240.320 Q 953.790 -238.594 957.021 -234.931 Q 960.252 -231.268 963.427 -229.133 Q 966.603 -226.998 969.682 -226.500 Q 972.761 -226.002 974.800 -226.548 Q 976.840 -227.094 978.623 -229.467 Q 980.405 -231.840 980.838 -235.312 Q 981.270 -238.785 980.617 -241.314 Q 979.965 -243.844 978.595 -245.977 Q 977.224 -248.109 974.173 -250.416 Q 971.121 -252.723 962.707 -254.124 Q 954.293 -255.525 949.260 -255.179 Q 944.227 -254.832 937.580 -253.355 Q 930.933 -251.877 922.900 -248.808 Q 914.867 -245.739 897.924 -236.097 L 894.862 -234.119 "/>
    <path id="STROKE_9b3171fd-6221-4ed3-b05c-b7a8b85984d0" opacity="1.000" fill="none" stroke="#456150" stroke-width="11.706" stroke-opacity="1.000" stroke-linecap="round" stroke-linejoin="round" d="M 949.388 -328.338 Q 951.690 -328.964 951.847 -328.926 Q 952.005 -328.888 957.127 -328.801 Q 962.249 -328.714 975.420 -329.614 Q 975.400 -329.671 971.075 -330.772 Q 966.751 -331.874 959.172 -334.863 Q 951.594 -337.852 948.025 -340.161 Q 944.457 -342.470 942.683 -344.328 Q 940.910 -346.186 940.253 -347.759 Q 939.595 -349.332 939.548 -350.891 Q 939.500 -352.451 940.221 -353.822 Q 940.942 -355.192 943.726 -357.834 Q 946.510 -360.476 968.502 -368.811 L 973.233 -371.338 "/>
    <path id="STROKE_00ae4def-0997-4700-a674-7f0fb52ec318" opacity="1.000" fill="none" stroke="#456150" stroke-width="10.861" stroke-opacity="1.000" stroke-linecap="round" stroke-linejoin="round" d="M 932.338 -389.775 Q 935.565 -390.176 936.089 -390.270 Q 936.613 -390.364 946.487 -391.166 Q 956.361 -391.968 961.669 -392.787 Q 966.976 -393.605 970.193 -394.845 Q 973.410 -396.084 975.010 -397.555 Q 976.609 -399.025 977.155 -400.609 Q 977.702 -402.193 977.587 -403.089 Q 977.473 -403.984 976.639 -405.620 Q 975.805 -407.255 972.814 -409.958 Q 969.824 -412.661 961.538 -416.389 Q 953.253 -420.117 944.446 -422.078 Q 944.089 -422.066 947.764 -422.428 Q 951.439 -422.790 958.974 -424.854 Q 966.509 -426.917 970.666 -428.623 Q 974.822 -430.330 975.776 -430.775 "/>
    <path id="STROKE_f33c1274-c681-4fd3-9eab-b3f0b7682b5b" opacity="1.000" fill="none" stroke="#456150" stroke-width="12.715" stroke-opacity="1.000" stroke-linecap="round" stroke-linejoin="round" d="M 929.670 -443.525 Q 930.314 -443.977 931.733 -445.027 Q 933.153 -446.076 934.700 -446.716 Q 936.248 -447.356 942.594 -448.203 Q 948.940 -449.050 952.647 -449.494 Q 956.355 -449.938 958.316 -450.831 Q 958.368 -451.161 954.183 -454.662 Q 949.999 -458.164 946.560 -461.401 Q 943.120 -464.638 942.015 -466.499 Q 940.909 -468.360 940.817 -469.979 Q 940.726 -471.598 942.334 -473.487 Q 943.942 -475.375 947.821 -478.004 Q 951.700 -480.634 953.988 -482.867 Q 953.869 -482.975 949.772 -485.408 Q 945.676 -487.842 942.611 -489.635 Q 939.545 -491.428 938.378 -492.737 Q 937.211 -494.046 937.068 -495.227 Q 936.925 -496.409 938.725 -498.113 Q 940.525 -499.817 945.737 -501.694 Q 950.950 -503.572 954.420 -504.138 Q 957.890 -504.705 961.073 -504.864 L 965.021 -504.963 "/>
    <path id="STROKE_f37f721c-5442-4429-b7bd-760b83862e62" opacity="1.000" fill="none" stroke="#456150" stroke-width="10.610" stroke-opacity="1.000" stroke-linecap="round" stroke-linejoin="round" d="M 861.887 -531.775 Q 862.243 -531.990 864.014 -533.487 Q 865.891 -534.730 887.065 -535.080 Q 908.239 -535.429 926.768 -534.924 Q 945.297 -534.418 952.553 -535.036 Q 959.809 -535.655 962.275 -536.875 Q 962.248 -537.304 958.534 -540.406 Q 954.821 -543.507 950.804 -546.941 Q 946.788 -550.374 944.245 -553.514 Q 941.702 -556.653 940.524 -559.733 Q 939.346 -562.813 939.453 -566.582 Q 939.562 -570.351 942.011 -573.565 Q 944.461 -576.780 947.471 -578.159 Q 950.480 -579.538 954.106 -579.868 Q 957.733 -580.198 961.412 -578.660 Q 965.090 -577.121 968.297 -574.041 Q 971.503 -570.960 973.952 -566.165 Q 976.400 -561.370 977.924 -546.393 L 977.735 -542.525 "/>
    <path id="STROKE_d01205c6-99d1-47ee-88f3-681663aaaf28" opacity="1.000" fill="none" stroke="#456150" stroke-width="8.964" stroke-opacity="1.000" stroke-linecap="round" stroke-linejoin="round" d="M 976.151 -645.775 Q 976.065 -644.951 977.186 -643.426 Q 977.245 -643.270 977.238 -639.835 Q 977.231 -636.401 974.578 -629.953 Q 971.925 -623.505 968.298 -618.826 Q 964.670 -614.147 961.314 -611.592 Q 957.958 -609.037 955.633 -608.005 Q 953.309 -606.973 949.505 -606.481 Q 945.701 -605.988 941.551 -607.046 Q 937.400 -608.103 934.020 -610.618 Q 930.641 -613.132 928.658 -616.473 Q 926.675 -619.813 926.336 -622.344 Q 925.997 -624.876 926.254 -626.439 Q 926.510 -628.003 927.289 -629.261 Q 928.069 -630.519 929.414 -631.343 Q 930.759 -632.166 932.299 -632.562 Q 933.839 -632.959 935.636 -632.929 Q 937.434 -632.900 939.043 -632.515 Q 940.653 -632.130 943.508 -630.040 Q 946.363 -627.950 948.578 -624.385 Q 950.793 -620.820 951.216 -619.341 Q 951.638 -617.863 952.973 -613.932 "/>
    <path id="STROKE_26b70d46-417d-446a-95c5-35fe9953ca8c" opacity="1.000" fill="none" stroke="#456150" stroke-width="7.328" stroke-opacity="1.000" stroke-linecap="round" stroke-linejoin="round" d="M 978.152 -655.838 Q 976.844 -656.218 966.741 -656.867 Q 956.637 -657.515 951.243 -658.374 Q 945.849 -659.232 943.175 -660.370 Q 940.500 -661.507 938.766 -662.999 Q 937.031 -664.490 935.622 -668.071 Q 934.213 -671.652 934.051 -673.854 Q 933.889 -676.057 934.247 -678.387 Q 934.604 -680.716 936.048 -686.494 "/>
    <path id="STROKE_34e69bf2-465e-48d7-ba92-558440fc0f27" opacity="1.000" fill="none" stroke="#456150" stroke-width="9.390" stroke-opacity="1.000" stroke-linecap="round" stroke-linejoin="round" d="M 920.791 -719.025 Q 921.170 -718.797 921.083 -718.319 Q 921.735 -716.271 924.328 -713.076 Q 926.920 -709.882 929.889 -707.818 Q 932.858 -705.754 935.262 -705.091 Q 937.666 -704.427 939.949 -704.452 Q 942.232 -704.476 945.516 -705.896 Q 948.800 -707.316 952.866 -710.693 Q 956.932 -714.070 959.949 -716.538 Q 962.965 -719.005 965.503 -720.136 Q 968.042 -721.267 969.843 -721.365 Q 971.645 -721.464 973.376 -720.970 Q 975.106 -720.475 979.989 -711.600 Q 984.871 -702.725 985.823 -700.307 "/>
    <path id="STROKE_942fe3e1-9055-43f4-9d8e-7869ed8df3f5" opacity="1.000" fill="none" stroke="#456150" stroke-width="12.041" stroke-opacity="1.000" stroke-linecap="round" stroke-linejoin="round" d="M 873.156 -840.110 L 874.363 -840.369 Q 902.465 -840.655 913.365 -840.878 Q 924.264 -841.102 941.855 -841.809 Q 959.447 -842.516 970.063 -842.546 Q 970.072 -842.583 966.842 -842.227 Q 963.613 -841.870 959.375 -841.436 "/>
    <path id="STROKE_29733998-afd3-4efe-8be0-e58af8157096" opacity="1.000" fill="none" stroke="#456150" stroke-width="9.848" stroke-opacity="1.000" stroke-linecap="round" stroke-linejoin="round" d="M 912.634 -870.646 L 913.329 -869.839 Q 914.800 -868.503 917.469 -854.962 Q 920.138 -841.421 921.195 -833.425 Q 922.253 -825.428 922.946 -822.641 Q 923.640 -819.854 924.005 -818.892 Q 924.369 -817.931 925.003 -816.831 Q 925.637 -815.731 926.211 -815.411 Q 926.784 -815.092 927.552 -814.933 Q 928.320 -814.775 928.453 -814.806 Q 928.586 -814.837 932.606 -815.192 "/>
    <path id="STROKE_f73ab6a3-197e-4899-a6f6-902ebb4c4a05" opacity="1.000" fill="none" stroke="#456150" stroke-width="9.081" stroke-opacity="1.000" stroke-linecap="round" stroke-linejoin="round" d="M 920.176 -898.774 Q 921.080 -902.533 921.934 -904.529 Q 922.788 -906.525 923.511 -907.665 Q 924.234 -908.806 926.338 -911.168 Q 928.442 -913.531 931.091 -915.424 Q 933.740 -917.317 935.943 -918.473 Q 938.147 -919.629 943.180 -920.564 Q 948.214 -921.500 952.826 -921.004 Q 957.438 -920.507 962.125 -918.183 Q 966.813 -915.858 970.220 -912.082 Q 973.627 -908.306 974.787 -903.581 Q 975.947 -898.856 975.570 -895.965 Q 975.193 -893.073 973.210 -890.010 Q 971.227 -886.948 965.258 -884.285 Q 959.289 -881.622 950.852 -881.275 Q 942.416 -880.928 935.507 -882.629 Q 928.598 -884.330 925.700 -885.770 Q 922.802 -887.209 921.026 -888.423 Q 919.250 -889.636 917.982 -891.327 Q 916.714 -893.018 914.869 -895.075 "/>
    <path id="STROKE_fe1b8fed-0962-42cc-84bc-ab37ce0c1402" opacity="1.000" fill="none" stroke="#456150" stroke-width="7.737" stroke-opacity="1.000" stroke-linecap="round" stroke-linejoin="round" d="M 915.008 -977.784 L 914.795 -976.571 Q 914.570 -975.327 915.606 -970.711 Q 916.643 -966.095 919.699 -961.703 Q 922.755 -957.312 925.599 -955.233 Q 928.442 -953.155 930.980 -952.397 Q 933.519 -951.639 936.264 -951.706 Q 939.008 -951.773 941.175 -952.401 Q 943.342 -953.030 946.490 -955.572 Q 949.637 -958.115 950.990 -960.173 Q 952.343 -962.231 953.289 -966.501 Q 954.235 -970.771 953.758 -973.971 Q 953.281 -977.170 950.690 -980.831 Q 948.099 -984.492 943.167 -987.427 Q 938.234 -990.363 933.163 -991.374 Q 928.092 -992.385 925.594 -992.265 Q 923.095 -992.145 921.890 -991.632 Q 920.685 -991.119 920.562 -990.360 Q 920.967 -989.773 931.492 -990.207 Q 942.018 -990.641 955.972 -991.695 Q 969.926 -992.748 982.067 -992.073 Q 994.208 -991.397 1001.203 -989.974 Q 1008.198 -988.550 1015.782 -985.594 Q 1023.367 -982.638 1027.798 -979.554 Q 1032.229 -976.470 1034.959 -973.321 Q 1037.689 -970.173 1039.212 -965.621 Q 1040.736 -961.069 1040.593 -956.230 Q 1040.449 -951.391 1038.008 -946.116 Q 1035.566 -940.842 1032.744 -936.150 "/>
    <path id="STROKE_61e7c7e9-201d-4498-8289-bd4f7149e183" opacity="1.000" fill="none" stroke="#456150" stroke-width="7.278" stroke-opacity="1.000" stroke-linecap="round" stroke-linejoin="round" d="M 983.071 -1052.467 Q 979.168 -1047.243 975.746 -1043.658 Q 972.325 -1040.073 968.810 -1037.999 Q 965.295 -1035.924 960.399 -1035.004 Q 955.503 -1034.083 950.639 -1035.151 Q 945.775 -1036.219 942.733 -1038.302 Q 939.691 -1040.385 938.480 -1042.323 Q 937.268 -1044.262 937.186 -1046.391 Q 937.104 -1048.521 938.500 -1049.641 Q 939.897 -1050.761 942.425 -1051.212 Q 944.953 -1051.663 947.696 -1051.243 Q 950.439 -1050.824 953.423 -1048.940 Q 956.406 -1047.057 958.208 -1044.755 Q 960.009 -1042.454 960.898 -1039.781 Q 961.787 -1037.109 961.581 -1034.919 Q 961.376 -1032.729 961.330 -1029.957 "/>
    <path id="STROKE_f504064a-ad0a-402b-9212-6d3d7c8be8d3" opacity="1.000" fill="none" stroke="#456150" stroke-width="7.212" stroke-opacity="1.000" stroke-linecap="round" stroke-linejoin="round" d="M 874.041 -1089.075 Q 879.066 -1091.694 896.502 -1093.390 Q 913.938 -1095.086 944.528 -1093.462 Q 975.118 -1091.837 980.696 -1091.588 "/>
    <path id="STROKE_a6add708-e99b-4a83-8681-daf3840f3857" opacity="1.000" fill="none" stroke="#456150" stroke-width="12.200" stroke-opacity="1.000" stroke-linecap="round" stroke-linejoin="round" d="M 923.016 -1112.178 L 922.842 -1110.952 Q 922.752 -1109.983 925.253 -1097.925 Q 927.753 -1085.867 936.006 -1070.715 L 937.494 -1068.485 "/>
    <path id="STROKE_89bd567c-144e-4810-86a1-0fd20199644d" opacity="1.000" fill="none" stroke="#456150" stroke-width="8.570" stroke-opacity="1.000" stroke-linecap="round" stroke-linejoin="round" d="M 839.452 -1125.090 Q 840.217 -1125.396 850.461 -1127.034 Q 860.705 -1128.673 892.713 -1127.011 Q 924.720 -1125.350 954.078 -1122.699 Q 953.858 -1122.615 947.989 -1124.841 Q 942.120 -1127.067 935.735 -1130.465 Q 929.350 -1133.862 926.009 -1136.730 Q 922.668 -1139.598 921.377 -1141.514 Q 920.087 -1143.430 919.550 -1145.255 Q 919.013 -1147.080 919.160 -1149.247 Q 919.306 -1151.414 923.072 -1155.470 Q 926.837 -1159.526 933.910 -1162.627 Q 940.982 -1165.727 947.647 -1166.996 Q 954.312 -1168.264 976.253 -1167.970 L 979.486 -1168.504 "/>
    <path id="STROKE_97d6397d-70a7-4c77-a0e0-b6306b64672b" opacity="1.000" fill="none" stroke="#456150" stroke-width="7.483" stroke-opacity="1.000" stroke-linecap="round" stroke-linejoin="round" d="M 967.103 -1240.674 Q 967.310 -1240.380 970.103 -1239.979 Q 972.896 -1239.577 972.865 -1238.718 Q 972.834 -1237.859 973.216 -1237.508 Q 973.243 -1237.274 973.407 -1233.739 Q 973.572 -1230.204 971.943 -1225.839 Q 970.314 -1221.475 966.640 -1216.722 Q 962.965 -1211.970 960.089 -1209.857 Q 957.212 -1207.745 952.547 -1206.440 Q 947.882 -1205.136 943.855 -1205.708 Q 939.828 -1206.281 936.694 -1208.190 Q 933.560 -1210.100 931.163 -1213.057 Q 928.767 -1216.014 927.723 -1220.359 Q 926.679 -1224.703 926.943 -1226.796 Q 927.206 -1228.889 927.740 -1230.158 Q 928.273 -1231.427 929.926 -1232.587 Q 931.579 -1233.748 932.850 -1233.729 Q 934.120 -1233.709 935.434 -1233.227 Q 936.748 -1232.745 938.509 -1230.559 Q 940.270 -1228.372 941.641 -1224.507 Q 943.012 -1220.641 943.187 -1213.016 Q 943.362 -1205.392 943.127 -1201.553 "/>
    <path id="STROKE_020e6124-eeca-4102-a0be-600a2f36d2ba" opacity="1.000" fill="none" stroke="#456150" stroke-width="13.027" stroke-opacity="1.000" stroke-linecap="round" stroke-linejoin="round" d="M 932.932 -1284.088 Q 933.521 -1284.170 936.485 -1286.089 Q 939.449 -1288.007 945.509 -1289.416 Q 951.569 -1290.824 956.571 -1290.727 Q 961.574 -1290.630 963.456 -1289.072 Q 960.527 -1288.049 953.150 -1288.275 Q 945.774 -1288.500 940.196 -1289.681 Q 934.618 -1290.861 928.152 -1293.641 Q 921.686 -1296.421 916.839 -1300.307 Q 911.992 -1304.193 909.078 -1308.814 Q 906.164 -1313.436 905.223 -1318.229 Q 904.281 -1323.021 904.893 -1326.851 Q 905.506 -1330.681 909.249 -1335.392 Q 912.992 -1340.102 918.954 -1342.862 Q 919.520 -1342.845 924.040 -1343.066 "/>
  </g>
</svg>