<?xml version="1.0" encoding="utf-8"?>
<svg width="6.482126in" height="7.437774in" version="1.1" viewBox="178.888 0 600 600" xmlns="http://www.w3.org/2000/svg">
  <title>Untitled 8</title>
  <desc>Drawing exported from Concepts: Smarter Sketching</desc>
  <g id="Pen" opacity="1.000" transform="matrix(0, 0.529894, -0.619401, 0, 735.976929, -55.676834)">
    <path id="STROKE_d9125ff0-cba1-4081-9259-93425458cb3d" opacity="1.000" fill="none" stroke="#494445" stroke-width="4.201" stroke-opacity="1.000" stroke-linecap="round" stroke-linejoin="round" d="M 316.696 513.219 L 316.833 513.049 L 317.614 512.849 Q 317.677 512.798 326.596 512.360 Q 335.515 511.922 342.166 511.976 Q 348.816 512.030 351.928 512.303 Q 355.041 512.576 356.336 512.672 Q 357.631 512.768 360.989 513.354 Q 360.831 513.477 359.676 513.750 "/>
    <path id="STROKE_f010382d-4e5f-45eb-acec-29a291ed3e1f" opacity="1.000" fill="none" stroke="#494445" stroke-width="4.568" stroke-opacity="1.000" stroke-linecap="round" stroke-linejoin="round" d="M 269.944 507.641 Q 270.092 507.575 270.181 507.511 Q 270.616 507.474 271.837 507.584 Q 273.058 507.694 282.758 508.319 Q 282.017 508.425 281.049 508.586 Q 280.081 508.746 279.011 508.969 "/>
    <path id="STROKE_e869db4c-812b-4eb4-93ce-4f1b42d5ec6f" opacity="1.000" fill="none" stroke="#494445" stroke-width="4.999" stroke-opacity="1.000" stroke-linecap="round" stroke-linejoin="round" d="M 297.624 458.547 L 297.339 458.168 Q 296.467 457.444 296.395 457.449 Q 296.323 457.455 295.966 457.298 Q 295.610 457.142 295.546 457.085 Q 295.483 457.029 292.439 456.519 Q 289.395 456.009 287.550 455.917 Q 285.705 455.825 283.555 455.871 Q 281.405 455.917 279.151 456.305 Q 276.896 456.693 274.651 457.533 Q 272.407 458.374 271.126 459.174 Q 269.846 459.975 269.037 460.942 Q 268.228 461.908 267.877 462.669 Q 267.525 463.429 267.479 463.475 Q 267.432 463.521 267.106 464.982 Q 266.780 466.442 266.849 467.574 Q 266.918 468.705 267.078 469.191 Q 267.239 469.676 267.501 470.135 Q 267.763 470.594 271.442 473.311 Q 275.121 476.028 278.698 478.355 Q 282.274 480.683 285.648 482.205 Q 289.023 483.727 291.942 484.411 Q 294.860 485.094 297.123 485.475 Q 299.387 485.856 302.013 486.209 Q 304.640 486.562 312.191 487.118 Q 319.743 487.675 326.377 487.521 Q 333.011 487.368 339.236 486.886 Q 345.462 486.404 350.935 486.640 Q 356.409 486.876 366.652 489.140 L 367.346 489.266 "/>
    <path id="STROKE_1b056490-9bf5-4a98-88fb-75dd104d6bbe" opacity="1.000" fill="none" stroke="#494445" stroke-width="6.563" stroke-opacity="1.000" stroke-linecap="round" stroke-linejoin="round" d="M 318.676 471.016 Q 318.644 471.466 318.757 476.602 Q 318.871 481.739 318.875 484.357 Q 318.880 486.975 318.518 489.122 Q 318.157 491.269 318.093 492.042 Q 318.028 492.815 318.165 493.491 Q 318.301 494.168 318.287 494.205 Q 318.272 494.241 319.865 495.703 "/>
    <path id="STROKE_b7fe5053-60d7-478b-84e1-7b93834d00f7" opacity="1.000" fill="none" stroke="#494445" stroke-width="7.404" stroke-opacity="1.000" stroke-linecap="round" stroke-linejoin="round" d="M 268.152 394.516 L 268.215 394.624 Q 268.815 395.484 281.363 399.997 Q 293.912 404.510 301.390 406.828 Q 308.867 409.147 316.720 411.007 Q 324.573 412.868 329.399 413.618 Q 334.224 414.368 340.522 414.915 Q 346.819 415.463 352.106 415.020 Q 357.394 414.577 360.032 413.995 Q 362.670 413.414 365.414 412.635 Q 368.158 411.857 372.646 409.182 Q 377.135 406.508 379.643 404.481 Q 382.150 402.454 384.966 400.572 Q 387.782 398.690 392.295 395.089 Q 396.807 391.488 399.623 388.121 Q 402.438 384.754 402.629 383.785 Q 402.820 382.816 402.384 380.922 "/>
    <path id="STROKE_1da99818-9a6a-47ef-a0ef-8327b4841b55" opacity="1.000" fill="none" stroke="#494445" stroke-width="4.246" stroke-opacity="1.000" stroke-linecap="round" stroke-linejoin="round" d="M 291.663 346.484 L 291.890 346.386 Q 292.318 346.446 303.299 346.696 Q 314.281 346.946 323.186 346.928 Q 332.090 346.909 336.434 346.924 Q 340.778 346.939 346.341 346.945 Q 351.903 346.952 371.596 345.585 L 372.640 345.156 "/>
    <path id="STROKE_a791d8ff-4e1c-43d1-9d14-83c6ec89e893" opacity="1.000" fill="none" stroke="#494445" stroke-width="6.938" stroke-opacity="1.000" stroke-linecap="round" stroke-linejoin="round" d="M 321.719 326.438 L 321.867 326.629 Q 321.880 326.744 322.496 327.096 Q 323.112 327.449 323.959 330.594 Q 324.805 333.739 324.966 337.982 Q 325.127 342.226 324.606 346.717 Q 324.085 351.207 323.610 353.826 Q 323.135 356.444 323.087 358.485 Q 323.040 360.527 323.420 362.203 Q 323.800 363.880 325.008 364.851 Q 326.216 365.821 326.158 365.736 Q 326.101 365.651 326.222 365.516 "/>
    <path id="STROKE_ba6ac4fc-ad33-478e-86da-fb4ba78aa2f0" opacity="1.000" fill="none" stroke="#494445" stroke-width="3.572" stroke-opacity="1.000" stroke-linecap="round" stroke-linejoin="round" d="M 374.829 306.609 L 374.576 306.551 L 373.686 306.654 Q 372.880 306.799 367.737 308.061 Q 362.595 309.323 356.430 309.994 Q 350.264 310.665 343.985 310.063 Q 337.706 309.461 331.962 308.493 Q 326.217 307.526 320.563 306.923 Q 320.569 306.968 321.495 306.642 Q 322.421 306.316 322.908 306.078 "/>
    <path id="STROKE_16378540-d8ae-49e2-8044-92c0a1d481fa" opacity="1.000" fill="none" stroke="#494445" stroke-width="4.434" stroke-opacity="1.000" stroke-linecap="round" stroke-linejoin="round" d="M 322.845 305.672 Q 322.855 305.645 323.252 304.877 L 323.181 304.645 Q 322.828 304.279 322.354 303.965 Q 321.880 303.651 320.984 302.556 Q 320.088 301.461 319.134 299.065 Q 318.181 296.669 317.687 294.140 Q 317.193 291.612 317.401 289.631 Q 317.609 287.651 319.005 285.233 Q 320.401 282.816 321.587 281.643 Q 322.773 280.470 323.986 279.549 Q 325.199 278.628 326.312 277.962 Q 327.425 277.296 329.146 276.623 Q 330.867 275.950 333.895 275.231 Q 333.795 275.141 333.705 274.688 "/>
    <path id="STROKE_cbcde165-dc5b-41f7-9684-e524526f1d51" opacity="1.000" fill="none" stroke="#494445" stroke-width="4.947" stroke-opacity="1.000" stroke-linecap="round" stroke-linejoin="round" d="M 323.971 246.688 L 324.439 246.427 L 325.195 246.293 L 326.388 246.162 Q 326.799 246.001 333.011 246.645 Q 339.223 247.290 343.647 247.480 Q 348.071 247.670 350.825 247.367 Q 353.580 247.064 357.315 245.632 Q 361.049 244.199 362.883 243.076 Q 364.717 241.954 366.879 240.170 Q 369.041 238.387 370.223 237.126 Q 371.404 235.865 372.388 234.688 Q 373.372 233.510 374.349 231.043 Q 375.326 228.577 375.527 227.119 Q 375.728 225.662 375.668 224.535 Q 375.609 223.409 374.942 221.863 Q 374.276 220.316 373.126 219.062 Q 371.975 217.808 368.819 215.624 Q 365.663 213.439 357.326 211.764 Q 348.988 210.090 344.505 209.651 Q 340.021 209.212 337.884 209.028 Q 335.746 208.843 332.376 208.792 Q 329.006 208.740 324.430 209.667 Q 324.671 209.827 331.623 209.734 Q 338.576 209.641 343.613 209.229 Q 348.649 208.817 357.487 207.398 Q 366.324 205.979 370.874 204.743 Q 375.424 203.507 376.559 203.156 "/>
    <path id="STROKE_1e681710-99c3-4eae-8185-abf8fd1eb80c" opacity="1.000" fill="none" stroke="#494445" stroke-width="5.959" stroke-opacity="1.000" stroke-linecap="round" stroke-linejoin="round" d="M 373.370 141.922 Q 373.752 141.964 374.924 142.816 Q 376.095 143.668 376.852 145.525 Q 377.608 147.381 377.824 150.591 Q 378.040 153.801 378.039 156.454 Q 378.037 159.107 377.317 161.960 Q 376.596 164.814 371.938 169.364 Q 367.280 173.915 364.594 175.995 Q 361.907 178.076 360.370 179.027 Q 358.832 179.979 355.630 180.604 Q 352.428 181.230 348.840 181.266 Q 345.252 181.302 343.562 181.249 Q 341.871 181.197 339.394 180.631 Q 336.918 180.066 333.673 178.274 Q 330.429 176.482 328.891 175.309 Q 327.354 174.135 326.029 172.525 Q 324.705 170.915 324.324 167.517 Q 323.943 164.119 324.416 161.132 Q 324.890 158.146 325.573 156.443 Q 326.257 154.741 327.923 153.092 Q 329.589 151.444 331.462 150.637 Q 333.335 149.830 334.337 149.566 Q 335.340 149.301 337.948 149.226 Q 340.556 149.151 342.317 149.681 Q 344.079 150.210 346.255 151.654 Q 348.432 153.098 350.012 157.953 Q 351.592 162.808 351.628 171.457 L 351.713 172.312 "/>
    <path id="STROKE_432c95f8-2213-4540-a640-90956fb2079c" opacity="1.000" fill="none" stroke="#494445" stroke-width="4.573" stroke-opacity="1.000" stroke-linecap="round" stroke-linejoin="round" d="M 270.611 150.750 Q 270.229 150.217 270.260 150.092 Q 269.812 149.262 269.782 149.231 Q 269.752 149.199 269.779 148.672 Q 269.807 148.145 269.949 147.803 Q 270.092 147.460 270.286 147.148 Q 270.481 146.836 273.830 143.343 Q 277.178 139.851 280.173 136.884 Q 283.168 133.917 285.949 131.708 Q 288.731 129.498 290.353 128.323 Q 291.975 127.148 293.096 126.323 Q 294.218 125.497 298.199 122.866 Q 302.180 120.235 307.908 117.712 Q 313.636 115.190 316.734 113.854 Q 319.832 112.518 326.989 111.383 Q 334.146 110.248 337.934 109.973 Q 341.722 109.698 345.261 109.669 Q 348.800 109.639 352.117 109.828 Q 355.435 110.017 362.171 111.345 Q 368.908 112.673 372.992 113.792 Q 377.077 114.911 380.544 116.739 Q 384.011 118.568 386.462 120.613 Q 388.913 122.657 391.222 125.770 Q 393.531 128.882 395.009 132.132 Q 396.487 135.383 397.285 136.919 Q 398.082 138.456 398.861 139.656 "/>
    <path id="STROKE_40e8afdb-9718-4d16-9c9e-59cfb4bc7aad" opacity="1.000" fill="none" stroke="#494445" stroke-width="7.076" stroke-opacity="1.000" stroke-linecap="round" stroke-linejoin="round" d="M 280.283 46.375 L 280.336 46.489 Q 280.391 46.785 281.021 47.644 Q 281.651 48.504 282.536 49.941 Q 283.422 51.379 284.486 53.492 Q 285.550 55.604 286.830 58.940 Q 288.110 62.276 289.404 64.890 Q 290.699 67.504 292.560 69.681 Q 294.421 71.858 297.212 74.166 Q 300.004 76.474 303.613 78.738 Q 307.223 81.003 310.022 82.080 Q 312.821 83.157 314.305 83.383 Q 315.789 83.608 317.881 83.593 Q 319.973 83.577 321.268 83.224 Q 322.564 82.870 325.756 80.886 Q 328.949 78.902 330.792 77.396 Q 332.635 75.891 335.324 72.441 Q 338.013 68.991 339.995 66.132 Q 341.978 63.273 342.858 62.149 Q 343.738 61.024 345.165 60.234 Q 346.591 59.443 347.741 59.300 Q 348.891 59.156 349.648 59.270 Q 350.405 59.383 351.341 60.147 Q 352.277 60.911 352.771 64.292 Q 353.265 67.674 353.405 69.591 Q 353.544 71.508 353.784 72.327 Q 354.024 73.147 354.668 73.786 Q 354.644 73.825 355.132 74.118 L 355.266 74.214 Q 355.566 73.744 356.098 72.923 Q 356.630 72.101 357.226 70.765 Q 357.822 69.429 358.375 68.229 Q 358.927 67.030 359.329 66.276 Q 359.732 65.521 360.658 63.983 Q 361.584 62.445 362.307 61.845 Q 363.031 61.245 364.972 60.927 Q 366.914 60.609 368.049 60.729 Q 369.184 60.849 370.558 61.841 Q 371.931 62.833 372.793 63.929 Q 373.655 65.026 374.433 66.315 Q 375.211 67.605 375.710 68.224 Q 376.210 68.844 377.788 70.051 Q 379.367 71.259 381.756 72.303 Q 384.145 73.348 387.291 74.327 Q 390.437 75.305 395.712 75.917 Q 400.987 76.529 403.863 76.423 Q 406.739 76.318 408.088 76.005 Q 409.437 75.693 411.713 73.629 Q 413.989 71.564 415.284 68.471 Q 416.580 65.378 417.048 62.033 Q 417.516 58.688 416.735 54.220 Q 415.955 49.751 415.407 47.293 Q 414.860 44.834 414.965 43.707 Q 415.071 42.580 415.400 41.999 Q 415.729 41.418 417.311 41.466 Q 418.893 41.513 420.309 42.000 "/>
    <path id="STROKE_ded6a6a4-9b3b-4b5d-b192-411c0d223c31" opacity="1.000" fill="none" stroke="#494445" stroke-width="6.378" stroke-opacity="1.000" stroke-linecap="round" stroke-linejoin="round" d="M 484.341 474.078 Q 484.527 474.094 497.803 474.086 Q 511.079 474.077 518.512 473.878 Q 525.945 473.679 529.794 473.579 Q 533.644 473.479 536.029 473.458 Q 538.414 473.436 546.934 473.269 Q 555.455 473.101 554.179 473.353 Q 552.902 473.605 551.686 473.812 "/>
    <path id="STROKE_a3d6f1d8-aa67-433e-a169-7b754c265264" opacity="1.000" fill="none" stroke="#494445" stroke-width="5.232" stroke-opacity="1.000" stroke-linecap="round" stroke-linejoin="round" d="M 484.612 475.531 L 484.341 475.199 Q 483.090 474.455 482.510 474.039 Q 481.930 473.623 481.335 473.123 Q 480.740 472.622 480.068 471.934 Q 479.395 471.245 478.212 469.801 Q 477.028 468.357 475.773 466.170 Q 474.517 463.982 473.951 460.161 Q 473.385 456.340 473.690 453.996 Q 473.996 451.652 475.891 448.632 Q 477.787 445.612 479.647 443.783 Q 481.506 441.954 485.259 439.672 Q 489.013 437.390 491.848 436.114 Q 494.682 434.839 496.980 434.214 Q 499.278 433.590 503.155 434.314 Q 507.031 435.038 509.957 436.585 Q 512.882 438.132 514.597 439.516 Q 516.312 440.900 517.321 442.904 Q 518.330 444.908 518.117 448.607 Q 517.904 452.307 516.519 456.521 Q 515.133 460.735 514.443 463.014 Q 513.753 465.294 513.522 467.185 Q 513.290 469.076 513.209 469.422 "/>
    <path id="STROKE_d1f2c7da-5123-4956-968c-8ed8c70cb104" opacity="1.000" fill="none" stroke="#494445" stroke-width="4.416" stroke-opacity="1.000" stroke-linecap="round" stroke-linejoin="round" d="M 476.858 424.844 L 477.249 424.609 Q 477.374 424.506 481.290 424.485 Q 485.205 424.465 487.953 424.420 Q 490.701 424.374 492.659 424.334 Q 494.617 424.293 512.499 421.863 Q 512.466 421.893 505.445 421.875 Q 498.424 421.857 494.003 421.728 Q 489.582 421.599 487.280 421.299 Q 484.979 420.999 482.416 419.342 Q 479.853 417.685 478.328 416.026 Q 476.804 414.366 475.929 412.878 Q 475.053 411.390 474.717 409.982 Q 474.382 408.575 474.242 407.253 Q 474.103 405.931 475.005 403.269 Q 475.906 400.607 476.840 399.143 Q 477.774 397.678 478.573 396.743 Q 479.372 395.808 481.756 393.922 "/>
    <path id="STROKE_191687c9-82a4-4acf-9ef1-a4493355101d" opacity="1.000" fill="none" stroke="#494445" stroke-width="7.005" stroke-opacity="1.000" stroke-linecap="round" stroke-linejoin="round" d="M 483.361 379.125 Q 483.190 379.217 483.099 379.293 Q 483.338 379.667 513.432 379.680 Q 513.321 379.666 512.110 379.740 Q 510.900 379.814 509.520 379.922 "/>
    <path id="STROKE_4b4ca3e4-a176-4b17-929e-596faabae33c" opacity="1.000" fill="none" stroke="#494445" stroke-width="7.232" stroke-opacity="1.000" stroke-linecap="round" stroke-linejoin="round" d="M 454.889 383.109 Q 454.515 382.231 454.508 379.654 Q 454.650 379.622 455.806 379.859 "/>
    <path id="STROKE_c6deb328-0eae-4e27-a41d-e22f77959451" opacity="1.000" fill="none" stroke="#494445" stroke-width="4.673" stroke-opacity="1.000" stroke-linecap="round" stroke-linejoin="round" d="M 485.800 361.672 Q 486.010 361.485 490.648 361.628 Q 495.286 361.770 503.130 360.905 Q 510.975 360.040 516.685 358.275 Q 515.977 358.112 511.413 358.039 Q 506.849 357.966 502.151 357.386 Q 497.454 356.806 494.210 355.886 Q 490.967 354.966 488.369 353.392 Q 485.772 351.818 484.486 350.254 Q 483.199 348.691 482.851 347.582 Q 482.503 346.474 482.706 345.372 Q 482.909 344.269 483.259 343.725 Q 483.609 343.180 484.706 342.095 Q 485.803 341.009 489.967 339.440 Q 494.132 337.871 499.109 336.926 Q 504.087 335.981 510.174 335.218 Q 516.261 334.455 521.162 333.844 Q 520.992 333.645 520.507 333.430 Q 520.021 333.215 519.045 332.812 "/>
    <path id="STROKE_cde343c5-21eb-4f56-a4ce-42b37296ffca" opacity="1.000" fill="none" stroke="#494445" stroke-width="5.198" stroke-opacity="1.000" stroke-linecap="round" stroke-linejoin="round" d="M 455.472 310.578 Q 455.680 310.376 455.895 310.283 Q 456.110 310.189 456.436 310.106 Q 456.761 310.022 456.965 310.024 Q 457.168 310.026 460.001 310.591 Q 462.834 311.156 469.715 311.741 Q 476.597 312.325 485.724 312.314 Q 494.852 312.302 500.785 312.140 Q 506.719 311.978 519.121 310.053 Q 519.256 310.150 519.712 310.391 "/>
    <path id="STROKE_528ec756-5535-4399-85ec-3a4e1ab5a84e" opacity="1.000" fill="none" stroke="#494445" stroke-width="7.337" stroke-opacity="1.000" stroke-linecap="round" stroke-linejoin="round" d="M 480.630 293.328 L 480.517 293.514 Q 480.628 293.841 481.367 301.125 Q 482.107 308.410 482.009 313.524 Q 481.910 318.639 481.469 321.452 Q 481.028 324.265 480.190 326.712 Q 479.352 329.160 478.984 330.031 "/>
    <path id="STROKE_ee4dff00-f7be-43dc-a5ba-331367eed506" opacity="1.000" fill="none" stroke="#494445" stroke-width="11.730" stroke-opacity="1.000" stroke-linecap="round" stroke-linejoin="round" d="M 442.570 259.891 Q 443.023 259.349 443.315 259.252 Q 443.607 259.154 444.150 259.027 Q 444.694 258.900 445.270 258.851 Q 445.846 258.802 446.156 258.814 Q 446.466 258.826 446.805 258.777 Q 447.145 258.728 452.397 261.477 Q 457.648 264.225 463.342 267.085 Q 469.036 269.945 476.101 272.230 Q 483.165 274.515 487.820 275.647 Q 492.475 276.778 497.100 277.201 Q 501.725 277.623 506.785 276.693 Q 511.845 275.763 514.925 274.548 Q 518.005 273.333 521.602 271.557 Q 525.200 269.781 529.294 267.243 Q 533.389 264.704 535.706 263.378 Q 538.022 262.051 539.460 261.527 L 540.493 261.688 "/>
    <path id="STROKE_78a508b0-65b9-409e-b8d3-dbfc8a0069aa" opacity="1.000" fill="none" stroke="#494445" stroke-width="5.731" stroke-opacity="1.000" stroke-linecap="round" stroke-linejoin="round" d="M 449.782 242.250 Q 449.915 242.152 451.696 241.233 Q 453.478 240.314 455.636 239.780 Q 457.795 239.247 459.386 238.910 Q 460.977 238.574 462.848 238.212 Q 464.720 237.849 471.803 235.819 Q 471.689 235.666 470.903 235.381 Q 470.116 235.097 468.979 234.750 "/>
    <path id="STROKE_735075a0-0797-4a2c-81c4-7b4347aca391" opacity="1.000" fill="none" stroke="#494445" stroke-width="5.046" stroke-opacity="1.000" stroke-linecap="round" stroke-linejoin="round" d="M 450.053 229.828 Q 450.450 228.525 452.513 227.761 Q 454.576 226.997 458.834 225.795 Q 463.093 224.592 467.733 222.168 Q 472.373 219.744 473.168 219.344 "/>
    <path id="STROKE_f81120bc-cb88-417c-93d0-b06856b3a513" opacity="1.000" fill="none" stroke="#494445" stroke-width="6.842" stroke-opacity="1.000" stroke-linecap="round" stroke-linejoin="round" d="M 494.867 184.125 L 494.274 183.840 Q 493.482 184.017 492.082 185.197 Q 490.682 186.376 489.868 188.638 Q 489.055 190.900 489.082 193.318 Q 489.109 195.737 489.247 196.262 Q 489.385 196.786 489.938 197.954 Q 490.491 199.121 492.461 201.147 Q 494.431 203.173 499.181 205.454 Q 503.930 207.735 506.617 208.631 Q 509.303 209.527 511.535 209.760 Q 513.767 209.993 515.513 209.886 Q 517.259 209.780 519.032 209.062 Q 520.805 208.343 521.567 207.883 Q 522.329 207.422 523.859 205.265 Q 525.389 203.108 526.109 200.812 Q 526.828 198.516 527.157 196.494 Q 527.485 194.473 527.159 192.263 Q 526.833 190.053 525.762 188.471 Q 524.690 186.890 523.774 186.121 Q 522.857 185.352 521.801 184.775 L 521.421 185.047 "/>
    <path id="STROKE_67ce9629-edf7-4164-bb3c-38ca6fc95537" opacity="1.000" fill="none" stroke="#494445" stroke-width="5.327" stroke-opacity="1.000" stroke-linecap="round" stroke-linejoin="round" d="M 491.907 185.719 L 491.862 185.538 L 491.976 184.956 Q 492.347 184.820 496.696 184.714 Q 501.046 184.608 507.248 183.870 Q 513.450 183.131 516.966 182.391 Q 520.481 181.650 522.763 180.975 Q 525.044 180.300 527.563 179.936 L 528.445 180.406 "/>
    <path id="STROKE_6e492a28-34d7-4dd0-9a01-2b9522fe4ba2" opacity="1.000" fill="none" stroke="#494445" stroke-width="5.917" stroke-opacity="1.000" stroke-linecap="round" stroke-linejoin="round" d="M 449.261 165.344 Q 450.026 164.681 453.483 164.593 Q 456.939 164.505 463.685 164.595 Q 470.432 164.686 474.073 164.454 Q 477.714 164.221 480.166 163.922 Q 482.618 163.623 484.878 163.255 Q 487.138 162.887 501.320 161.211 Q 515.502 159.534 527.752 157.568 Q 527.592 157.244 527.309 157.120 Q 527.027 156.995 526.231 156.721 Q 525.436 156.446 524.610 156.125 "/>
    <path id="STROKE_231c3340-1ad6-4af8-9507-37958e4f968a" opacity="1.000" fill="none" stroke="#494445" stroke-width="5.000" stroke-opacity="1.000" stroke-linecap="round" stroke-linejoin="round" d="M 497.534 138.000 Q 497.517 137.824 497.415 135.012 Q 497.314 132.201 497.278 130.114 Q 497.242 128.026 498.265 126.298 Q 499.288 124.570 500.235 123.675 Q 501.182 122.781 502.889 121.789 Q 504.595 120.797 505.589 120.353 Q 506.583 119.910 509.330 119.395 Q 512.077 118.881 514.982 118.887 Q 517.888 118.893 520.733 119.557 Q 523.579 120.221 525.763 121.641 Q 527.947 123.060 529.067 124.300 Q 530.187 125.540 530.980 127.340 Q 531.774 129.140 531.709 131.064 Q 531.645 132.988 530.520 135.030 Q 529.396 137.072 526.905 139.423 Q 524.415 141.774 521.276 143.409 Q 518.137 145.044 515.408 145.657 Q 512.679 146.270 509.596 146.348 Q 506.513 146.425 504.196 145.831 Q 501.878 145.237 500.320 144.088 Q 498.762 142.938 498.063 141.429 Q 497.364 139.919 498.135 138.708 Q 498.906 137.496 499.848 136.609 "/>
    <path id="STROKE_a03778bd-874c-4da2-9bbb-a1c64c4d228d" opacity="1.000" fill="none" stroke="#494445" stroke-width="4.485" stroke-opacity="1.000" stroke-linecap="round" stroke-linejoin="round" d="M 455.868 113.125 Q 456.378 112.246 456.637 112.210 Q 456.896 112.175 457.172 112.039 Q 457.448 111.902 463.567 111.448 Q 469.686 110.993 477.607 110.372 Q 485.527 109.750 492.524 109.222 Q 499.520 108.694 503.585 108.440 Q 507.650 108.186 527.613 106.473 Q 526.483 106.155 526.047 106.079 Q 525.611 106.003 521.310 105.324 Q 517.008 104.646 513.314 103.567 Q 509.619 102.487 507.563 101.413 Q 505.506 100.340 504.395 99.403 Q 503.283 98.466 502.536 96.460 Q 501.789 94.454 503.278 92.387 Q 504.767 90.320 506.751 89.062 Q 508.735 87.805 513.229 86.738 Q 517.722 85.671 523.734 84.830 Q 529.746 83.989 533.405 83.450 Q 537.065 82.912 538.572 82.642 Q 540.079 82.371 541.097 82.141 "/>
    <path id="STROKE_81403cff-ecc3-4951-bbd4-aa643f55bb7d" opacity="1.000" fill="none" stroke="#494445" stroke-width="5.877" stroke-opacity="1.000" stroke-linecap="round" stroke-linejoin="round" d="M 509.520 50.094 Q 509.247 50.253 508.849 50.396 Q 508.452 50.540 508.115 51.089 Q 507.779 51.638 507.661 52.082 Q 507.544 52.526 507.595 54.461 Q 507.646 56.395 508.372 58.339 Q 509.098 60.282 510.463 62.167 Q 511.828 64.053 512.696 64.822 Q 513.565 65.592 515.923 66.702 Q 518.281 67.812 522.062 68.215 Q 525.843 68.619 528.452 68.323 Q 531.060 68.027 533.190 66.872 Q 535.319 65.717 536.705 64.210 Q 538.090 62.702 538.527 61.039 Q 538.964 59.376 538.718 57.768 Q 538.473 56.160 537.273 54.857 Q 536.073 53.553 534.144 52.416 Q 532.215 51.278 526.910 49.795 Q 521.606 48.312 515.635 47.957 Q 515.486 48.064 522.500 46.639 Q 529.515 45.214 534.811 43.304 Q 540.108 41.395 542.415 39.520 Q 542.394 39.429 540.555 38.141 "/>
    <path id="STROKE_c6196981-b523-4463-9b8b-cf75ffc1789a" opacity="1.000" fill="none" stroke="#494445" stroke-width="4.149" stroke-opacity="1.000" stroke-linecap="round" stroke-linejoin="round" d="M 466.999 25.344 Q 467.115 25.246 467.346 24.871 Q 467.578 24.497 468.441 24.082 Q 469.304 23.668 473.481 23.590 Q 477.657 23.512 480.338 23.485 Q 483.019 23.458 484.439 23.087 Q 484.626 22.803 484.159 22.359 Q 483.692 21.916 483.215 21.500 "/>
    <path id="STROKE_98ffafec-13c7-4a53-acf2-fe604fd7b6c5" opacity="1.000" fill="none" stroke="#494445" stroke-width="4.694" stroke-opacity="1.000" stroke-linecap="round" stroke-linejoin="round" d="M 465.144 12.078 Q 465.162 12.008 465.427 11.309 Q 466.122 10.242 489.550 13.748 L 490.114 14.062 "/>
    <path id="STROKE_2be1407d-3864-4401-aa7f-37d6efc1ad40" opacity="1.000" fill="none" stroke="#494445" stroke-width="5.777" stroke-opacity="1.000" stroke-linecap="round" stroke-linejoin="round" d="M 446.072 -3.250 Q 446.183 -3.795 446.560 -5.125 Q 446.936 -6.456 450.618 -9.524 Q 454.300 -12.592 460.620 -15.371 Q 466.939 -18.150 474.884 -20.133 Q 482.829 -22.116 487.999 -22.903 Q 493.169 -23.690 500.734 -24.127 Q 508.299 -24.565 513.498 -24.685 Q 518.696 -24.805 523.814 -23.843 Q 528.932 -22.881 531.612 -21.917 Q 534.292 -20.953 535.566 -20.385 Q 536.840 -19.816 538.052 -19.199 Q 539.263 -18.583 541.186 -17.426 Q 543.108 -16.270 545.814 -13.913 Q 548.519 -11.556 550.750 -8.150 Q 552.980 -4.745 554.044 1.808 Q 555.108 8.362 555.333 9.281 "/>
    <path id="STROKE_b3bbd415-ef09-4154-a0da-b42b76b1c1c9" opacity="1.000" fill="none" stroke="#494445" stroke-width="4.544" stroke-opacity="1.000" stroke-linecap="round" stroke-linejoin="round" d="M 475.941 -57.938 Q 476.046 -58.067 476.383 -58.295 Q 477.464 -58.477 483.898 -57.663 Q 483.915 -57.611 473.236 -56.979 Q 478.970 -56.986 479.505 -57.000 "/>
    <path id="STROKE_1f32575d-77e3-4abc-89b8-92f6af9591d4" opacity="1.000" fill="none" stroke="#494445" stroke-width="8.735" stroke-opacity="1.000" stroke-linecap="round" stroke-linejoin="round" d="M 515.460 -58.328 Q 514.834 -58.677 514.811 -58.747 Q 514.788 -58.816 513.532 -59.719 Q 513.480 -59.954 517.850 -60.563 Q 522.219 -61.171 525.075 -61.188 Q 527.931 -61.206 530.110 -60.787 Q 532.290 -60.368 535.033 -58.788 Q 537.776 -57.208 542.619 -45.656 "/>
    <path id="STROKE_6a55926d-8fdf-4df7-87e3-84c8df73cda3" opacity="1.000" fill="none" stroke="#494445" stroke-width="8.577" stroke-opacity="1.000" stroke-linecap="round" stroke-linejoin="round" d="M 578.366 495.438 Q 578.467 495.328 578.630 495.197 Q 578.792 495.066 580.850 491.362 Q 582.908 487.658 584.281 485.505 Q 585.654 483.351 587.066 481.867 Q 588.478 480.382 590.196 479.073 Q 591.914 477.764 595.243 476.597 Q 598.571 475.431 600.498 475.189 Q 602.425 474.948 604.780 475.101 Q 607.135 475.254 609.690 476.230 Q 612.245 477.206 615.826 480.289 Q 619.406 483.372 621.940 486.609 Q 624.474 489.846 627.244 492.818 Q 630.014 495.789 631.667 497.556 Q 633.319 499.323 634.265 500.167 Q 635.210 501.010 636.185 501.389 Q 637.159 501.769 638.951 502.002 Q 640.742 502.236 641.529 502.160 Q 642.316 502.083 643.072 501.719 Q 643.827 501.355 643.926 501.331 Q 644.025 501.307 645.305 499.759 Q 646.586 498.211 647.686 495.948 Q 648.786 493.685 649.273 492.457 Q 649.759 491.230 650.069 490.550 Q 650.378 489.870 650.749 489.039 Q 651.120 488.208 651.801 486.988 Q 652.482 485.768 652.884 485.482 Q 653.287 485.197 653.705 485.142 Q 654.124 485.086 654.439 485.117 Q 654.754 485.148 654.912 485.211 Q 655.071 485.275 655.636 485.833 Q 656.201 486.391 657.049 488.887 Q 657.896 491.383 658.385 492.768 Q 658.872 494.153 659.167 494.687 Q 659.461 495.221 659.500 495.244 Q 659.538 495.268 660.137 495.992 Q 660.735 496.716 661.435 497.096 Q 662.135 497.475 664.303 497.449 Q 666.472 497.423 666.974 497.174 Q 667.477 496.925 667.817 496.574 Q 668.157 496.224 668.416 495.726 Q 668.675 495.227 669.013 494.149 Q 669.352 493.071 669.454 492.614 Q 669.557 492.158 669.955 491.286 Q 670.354 490.414 670.904 489.595 Q 671.454 488.776 671.985 488.225 Q 672.515 487.674 672.908 487.352 Q 673.301 487.030 673.339 486.981 Q 673.376 486.931 675.860 485.556 Q 678.344 484.181 680.729 483.702 Q 683.114 483.224 686.679 483.922 Q 690.244 484.620 693.369 486.284 Q 696.493 487.948 698.638 489.848 Q 700.782 491.748 701.965 493.855 Q 703.148 495.962 702.314 506.997 Q 701.480 518.031 701.342 519.594 "/>
    <path id="STROKE_8dc71e2b-2097-480e-aa16-5b1253dcc01c" opacity="1.000" fill="none" stroke="#494445" stroke-width="7.821" stroke-opacity="1.000" stroke-linecap="round" stroke-linejoin="round" d="M 917.656 506.922 L 917.965 506.742 L 918.742 506.734 Q 919.079 506.780 926.106 507.414 Q 933.132 508.048 950.602 507.929 Q 946.924 507.957 945.461 507.984 "/>
    <path id="STROKE_16ed7968-206d-4934-8fea-f4053105cc4d" opacity="1.000" fill="none" stroke="#494445" stroke-width="6.433" stroke-opacity="1.000" stroke-linecap="round" stroke-linejoin="round" d="M 888.850 504.391 L 888.791 504.060 L 888.778 503.642 Q 889.141 503.434 892.246 503.736 Q 895.351 504.038 895.666 504.125 "/>
    <path id="STROKE_073267b2-2087-4e0a-8e4b-9ba17ac63907" opacity="1.000" fill="none" stroke="#494445" stroke-width="8.208" stroke-opacity="1.000" stroke-linecap="round" stroke-linejoin="round" d="M 891.643 460.797 Q 891.042 460.614 889.625 460.201 Q 888.209 459.787 886.799 460.119 Q 885.390 460.450 883.425 462.250 Q 881.461 464.051 880.521 465.626 Q 879.581 467.201 879.216 468.844 Q 878.851 470.487 879.096 471.292 Q 879.342 472.096 880.038 472.657 Q 880.734 473.219 881.936 473.656 Q 883.139 474.093 893.262 475.547 Q 903.386 477.001 913.058 477.952 Q 922.730 478.902 932.152 478.985 Q 941.574 479.068 951.536 478.246 Q 951.544 478.356 950.718 478.840 Q 949.891 479.324 949.234 479.641 "/>
    <path id="STROKE_62f0579d-9dd7-44aa-a3fb-749b9c8167df" opacity="1.000" fill="none" stroke="#494445" stroke-width="8.381" stroke-opacity="1.000" stroke-linecap="round" stroke-linejoin="round" d="M 918.177 463.328 L 918.162 463.403 Q 918.105 463.588 919.469 467.800 Q 920.834 472.012 921.526 476.943 Q 922.217 481.875 922.077 484.723 Q 921.937 487.572 921.271 488.687 Q 920.605 489.803 920.032 490.531 "/>
    <path id="STROKE_d39a8981-0171-44b6-83ed-028c0c8baf85" opacity="1.000" fill="none" stroke="#494445" stroke-width="5.865" stroke-opacity="1.000" stroke-linecap="round" stroke-linejoin="round" d="M 885.932 374.016 Q 886.262 373.817 886.707 373.590 Q 887.152 373.363 887.344 373.298 Q 887.535 373.232 889.102 373.078 Q 890.670 372.924 896.943 373.640 Q 903.217 374.356 906.699 374.551 Q 910.181 374.746 915.489 374.784 Q 920.797 374.823 928.027 374.784 Q 935.256 374.744 958.914 373.033 Q 958.908 373.023 956.809 372.837 Q 954.711 372.651 953.007 372.484 "/>
    <path id="STROKE_f7ac0c2d-cb81-48f1-8533-aa4f3d518374" opacity="1.000" fill="none" stroke="#494445" stroke-width="9.758" stroke-opacity="1.000" stroke-linecap="round" stroke-linejoin="round" d="M 915.676 356.031 L 915.760 356.032 Q 916.133 356.227 916.754 363.885 Q 917.375 371.542 917.139 378.244 Q 916.902 384.946 916.870 390.794 Q 917.214 391.050 917.719 391.469 "/>
    <path id="STROKE_c54b1ba6-d474-4922-8203-e77c34d7f3d8" opacity="1.000" fill="none" stroke="#494445" stroke-width="5.842" stroke-opacity="1.000" stroke-linecap="round" stroke-linejoin="round" d="M 955.591 336.922 L 955.426 336.904 L 954.388 337.188 Q 953.826 337.474 946.134 338.188 Q 938.442 338.902 934.364 338.961 Q 930.287 339.019 928.126 338.718 Q 925.964 338.418 924.722 337.886 Q 923.479 337.355 922.886 336.341 Q 922.293 335.327 921.920 334.189 Q 921.547 333.052 921.254 332.382 Q 920.960 331.713 920.467 330.460 Q 919.973 329.207 919.805 328.680 Q 919.638 328.154 919.344 327.263 Q 919.049 326.372 918.483 323.037 Q 917.917 319.702 918.067 317.559 Q 918.216 315.416 918.442 314.592 Q 918.669 313.768 920.404 311.378 Q 922.139 308.987 927.668 307.153 Q 927.918 307.336 928.057 307.406 "/>
    <path id="STROKE_707719a5-dffd-4bd4-9184-adba369cc17c" opacity="1.000" fill="none" stroke="#494445" stroke-width="6.498" stroke-opacity="1.000" stroke-linecap="round" stroke-linejoin="round" d="M 919.303 285.438 Q 919.566 285.366 919.927 285.314 Q 920.287 285.262 926.102 285.588 Q 931.917 285.914 935.391 285.864 Q 938.865 285.814 941.212 285.439 Q 943.560 285.063 945.973 283.703 Q 948.386 282.342 949.643 280.514 Q 950.900 278.685 951.273 275.493 Q 951.646 272.300 951.240 270.199 Q 950.834 268.098 949.280 265.764 Q 947.725 263.429 944.076 261.303 Q 940.427 259.176 938.230 258.310 Q 936.032 257.443 931.574 256.142 Q 927.116 254.841 923.890 254.298 Q 920.664 253.755 918.749 253.685 Q 918.834 253.692 924.446 253.621 Q 930.058 253.550 935.435 252.870 Q 940.812 252.190 944.255 251.168 Q 947.697 250.145 950.469 249.024 L 949.380 249.672 "/>
    <path id="STROKE_36969757-6afa-4a3b-801b-830ed63f0570" opacity="1.000" fill="none" stroke="#494445" stroke-width="5.421" stroke-opacity="1.000" stroke-linecap="round" stroke-linejoin="round" d="M 947.317 192.672 Q 947.406 192.791 947.536 193.047 Q 947.667 193.303 947.731 193.352 Q 947.795 193.401 948.658 196.031 Q 949.521 198.660 949.734 201.660 Q 949.947 204.659 949.469 207.458 Q 948.991 210.256 946.936 214.310 Q 944.881 218.365 943.147 220.682 Q 941.413 223.000 939.861 224.005 Q 938.308 225.011 935.972 225.366 Q 933.635 225.722 931.053 224.971 Q 928.471 224.220 925.268 222.113 Q 922.064 220.005 920.521 218.561 Q 918.979 217.118 918.220 216.193 Q 917.461 215.268 916.494 213.377 Q 915.527 211.487 915.261 210.385 Q 914.995 209.284 915.069 207.654 Q 915.144 206.025 916.000 204.905 Q 916.857 203.785 919.147 203.216 Q 921.437 202.648 923.003 202.937 Q 924.570 203.225 925.146 203.466 Q 925.721 203.708 927.078 204.677 Q 928.435 205.646 929.852 207.846 Q 931.269 210.046 931.120 220.350 Q 930.972 230.655 930.892 231.625 "/>
    <path id="STROKE_98b0869b-afba-4e12-8bea-82e950022827" opacity="1.000" fill="none" stroke="#494445" stroke-width="8.530" stroke-opacity="1.000" stroke-linecap="round" stroke-linejoin="round" d="M 1007.700 449.719 Q 1008.134 449.220 1008.176 449.223 Q 1008.218 449.227 1008.686 448.953 Q 1009.154 448.679 1009.274 448.731 Q 1009.394 448.782 1016.053 449.016 Q 1022.712 449.250 1029.469 449.207 Q 1036.226 449.163 1041.166 449.193 Q 1046.106 449.223 1050.903 449.140 Q 1055.700 449.057 1065.370 449.633 Q 1065.457 449.698 1064.676 449.547 Q 1063.894 449.396 1062.727 449.062 "/>
    <path id="STROKE_e9a31615-3c47-40dd-9a66-ba69e3d56eff" opacity="1.000" fill="none" stroke="#494445" stroke-width="7.542" stroke-opacity="1.000" stroke-linecap="round" stroke-linejoin="round" d="M 1003.344 445.281 Q 1003.116 444.653 1002.204 441.076 Q 1001.292 437.499 1001.469 433.784 Q 1001.645 430.069 1002.133 427.810 Q 1002.620 425.551 1003.712 423.171 Q 1004.803 420.791 1007.001 418.629 Q 1009.199 416.466 1012.636 414.955 Q 1016.074 413.443 1019.109 413.091 Q 1022.145 412.739 1024.503 413.117 Q 1026.861 413.494 1028.856 414.657 Q 1030.851 415.820 1033.075 418.435 Q 1035.298 421.050 1036.057 424.915 Q 1036.816 428.779 1036.746 432.096 Q 1036.677 435.413 1036.217 437.148 Q 1035.757 438.883 1035.323 439.550 Q 1034.888 440.217 1034.227 440.544 Q 1033.566 440.871 1033.019 440.787 Q 1032.472 440.704 1030.545 439.234 "/>
    <path id="STROKE_704a9d1e-d59d-4729-bc37-83935c495dd0" opacity="1.000" fill="none" stroke="#494445" stroke-width="7.158" stroke-opacity="1.000" stroke-linecap="round" stroke-linejoin="round" d="M 1015.183 391.141 L 1015.235 391.299 L 1015.501 391.676 Q 1016.049 391.984 1016.138 391.972 Q 1016.227 391.960 1021.778 392.259 Q 1027.329 392.559 1032.565 390.549 Q 1032.377 390.289 1029.459 390.088 Q 1026.541 389.888 1024.063 389.594 Q 1021.586 389.300 1019.173 388.328 Q 1016.761 387.355 1015.022 385.711 Q 1013.284 384.066 1012.325 382.294 Q 1011.367 380.522 1010.870 377.785 Q 1010.373 375.048 1010.601 372.814 Q 1010.829 370.581 1012.063 368.911 Q 1013.297 367.241 1015.975 366.086 L 1016.579 365.984 "/>
    <path id="STROKE_afb16f62-4f62-4484-af5e-8c2a29fd2130" opacity="1.000" fill="none" stroke="#494445" stroke-width="5.446" stroke-opacity="1.000" stroke-linecap="round" stroke-linejoin="round" d="M 1015.662 346.016 Q 1015.943 345.249 1016.023 345.227 Q 1016.902 344.349 1016.989 344.359 Q 1017.076 344.370 1017.258 344.292 Q 1017.441 344.215 1023.208 344.213 Q 1028.975 344.212 1035.570 345.178 Q 1035.674 345.244 1036.047 345.625 "/>
    <path id="STROKE_e9332650-46cc-474b-af96-25af6efd3de1" opacity="1.000" fill="none" stroke="#494445" stroke-width="4.461" stroke-opacity="1.000" stroke-linecap="round" stroke-linejoin="round" d="M 986.377 356.703 Q 986.767 355.695 986.934 355.258 Q 987.101 354.821 988.443 353.788 Q 989.784 352.755 990.938 352.140 Q 992.091 351.525 992.762 351.266 Q 993.433 351.008 994.031 350.827 Q 994.629 350.647 995.281 350.450 Q 995.934 350.254 996.924 349.938 "/>
    <path id="STROKE_23e528a7-2dee-43cc-a101-1ff4b48713d3" opacity="1.000" fill="none" stroke="#494445" stroke-width="5.627" stroke-opacity="1.000" stroke-linecap="round" stroke-linejoin="round" d="M 1008.305 326.578 Q 1008.349 326.501 1009.375 324.956 Q 1010.174 324.417 1029.971 324.141 Q 1029.490 323.779 1025.682 322.310 Q 1021.874 320.841 1019.080 319.447 Q 1016.286 318.053 1014.290 316.263 Q 1012.294 314.473 1011.772 311.928 Q 1011.249 309.383 1011.499 307.855 Q 1011.749 306.326 1013.472 304.720 Q 1015.195 303.114 1022.964 302.850 Q 1030.733 302.585 1030.643 302.546 Q 1030.553 302.506 1030.420 302.359 "/>
    <path id="STROKE_9cf34343-251e-4842-8624-a61027b44e21" opacity="1.000" fill="none" stroke="#494445" stroke-width="5.283" stroke-opacity="1.000" stroke-linecap="round" stroke-linejoin="round" d="M 986.648 276.078 Q 986.917 275.851 988.434 275.475 Q 989.952 275.099 991.018 275.021 Q 992.084 274.942 994.620 274.921 Q 997.157 274.900 1003.108 275.203 Q 1009.059 275.506 1029.645 275.220 L 1029.627 275.016 "/>
    <path id="STROKE_541ddbe8-1c0a-4971-bde5-9a2eda96974f" opacity="1.000" fill="none" stroke="#494445" stroke-width="6.695" stroke-opacity="1.000" stroke-linecap="round" stroke-linejoin="round" d="M 1000.613 261.953 Q 1000.530 261.926 1000.017 261.545 Q 999.939 261.555 1001.345 266.928 Q 1002.752 272.302 1003.002 282.365 Q 1003.252 292.429 1003.344 293.938 "/>
    <path id="STROKE_5d835042-b65a-4a4b-96e3-aff9f72b04f7" opacity="1.000" fill="none" stroke="#494445" stroke-width="6.413" stroke-opacity="1.000" stroke-linecap="round" stroke-linejoin="round" d="M 1002.343 186.312 Q 1001.918 186.296 1001.017 186.317 Q 1000.471 186.807 1000.599 189.117 Q 1000.726 191.428 1002.252 194.396 Q 1003.777 197.365 1005.454 199.368 Q 1007.130 201.370 1008.844 202.504 Q 1010.557 203.638 1012.502 204.176 Q 1014.447 204.713 1017.013 204.745 Q 1019.579 204.778 1021.511 204.304 Q 1023.444 203.831 1025.379 202.393 Q 1027.315 200.956 1028.340 198.617 Q 1029.364 196.278 1029.419 193.882 Q 1029.474 191.485 1028.959 189.658 Q 1028.444 187.831 1026.320 185.089 Q 1024.196 182.348 1020.620 180.262 Q 1017.045 178.176 1013.950 177.343 Q 1010.856 176.510 1007.763 176.479 Q 1004.669 176.447 1002.947 177.064 Q 1002.779 177.281 1004.431 177.694 Q 1006.083 178.106 1010.583 177.493 Q 1015.083 176.879 1026.958 171.874 L 1027.897 171.641 "/>
    <path id="STROKE_00170598-2520-429c-84d9-ca4b38b9c90e" opacity="1.000" fill="none" stroke="#494445" stroke-width="5.692" stroke-opacity="1.000" stroke-linecap="round" stroke-linejoin="round" d="M 967.972 155.125 Q 968.123 155.159 968.223 155.030 Q 968.323 154.901 971.478 154.365 Q 974.633 153.829 981.252 154.334 Q 987.872 154.839 996.136 155.375 Q 1004.401 155.910 1011.181 156.011 Q 1017.960 156.112 1024.221 155.407 Q 1024.268 155.298 1024.333 154.531 "/>
    <path id="STROKE_b6ca572f-df3b-421a-82b4-bc8f71fa6a4c" opacity="1.000" fill="none" stroke="#494445" stroke-width="5.655" stroke-opacity="1.000" stroke-linecap="round" stroke-linejoin="round" d="M 997.112 131.766 Q 997.080 131.524 997.715 129.239 Q 998.349 126.954 1000.031 125.116 Q 1001.712 123.278 1003.575 122.295 Q 1005.438 121.312 1007.990 120.953 Q 1010.543 120.594 1012.509 120.762 Q 1014.475 120.930 1017.026 122.037 Q 1019.578 123.144 1021.471 124.823 Q 1023.365 126.501 1024.314 128.501 Q 1025.264 130.501 1025.303 132.433 Q 1025.342 134.364 1024.387 136.254 Q 1023.432 138.144 1021.587 139.665 Q 1019.743 141.186 1017.616 142.052 Q 1015.490 142.919 1012.797 143.218 Q 1010.104 143.517 1007.367 143.140 Q 1004.630 142.763 1001.922 141.055 Q 999.214 139.346 997.925 138.043 Q 996.636 136.741 995.800 135.093 Q 994.963 133.445 994.928 132.343 Q 994.892 131.242 995.069 130.109 "/>
    <path id="STROKE_51c1ee75-7369-4a23-acec-249d3e97eac3" opacity="1.000" fill="none" stroke="#494445" stroke-width="5.259" stroke-opacity="1.000" stroke-linecap="round" stroke-linejoin="round" d="M 965.075 109.672 Q 965.406 109.142 965.657 108.806 Q 966.891 108.345 966.973 108.288 Q 967.054 108.231 974.382 108.728 Q 981.710 109.225 986.797 109.400 Q 991.883 109.575 1002.064 109.731 Q 1012.244 109.887 1023.047 109.207 Q 1023.184 108.887 1018.404 106.767 Q 1013.623 104.647 1009.248 102.232 Q 1004.872 99.817 1002.693 98.011 Q 1000.513 96.205 999.477 94.977 Q 998.440 93.749 998.146 93.160 Q 997.852 92.570 997.586 90.645 Q 997.320 88.720 1001.981 86.371 Q 1006.642 84.022 1010.978 82.984 Q 1015.314 81.945 1018.503 81.757 Q 1021.692 81.570 1023.684 81.834 Q 1025.677 82.098 1026.491 82.442 Q 1027.306 82.787 1029.690 84.719 "/>
    <path id="STROKE_9fb82cf6-2168-45ff-a6a6-921f50fb582c" opacity="1.000" fill="none" stroke="#494445" stroke-width="6.449" stroke-opacity="1.000" stroke-linecap="round" stroke-linejoin="round" d="M 1006.450 47.969 Q 1005.813 47.177 1005.741 47.162 Q 1005.669 47.146 1004.912 46.529 Q 1004.156 45.913 1003.087 45.776 Q 1002.018 45.639 1001.803 45.699 Q 1001.587 45.759 1000.895 46.263 Q 1000.203 46.768 999.705 48.072 Q 999.207 49.375 999.191 51.392 Q 999.175 53.409 999.857 55.652 Q 1000.538 57.895 1002.160 60.481 Q 1003.782 63.067 1006.132 65.071 Q 1008.482 67.076 1011.824 68.007 Q 1015.165 68.938 1017.840 68.784 Q 1020.515 68.630 1022.379 67.625 Q 1024.243 66.620 1025.852 64.256 Q 1027.462 61.892 1027.790 58.735 Q 1028.119 55.579 1027.460 52.965 Q 1026.802 50.351 1026.038 48.857 Q 1025.274 47.363 1024.215 46.032 Q 1023.156 44.701 1020.732 42.749 Q 1018.308 40.798 1003.285 41.170 Q 1004.188 41.133 1007.980 40.434 Q 1011.773 39.735 1015.653 38.461 Q 1019.533 37.186 1022.886 36.227 Q 1026.240 35.267 1027.773 35.141 Q 1029.305 35.014 1030.482 34.969 "/>
    <path id="STROKE_8977324a-447e-4922-a565-c1ae03aa0017" opacity="1.000" fill="none" stroke="#cd4d4d" stroke-width="20.930" stroke-opacity="1.000" stroke-linecap="round" stroke-linejoin="round" d="M 292.359 800.088 Q 292.217 799.945 289.247 795.442 Q 286.278 790.939 284.101 786.839 Q 281.924 782.740 281.012 780.252 Q 280.100 777.764 279.664 776.510 Q 279.229 775.255 278.412 768.251 Q 277.594 761.246 277.498 756.709 Q 277.402 752.172 277.396 749.227 Q 277.390 746.282 277.358 736.934 Q 277.325 727.586 278.253 719.090 Q 279.181 710.594 280.025 706.366 Q 280.869 702.138 281.577 699.673 Q 282.285 697.207 282.952 695.252 Q 283.620 693.297 284.401 691.329 Q 285.183 689.361 288.367 683.124 Q 291.551 676.886 293.860 672.687 Q 296.168 668.489 301.255 660.195 Q 306.341 651.901 311.129 645.492 Q 315.917 639.082 322.232 632.608 Q 328.548 626.133 337.535 618.380 Q 346.522 610.628 351.881 606.342 Q 357.241 602.056 365.075 596.728 Q 372.909 591.400 377.639 588.727 Q 382.370 586.053 386.061 584.374 Q 389.752 582.694 391.954 581.711 Q 394.156 580.728 403.132 577.932 Q 412.108 575.135 418.040 573.805 Q 423.972 572.475 429.176 571.393 Q 434.379 570.311 444.687 568.934 Q 454.995 567.557 465.039 567.228 Q 475.083 566.899 481.348 567.119 Q 487.613 567.340 498.153 570.028 Q 508.692 572.717 514.827 574.818 Q 520.962 576.918 524.098 578.200 Q 527.233 579.482 534.323 582.918 Q 541.413 586.353 550.083 592.276 Q 558.753 598.199 565.764 605.514 Q 572.775 612.830 575.903 616.806 Q 579.031 620.783 582.182 625.457 Q 585.333 630.132 588.101 634.394 Q 590.869 638.656 595.432 648.025 Q 599.994 657.395 602.362 663.664 Q 604.731 669.933 606.461 674.511 Q 608.191 679.089 610.619 687.232 Q 613.046 695.375 614.388 703.589 Q 615.729 711.803 616.088 720.789 Q 616.448 729.775 615.812 737.986 Q 615.176 746.197 611.239 759.377 Q 607.303 772.556 603.629 782.177 Q 599.955 791.798 596.224 799.239 Q 592.494 806.680 590.084 810.521 Q 587.673 814.362 585.123 817.717 Q 582.574 821.071 580.095 824.056 Q 577.616 827.040 567.568 834.146 Q 557.520 841.252 548.569 846.489 Q 539.617 851.726 531.923 855.364 Q 524.228 859.001 519.841 860.643 Q 515.455 862.285 505.356 865.983 Q 495.257 869.681 490.076 871.503 Q 484.895 873.325 482.060 874.271 Q 479.225 875.217 468.625 877.810 Q 458.025 880.404 447.278 881.663 Q 436.530 882.922 427.695 883.091 Q 418.859 883.260 409.943 881.386 Q 401.027 879.513 396.763 878.204 Q 392.498 876.894 390.099 876.057 Q 387.700 875.220 381.749 873.030 Q 375.798 870.841 366.886 867.607 Q 357.974 864.374 353.182 862.595 Q 348.391 860.817 344.809 859.245 Q 341.227 857.674 335.862 855.124 Q 330.497 852.573 327.169 850.991 Q 323.840 849.408 318.118 845.437 Q 312.395 841.465 309.094 838.590 Q 305.793 835.715 302.247 832.078 Q 298.701 828.441 295.852 824.754 Q 293.002 821.067 291.038 817.918 Q 289.073 814.770 286.387 806.220 Q 283.702 797.669 282.488 792.832 Q 281.274 787.994 279.725 784.819 Q 278.177 781.645 273.905 774.950 "/>
    <path id="STROKE_6b3675f0-93a8-4926-a367-7cadea4b37c1" opacity="1.000" fill="none" stroke="#cd4d4d" stroke-width="22.461" stroke-opacity="1.000" stroke-linecap="round" stroke-linejoin="round" d="M 340.513 620.479 Q 340.674 620.887 350.654 629.431 Q 360.634 637.975 368.814 645.340 Q 376.994 652.706 380.800 656.382 Q 384.606 660.058 393.297 668.901 Q 401.988 677.743 406.597 682.512 Q 411.206 687.281 415.032 690.894 Q 418.858 694.506 423.034 698.662 Q 427.210 702.819 435.733 712.391 Q 444.257 721.963 451.449 729.445 Q 458.642 736.927 469.133 746.483 Q 479.623 756.039 486.075 761.820 Q 492.527 767.602 497.155 771.765 Q 501.784 775.927 504.194 778.182 Q 506.604 780.437 509.716 784.589 Q 512.829 788.741 515.577 792.048 Q 518.325 795.356 522.446 798.120 Q 526.566 800.884 529.811 803.918 Q 533.055 806.952 534.790 808.964 Q 536.524 810.975 538.993 812.650 Q 541.461 814.325 542.355 814.897 Q 543.249 815.468 545.901 817.456 Q 548.554 819.444 550.253 825.065 Q 549.778 825.499 548.206 826.040 "/>
    <path id="STROKE_be0e290c-caea-47d7-b57f-6d5d73797876" opacity="1.000" fill="none" stroke="#45b046" stroke-width="38.857" stroke-opacity="1.000" stroke-linecap="round" stroke-linejoin="round" d="M 806.427 605.187 Q 804.962 605.116 800.039 605.289 Q 799.661 605.975 803.327 608.738 Q 806.993 611.502 810.748 614.359 Q 814.503 617.216 823.065 624.037 Q 831.627 630.859 836.406 634.344 Q 841.184 637.828 844.236 639.953 Q 847.287 642.077 852.554 645.689 Q 857.820 649.301 869.410 656.684 Q 880.999 664.068 891.077 669.872 Q 901.155 675.677 908.604 679.889 Q 916.053 684.101 922.341 687.787 Q 928.628 691.473 931.878 693.419 Q 935.127 695.365 943.916 700.036 Q 952.704 704.707 958.950 707.846 Q 965.195 710.984 968.933 712.984 Q 972.671 714.984 983.814 721.015 Q 994.957 727.046 1006.500 732.583 Q 1018.042 738.120 1026.185 741.597 Q 1034.327 745.073 1041.433 748.049 Q 1048.538 751.025 1052.093 752.706 Q 1055.647 754.387 1057.524 755.894 Q 1059.401 757.401 1060.389 758.790 Q 1061.378 760.179 1061.960 762.441 Q 1062.542 764.703 1061.891 765.730 Q 1061.240 766.756 1057.173 768.402 Q 1053.105 770.047 1048.473 772.548 Q 1043.840 775.048 1039.843 778.454 Q 1035.845 781.860 1030.466 786.875 Q 1025.087 791.889 1022.408 794.327 Q 1019.729 796.765 1014.835 801.458 Q 1009.942 806.152 1006.082 810.529 Q 1002.222 814.905 1000.088 817.850 Q 997.953 820.794 995.411 825.224 Q 992.869 829.654 990.797 834.026 Q 988.726 838.398 986.942 842.408 Q 985.159 846.417 983.186 850.339 Q 981.212 854.260 979.604 856.206 Q 977.996 858.152 977.006 858.693 Q 976.016 859.234 974.578 859.843 "/>
  </g>
</svg>