<?xml version="1.0" encoding="utf-8"?>
<svg width="4.578070in" height="3.939680in" version="1.1" viewBox="248.954 115.415 539.617 619.658" xmlns="http://www.w3.org/2000/svg">
  <title>Untitled 4</title>
  <desc>Drawing exported from Concepts: Smarter Sketching</desc>
  <g id="Pencil" opacity="1.000" transform="matrix(0, 1, -1, 0, 951.48999, -99.932999)">
    <path id="STROKE_bb511b63-42c0-4b8c-bdde-b43ae4f1ed37" opacity="1.000" fill="none" stroke="#4245a3" stroke-width="5.000" stroke-opacity="1.000" stroke-linecap="round" stroke-linejoin="round" d="M 358.417 639.947 Q 360.151 641.181 361.165 641.873 Q 362.179 642.566 364.898 644.233 Q 367.616 645.900 370.658 647.122 Q 373.700 648.345 375.757 648.593 Q 377.813 648.841 379.175 648.566 Q 380.536 648.292 381.330 647.827 Q 382.123 647.362 382.643 646.780 Q 383.162 646.197 383.610 644.979 Q 384.058 643.761 383.872 641.750 Q 383.686 639.739 382.299 637.001 Q 380.912 634.263 378.918 631.944 Q 376.923 629.625 375.654 628.350 Q 374.386 627.076 372.648 624.655 Q 372.657 624.634 373.342 624.264 Q 374.027 623.895 376.216 623.298 Q 378.404 622.701 380.097 621.999 Q 381.790 621.297 382.594 620.791 Q 383.399 620.285 384.152 619.508 Q 384.905 618.732 385.304 618.027 Q 385.702 617.322 385.943 616.365 Q 386.184 615.408 386.019 613.782 Q 385.854 612.157 384.884 610.130 Q 383.915 608.104 381.410 605.376 Q 378.905 602.648 375.994 600.686 Q 373.083 598.724 370.936 597.760 Q 368.790 596.797 367.554 596.406 Q 366.317 596.016 365.645 595.869 Q 364.973 595.723 362.294 595.249 "/>
    <path id="STROKE_df972e4d-409e-4ebc-bfb1-2ba7079c888e" opacity="1.000" fill="none" stroke="#4245a3" stroke-width="5.000" stroke-opacity="1.000" stroke-linecap="round" stroke-linejoin="round" d="M 380.671 565.585 Q 381.085 566.269 381.463 566.915 Q 381.842 567.561 382.211 568.278 Q 382.581 568.995 383.350 570.781 Q 384.118 572.567 384.585 574.545 Q 385.052 576.524 385.084 578.299 Q 385.115 580.074 384.655 581.925 Q 384.195 583.776 383.304 585.189 Q 382.412 586.602 381.402 587.464 Q 380.391 588.325 378.970 588.906 Q 377.548 589.487 376.123 589.598 Q 374.699 589.709 372.994 589.322 Q 371.289 588.935 369.504 587.932 Q 367.719 586.930 365.667 584.711 Q 363.615 582.492 362.523 580.024 Q 361.431 577.555 361.344 575.640 Q 361.257 573.724 361.481 573.088 Q 361.705 572.451 362.021 572.064 Q 362.337 571.677 362.557 571.538 Q 362.777 571.400 362.994 571.317 Q 363.211 571.235 363.683 571.250 Q 364.155 571.265 365.237 571.846 Q 366.319 572.427 367.811 574.438 Q 369.303 576.449 369.895 578.276 Q 370.487 580.102 370.607 581.648 Q 370.586 581.882 370.277 584.612 "/>
    <path id="STROKE_ada753ee-3ba9-4e20-9a98-fdc9675411b6" opacity="1.000" fill="none" stroke="#4245a3" stroke-width="5.000" stroke-opacity="1.000" stroke-linecap="round" stroke-linejoin="round" d="M 364.689 548.317 Q 365.232 548.546 369.609 550.481 Q 373.985 552.416 378.020 554.348 L 380.003 555.412 "/>
    <path id="STROKE_80099cdf-fc10-46e6-ad91-2d62fb98e640" opacity="1.000" fill="none" stroke="#4245a3" stroke-width="5.000" stroke-opacity="1.000" stroke-linecap="round" stroke-linejoin="round" d="M 329.793 548.622 Q 330.296 548.033 332.333 545.897 L 333.687 544.421 "/>
    <path id="STROKE_a1f93e78-c104-4a0f-ab8a-d404496fbf91" opacity="1.000" fill="none" stroke="#4245a3" stroke-width="5.000" stroke-opacity="1.000" stroke-linecap="round" stroke-linejoin="round" d="M 366.123 522.024 L 366.365 522.733 Q 366.494 523.009 367.285 524.230 Q 368.077 525.451 369.101 526.447 Q 370.125 527.443 370.964 527.852 Q 371.802 528.261 372.421 528.317 Q 373.041 528.373 373.535 528.238 Q 374.029 528.104 374.513 527.694 Q 374.996 527.285 375.315 526.577 Q 375.635 525.869 375.681 524.966 Q 375.726 524.064 375.362 522.652 Q 374.997 521.240 374.422 520.088 Q 373.847 518.935 373.418 518.160 Q 372.988 517.385 372.916 517.230 Q 372.844 517.075 372.908 517.054 Q 372.973 517.034 373.331 516.971 Q 373.690 516.909 375.024 516.799 Q 376.358 516.688 380.113 516.722 Q 383.868 516.756 387.060 517.039 Q 390.253 517.323 394.094 518.226 Q 397.935 519.129 401.315 520.720 Q 404.694 522.310 406.998 524.140 Q 409.301 525.969 410.910 528.034 Q 412.518 530.099 413.531 532.445 Q 414.544 534.791 415.021 538.075 Q 415.497 541.359 415.252 544.326 Q 415.008 547.294 414.182 550.467 Q 413.356 553.639 412.390 556.609 "/>
    <path id="STROKE_aad6d15c-48df-45ac-8a07-752966404a2a" opacity="1.000" fill="none" stroke="#4245a3" stroke-width="5.000" stroke-opacity="1.000" stroke-linecap="round" stroke-linejoin="round" d="M 331.096 496.402 Q 332.018 496.531 344.247 498.821 Q 356.477 501.111 363.024 502.250 Q 369.572 503.390 371.011 503.290 Q 372.449 503.190 372.558 503.110 Q 372.667 503.030 372.089 502.240 Q 371.510 501.450 369.127 499.068 Q 366.744 496.685 365.764 495.123 Q 364.784 493.561 364.598 492.829 Q 364.413 492.098 364.401 491.662 Q 364.389 491.227 364.421 490.982 Q 364.453 490.737 364.669 490.169 Q 364.885 489.601 366.196 488.080 Q 367.506 486.559 369.030 485.325 Q 370.554 484.090 371.646 483.186 Q 372.738 482.282 373.035 482.019 Q 373.331 481.756 374.074 480.974 Q 374.818 480.191 375.641 478.997 Q 376.464 477.804 378.195 474.932 "/>
    <path id="STROKE_686fcb23-de48-4d1f-8e13-ad5cc6245622" opacity="1.000" fill="none" stroke="#4245a3" stroke-width="5.000" stroke-opacity="1.000" stroke-linecap="round" stroke-linejoin="round" d="M 358.841 458.543 Q 357.298 458.563 353.302 458.543 "/>
    <path id="STROKE_d124a08b-073e-4bf7-959e-85b2bdb400b4" opacity="1.000" fill="none" stroke="#4245a3" stroke-width="5.000" stroke-opacity="1.000" stroke-linecap="round" stroke-linejoin="round" d="M 351.330 456.516 Q 350.620 456.732 350.553 456.814 Q 350.486 456.897 351.807 457.738 Q 353.128 458.579 356.627 459.947 Q 360.126 461.314 363.743 462.053 Q 367.359 462.791 370.337 462.621 Q 373.314 462.451 374.638 461.993 Q 375.962 461.534 376.792 461.042 Q 377.621 460.550 378.370 459.876 Q 379.118 459.202 380.354 457.272 Q 381.590 455.341 382.165 453.888 Q 382.740 452.434 383.929 448.895 "/>
    <path id="STROKE_7054bb08-0356-42a6-8dbe-2d871e4d0ee2" opacity="1.000" fill="none" stroke="#4245a3" stroke-width="5.000" stroke-opacity="1.000" stroke-linecap="round" stroke-linejoin="round" d="M 359.867 439.980 L 359.928 440.816 Q 360.166 448.241 360.008 453.968 Q 359.851 459.695 359.820 462.547 Q 359.788 465.399 359.887 467.207 Q 359.985 469.015 360.172 470.551 Q 360.360 472.087 361.268 476.740 "/>
    <path id="STROKE_752a8822-0c0e-4fcb-8205-0b5a4619bbf9" opacity="1.000" fill="none" stroke="#4245a3" stroke-width="5.023" stroke-opacity="1.000" stroke-linecap="round" stroke-linejoin="round" d="M 334.664 351.611 L 335.883 351.802 Q 336.368 351.906 340.975 353.162 Q 345.582 354.419 350.616 356.104 Q 355.651 357.790 363.703 360.457 Q 371.756 363.124 378.363 364.807 Q 384.970 366.490 389.775 367.114 Q 394.580 367.738 398.566 367.871 L 400.644 367.890 "/>
    <path id="STROKE_632a7fdb-4c54-4b90-a61b-1dc57e74cdbb" opacity="1.000" fill="none" stroke="#4245a3" stroke-width="5.000" stroke-opacity="1.000" stroke-linecap="round" stroke-linejoin="round" d="M 339.943 314.167 Q 341.200 314.692 343.999 316.278 Q 346.798 317.864 350.522 320.188 Q 354.246 322.512 356.269 323.780 Q 358.293 325.048 362.387 327.336 Q 366.481 329.624 370.290 331.112 Q 374.099 332.601 377.419 333.151 Q 380.738 333.700 383.117 333.485 Q 385.495 333.270 386.668 332.909 Q 387.840 332.549 389.616 331.431 Q 391.391 330.314 392.331 329.133 Q 393.271 327.953 393.636 327.148 Q 394.000 326.344 394.274 324.800 Q 394.548 323.257 394.287 321.515 Q 394.026 319.773 393.109 318.135 Q 392.192 316.498 391.083 315.621 Q 389.973 314.744 389.120 314.494 Q 388.268 314.243 387.683 314.274 Q 387.098 314.304 386.815 314.378 Q 386.532 314.453 386.273 314.564 Q 386.016 314.675 385.487 315.093 Q 384.959 315.510 383.979 317.508 Q 382.999 319.505 382.733 321.298 Q 382.467 323.091 382.453 324.417 Q 382.439 325.743 382.480 326.454 Q 382.521 327.165 382.642 329.934 "/>
    <path id="STROKE_d3864690-5f69-44e0-a8ce-7e902416df35" opacity="1.000" fill="none" stroke="#4245a3" stroke-width="5.071" stroke-opacity="1.000" stroke-linecap="round" stroke-linejoin="round" d="M 334.567 264.841 Q 335.689 265.219 341.298 266.821 Q 346.907 268.422 353.528 269.982 Q 360.150 271.541 364.816 272.526 Q 369.483 273.510 375.957 274.538 Q 382.431 275.566 386.216 275.458 Q 390.001 275.351 391.154 275.004 Q 392.308 274.657 392.763 274.440 Q 393.219 274.224 393.456 274.063 Q 393.694 273.903 393.940 273.646 Q 394.185 273.390 394.507 272.898 Q 394.829 272.407 395.577 271.326 "/>
    <path id="STROKE_d4774df4-8539-48ee-bc6c-90b4711dcc7e" opacity="1.000" fill="none" stroke="#4245a3" stroke-width="5.000" stroke-opacity="1.000" stroke-linecap="round" stroke-linejoin="round" d="M 336.733 247.158 Q 337.798 247.117 343.565 247.885 Q 349.333 248.654 353.749 249.513 Q 358.165 250.373 362.968 251.243 Q 367.771 252.113 370.869 252.468 Q 373.968 252.823 377.739 252.410 Q 381.510 251.996 382.617 251.005 Q 382.676 250.852 382.417 249.669 Q 382.159 248.487 381.214 246.801 Q 380.269 245.116 379.364 243.490 Q 378.459 241.864 378.121 240.813 Q 377.782 239.763 377.762 239.161 Q 377.741 238.559 377.820 238.253 Q 377.900 237.948 378.000 237.732 Q 378.100 237.517 378.808 236.961 Q 379.516 236.405 380.694 236.247 Q 381.872 236.090 383.287 236.469 Q 384.701 236.848 385.607 237.346 Q 386.512 237.844 388.103 239.325 Q 389.693 240.805 390.736 242.525 Q 391.779 244.245 392.322 245.955 Q 392.865 247.665 393.032 249.388 Q 393.199 251.112 392.629 256.390 "/>
    <path id="STROKE_4e77e745-b988-4a71-b1b4-c7024dab383b" opacity="1.000" fill="none" stroke="#4245a3" stroke-width="5.000" stroke-opacity="1.000" stroke-linecap="round" stroke-linejoin="round" d="M 371.466 204.793 Q 372.194 205.704 372.830 206.537 Q 373.466 207.371 376.055 210.108 Q 378.644 212.844 379.703 213.477 Q 380.762 214.110 381.449 214.323 Q 382.136 214.536 382.740 214.579 Q 383.344 214.623 384.895 214.185 Q 386.447 213.747 387.633 213.167 Q 388.819 212.587 390.222 211.844 Q 391.625 211.102 393.340 210.379 Q 395.055 209.656 396.639 209.329 Q 398.224 209.003 399.036 209.016 Q 399.849 209.028 400.454 209.163 Q 401.059 209.299 401.452 209.517 Q 401.845 209.736 401.924 209.906 Q 402.002 210.076 401.871 210.142 Q 401.741 210.209 400.220 209.111 Q 398.698 208.012 394.686 203.549 Q 390.674 199.085 388.825 196.225 Q 386.976 193.365 386.044 191.461 Q 385.112 189.557 384.696 188.384 Q 384.280 187.210 383.163 183.689 "/>
    <path id="STROKE_556f3a98-66bd-4a25-92be-38b54603b0f0" opacity="1.000" fill="none" stroke="#4245a3" stroke-width="5.136" stroke-opacity="1.000" stroke-linecap="round" stroke-linejoin="round" d="M 444.956 638.030 Q 445.509 638.082 455.804 641.352 Q 466.100 644.623 472.922 646.931 Q 479.745 649.238 482.599 650.155 Q 485.453 651.072 491.530 652.906 Q 497.606 654.740 504.685 656.261 Q 504.702 656.265 501.614 653.933 Q 498.525 651.601 493.972 648.120 Q 489.418 644.639 487.991 642.812 Q 486.563 640.984 486.324 640.190 Q 486.085 639.397 486.103 639.054 Q 486.121 638.711 486.184 638.488 Q 486.248 638.264 486.493 637.943 Q 486.738 637.623 489.393 636.744 Q 492.047 635.865 495.767 635.566 Q 499.486 635.267 503.127 634.694 Q 506.769 634.121 508.948 633.232 Q 511.127 632.344 512.231 631.538 Q 513.334 630.732 513.908 630.132 Q 514.482 629.533 514.999 628.801 Q 515.516 628.068 516.139 626.587 Q 516.762 625.107 517.029 623.629 Q 517.296 622.151 517.267 619.662 Q 517.238 617.172 515.595 607.376 "/>
    <path id="STROKE_c842436f-641c-404b-a7f2-1a621708ca5a" opacity="1.000" fill="none" stroke="#4245a3" stroke-width="5.000" stroke-opacity="1.000" stroke-linecap="round" stroke-linejoin="round" d="M 512.174 583.574 Q 512.487 584.838 512.813 586.161 Q 513.139 587.485 513.495 589.882 Q 513.852 592.279 513.717 594.204 Q 513.582 596.129 513.157 597.337 Q 512.731 598.545 512.080 599.450 Q 511.429 600.355 510.357 601.091 Q 509.285 601.827 507.814 602.152 Q 506.343 602.478 504.415 602.196 Q 502.488 601.914 500.231 600.735 Q 497.975 599.557 495.987 597.609 Q 493.999 595.662 492.907 593.674 Q 491.816 591.685 491.637 590.673 Q 491.457 589.660 491.544 589.083 Q 491.631 588.506 491.734 588.272 Q 491.837 588.038 491.987 587.848 Q 492.138 587.657 492.506 587.442 Q 492.874 587.226 493.614 587.189 Q 494.354 587.151 495.420 587.527 Q 496.485 587.903 498.335 589.271 Q 500.184 590.640 503.431 594.165 L 504.729 595.506 "/>
    <path id="STROKE_d02dc058-58cb-47b6-931b-f7d935b7586f" opacity="1.000" fill="none" stroke="#4245a3" stroke-width="5.000" stroke-opacity="1.000" stroke-linecap="round" stroke-linejoin="round" d="M 488.209 563.766 Q 488.490 563.877 494.843 566.414 Q 501.196 568.951 504.179 570.460 Q 507.163 571.968 508.651 572.863 Q 510.139 573.758 512.223 575.233 "/>
    <path id="STROKE_f1a3eb73-86f4-4288-a6f5-31e4c6fdaf3c" opacity="1.000" fill="none" stroke="#4245a3" stroke-width="5.000" stroke-opacity="1.000" stroke-linecap="round" stroke-linejoin="round" d="M 471.087 564.963 Q 471.649 564.411 471.947 564.092 Q 472.249 563.836 475.608 562.763 Q 478.967 561.689 482.263 561.067 "/>
    <path id="STROKE_e0f33d60-283f-4d4c-a924-bb82647a5d10" opacity="1.000" fill="none" stroke="#4245a3" stroke-width="5.486" stroke-opacity="1.000" stroke-linecap="round" stroke-linejoin="round" d="M 487.232 537.631 Q 487.392 537.830 490.067 540.351 Q 492.741 542.872 496.175 545.333 Q 499.608 547.795 502.107 548.842 Q 504.605 549.889 505.820 550.078 Q 507.035 550.268 508.064 550.122 Q 509.094 549.976 509.559 549.724 Q 510.023 549.473 510.288 549.139 Q 510.552 548.805 510.664 548.383 Q 510.777 547.961 510.736 547.473 Q 510.694 546.984 509.550 545.047 Q 508.407 543.110 505.305 540.555 Q 502.204 538.000 500.586 536.935 Q 498.968 535.869 498.520 535.544 Q 498.073 535.219 498.043 535.197 Q 498.013 535.175 500.003 535.471 Q 501.992 535.768 506.839 537.288 Q 511.686 538.809 516.732 541.051 Q 521.779 543.292 526.879 546.517 Q 531.980 549.742 535.190 552.411 Q 538.400 555.080 541.225 558.036 Q 544.049 560.992 546.391 564.395 Q 548.733 567.798 549.715 570.044 Q 550.697 572.289 551.107 574.365 Q 551.517 576.440 551.435 577.861 Q 551.353 579.283 551.179 579.978 Q 551.005 580.673 550.778 581.175 Q 550.551 581.678 550.256 582.139 Q 549.961 582.601 548.242 584.930 "/>
    <path id="STROKE_2f8183ec-70f1-444f-a031-456d47e52048" opacity="1.000" fill="none" stroke="#4245a3" stroke-width="5.101" stroke-opacity="1.000" stroke-linecap="round" stroke-linejoin="round" d="M 448.214 512.058 Q 449.175 512.233 453.386 513.174 Q 457.597 514.115 465.592 516.289 Q 473.587 518.463 482.115 520.903 Q 490.642 523.343 494.885 524.163 Q 499.128 524.983 501.039 524.783 Q 502.951 524.583 503.559 524.139 Q 503.693 523.910 501.938 520.700 Q 500.184 517.489 498.461 514.815 Q 496.739 512.142 496.542 511.255 Q 496.346 510.369 496.378 510.041 Q 496.410 509.713 496.543 509.444 Q 496.675 509.175 497.634 508.547 Q 498.592 507.920 502.044 507.359 Q 505.497 506.798 508.521 506.490 Q 511.545 506.183 512.961 505.945 Q 514.378 505.707 515.423 505.478 Q 516.469 505.250 519.211 504.486 "/>
    <path id="STROKE_2e4a7484-7257-4f57-a517-c80f936f498e" opacity="1.000" fill="none" stroke="#4245a3" stroke-width="5.000" stroke-opacity="1.000" stroke-linecap="round" stroke-linejoin="round" d="M 456.083 473.320 Q 457.450 473.436 466.661 474.972 Q 475.873 476.509 481.143 477.703 Q 486.414 478.897 489.479 479.565 Q 492.544 480.233 497.739 480.980 Q 502.934 481.727 505.870 481.673 Q 508.807 481.619 510.030 481.440 Q 511.253 481.262 511.814 481.141 Q 512.375 481.019 512.892 480.891 Q 513.409 480.762 515.807 480.062 "/>
    <path id="STROKE_0b153c7b-ea14-4029-be28-21271b932e81" opacity="1.000" fill="none" stroke="#4245a3" stroke-width="5.000" stroke-opacity="1.000" stroke-linecap="round" stroke-linejoin="round" d="M 488.160 464.918 Q 488.235 465.538 488.480 467.204 Q 488.726 468.870 489.403 471.803 Q 490.081 474.736 491.337 478.402 Q 492.592 482.068 493.907 485.452 Q 495.222 488.835 497.528 495.046 "/>
    <path id="STROKE_f8690f61-64e3-4bcf-86fd-9c25c479f71e" opacity="1.000" fill="none" stroke="#4245a3" stroke-width="5.015" stroke-opacity="1.000" stroke-linecap="round" stroke-linejoin="round" d="M 474.297 364.312 Q 472.311 362.123 471.367 361.142 Q 470.423 360.162 468.992 358.574 Q 467.560 356.986 466.561 355.745 Q 465.562 354.504 463.951 351.844 Q 462.340 349.185 461.821 347.278 Q 461.302 345.371 461.397 344.352 Q 461.492 343.333 461.709 342.839 Q 461.926 342.346 462.125 342.092 Q 462.323 341.839 462.775 341.534 Q 463.227 341.229 463.980 341.010 Q 464.733 340.791 468.255 341.638 Q 471.777 342.484 480.417 348.509 Q 489.056 354.534 493.471 357.740 Q 497.886 360.946 499.965 362.116 Q 502.044 363.285 504.604 364.173 Q 507.164 365.061 508.893 365.139 Q 510.622 365.217 511.869 364.877 Q 513.116 364.536 514.026 363.951 Q 514.936 363.366 516.267 361.466 Q 517.597 359.566 518.364 355.577 Q 519.130 351.588 518.582 346.162 Q 518.034 340.736 516.586 335.651 Q 515.138 330.566 514.091 328.245 Q 513.044 325.924 512.384 324.796 Q 511.724 323.668 511.293 323.038 Q 510.863 322.408 507.889 318.674 "/>
    <path id="STROKE_3206cac5-cdeb-4f3b-b211-da80baff7f0c" opacity="1.000" fill="none" stroke="#4245a3" stroke-width="5.000" stroke-opacity="1.000" stroke-linecap="round" stroke-linejoin="round" d="M 466.900 311.835 Q 466.570 311.258 464.675 307.450 Q 462.780 303.642 461.749 299.777 Q 460.717 295.913 460.855 294.011 Q 460.993 292.109 461.341 291.307 Q 461.689 290.505 462.022 290.077 Q 462.356 289.650 462.685 289.403 Q 463.014 289.155 463.489 288.940 Q 463.964 288.725 464.626 288.618 Q 465.288 288.511 467.569 289.115 Q 469.849 289.719 472.218 291.237 Q 474.587 292.755 476.568 294.245 Q 478.549 295.735 484.746 298.467 Q 485.455 298.270 487.324 296.938 Q 489.192 295.606 490.821 293.928 Q 492.451 292.250 493.971 291.018 Q 495.492 289.786 496.782 289.142 Q 498.071 288.499 499.436 288.276 Q 500.801 288.054 502.364 288.428 Q 503.927 288.802 505.404 289.965 Q 506.881 291.128 507.861 292.912 Q 508.841 294.696 509.110 295.741 Q 509.379 296.787 509.461 298.685 Q 509.542 300.583 509.170 302.531 Q 508.799 304.479 507.435 307.509 Q 506.070 310.540 501.356 317.221 "/>
    <path id="STROKE_a75f6729-44d6-492c-a7e7-4a8076c89d41" opacity="1.000" fill="none" stroke="#4245a3" stroke-width="5.000" stroke-opacity="1.000" stroke-linecap="round" stroke-linejoin="round" d="M 488.160 249.441 Q 489.124 249.622 492.227 250.113 Q 495.329 250.605 497.158 250.765 Q 498.987 250.925 500.008 250.994 Q 501.029 251.063 503.230 251.102 "/>
    <path id="STROKE_18d11ae6-7f07-4d91-ab47-7e46816ede64" opacity="1.000" fill="none" stroke="#4245a3" stroke-width="5.000" stroke-opacity="1.000" stroke-linecap="round" stroke-linejoin="round" d="M 463.072 250.321 Q 461.717 251.972 461.197 252.765 Q 460.678 253.558 460.477 253.901 Q 460.276 254.245 460.187 254.443 Q 460.099 254.642 458.771 257.428 "/>
    <path id="STROKE_1a4f70ed-6165-4487-b393-210ffd6de322" opacity="1.000" fill="none" stroke="#4245a3" stroke-width="5.000" stroke-opacity="1.000" stroke-linecap="round" stroke-linejoin="round" d="M 488.845 236.484 Q 489.785 235.471 490.137 235.054 Q 490.490 234.636 490.476 233.991 Q 490.461 233.345 490.437 232.246 Q 490.414 231.146 490.432 230.420 Q 490.451 229.694 490.554 228.870 Q 490.657 228.047 490.905 227.049 Q 491.153 226.051 491.867 224.471 Q 492.582 222.891 493.513 221.342 Q 494.443 219.793 495.157 218.717 Q 495.871 217.641 496.784 216.211 Q 497.697 214.781 499.186 212.093 Q 500.675 209.405 502.187 206.453 "/>
    <path id="STROKE_22afcfb3-6d19-4094-917d-c5156f072130" opacity="1.000" fill="none" stroke="#4245a3" stroke-width="5.689" stroke-opacity="1.000" stroke-linecap="round" stroke-linejoin="round" d="M 576.719 653.430 Q 577.268 653.610 580.527 654.777 Q 583.786 655.943 589.936 658.131 Q 596.085 660.319 600.374 661.777 Q 604.663 663.236 613.259 665.793 Q 621.855 668.351 626.577 669.549 Q 631.300 670.747 637.575 672.266 Q 643.851 673.784 652.403 676.065 L 655.374 676.878 "/>
    <path id="STROKE_bec1a96d-9899-4677-91d2-3695af6bf9bb" opacity="1.000" fill="none" stroke="#4245a3" stroke-width="5.396" stroke-opacity="1.000" stroke-linecap="round" stroke-linejoin="round" d="M 629.145 644.820 Q 630.043 644.800 633.947 644.479 Q 637.851 644.158 640.078 643.456 Q 642.304 642.753 643.361 641.982 Q 644.418 641.210 644.886 640.556 Q 645.354 639.901 645.537 639.299 Q 645.720 638.698 645.764 638.090 Q 645.808 637.482 644.613 634.554 Q 643.418 631.626 640.906 628.248 Q 640.914 628.257 645.920 630.885 Q 650.926 633.513 667.017 642.126 Q 683.108 650.739 685.666 652.255 Q 688.224 653.772 690.550 655.310 Q 692.875 656.849 694.691 658.228 L 695.955 659.243 "/>
    <path id="STROKE_49d565b5-41b1-4ef5-9480-de437538267b" opacity="1.000" fill="none" stroke="#4245a3" stroke-width="5.000" stroke-opacity="1.000" stroke-linecap="round" stroke-linejoin="round" d="M 634.570 612.616 Q 635.864 612.781 637.022 612.970 Q 638.179 613.160 638.548 613.226 Q 638.917 613.292 647.794 614.251 Q 646.795 612.118 645.994 610.811 Q 645.194 609.504 644.840 608.594 Q 644.486 607.685 644.411 606.861 Q 644.513 606.446 646.784 602.720 Q 646.789 602.702 646.205 600.940 Q 645.621 599.178 644.678 597.174 Q 643.734 595.169 643.236 593.745 Q 642.739 592.320 642.595 591.469 Q 642.452 590.617 642.467 589.735 Q 642.482 588.853 642.594 588.365 Q 642.706 587.878 642.838 587.536 Q 642.970 587.194 643.495 586.399 Q 644.020 585.603 646.596 583.663 Q 649.172 581.722 650.510 580.833 Q 651.848 579.944 652.333 579.553 Q 652.818 579.161 653.188 578.771 Q 653.558 578.381 653.832 577.937 Q 654.105 577.492 655.537 574.757 "/>
    <path id="STROKE_6ee101a7-e622-4749-bf84-e18d1a8137cb" opacity="1.000" fill="none" stroke="#4245a3" stroke-width="5.234" stroke-opacity="1.000" stroke-linecap="round" stroke-linejoin="round" d="M 633.120 560.395 Q 634.740 560.078 636.237 559.883 Q 637.734 559.689 641.002 559.588 Q 644.270 559.487 650.787 560.703 Q 657.305 561.918 662.895 563.925 Q 668.486 565.932 670.985 567.052 Q 673.484 568.172 675.993 569.540 Q 678.503 570.908 679.334 571.570 Q 680.165 572.233 680.265 572.481 Q 680.216 572.553 677.829 571.688 Q 675.441 570.824 672.085 569.051 Q 668.728 567.278 660.489 562.337 Q 652.249 557.397 648.706 554.812 Q 645.164 552.227 643.535 550.428 Q 641.906 548.630 641.391 547.588 Q 640.875 546.546 640.770 545.894 Q 640.665 545.242 640.708 544.808 Q 640.752 544.373 641.022 543.834 Q 641.292 543.295 642.025 542.751 Q 642.759 542.207 643.985 542.008 Q 645.212 541.808 646.524 542.073 Q 647.836 542.338 649.382 543.212 Q 650.927 544.086 652.479 545.742 Q 654.031 547.398 655.002 549.292 Q 655.972 551.186 656.275 552.248 Q 656.578 553.309 656.719 554.102 Q 656.860 554.894 656.908 555.494 Q 656.956 556.093 656.986 559.772 "/>
    <path id="STROKE_bdc8497d-bb29-4365-99a8-cf81fe45c75c" opacity="1.000" fill="none" stroke="#4245a3" stroke-width="5.501" stroke-opacity="1.000" stroke-linecap="round" stroke-linejoin="round" d="M 589.753 514.916 Q 591.595 514.806 600.301 515.215 Q 609.007 515.625 619.788 517.868 Q 630.570 520.111 635.776 521.078 Q 640.983 522.046 643.396 521.794 Q 645.810 521.542 646.756 520.946 Q 646.927 520.797 647.282 519.048 Q 647.637 517.300 647.723 515.650 Q 647.809 514.000 647.942 513.186 Q 648.075 512.372 648.208 511.900 Q 648.340 511.428 648.495 511.047 Q 648.650 510.665 649.737 509.051 Q 650.824 507.438 651.676 506.452 Q 652.527 505.465 653.090 504.836 Q 653.652 504.207 654.047 503.730 Q 654.441 503.254 654.845 502.730 Q 655.249 502.206 655.571 501.743 Q 655.894 501.281 657.817 498.368 "/>
    <path id="STROKE_5053c8db-fe02-4e1b-8202-57dc2f85309b" opacity="1.000" fill="none" stroke="#4245a3" stroke-width="5.069" stroke-opacity="1.000" stroke-linecap="round" stroke-linejoin="round" d="M 592.343 299.390 Q 594.417 300.341 597.703 302.132 Q 600.989 303.924 607.390 308.985 Q 613.792 314.047 619.404 319.619 Q 625.016 325.192 629.049 329.549 Q 633.082 333.906 636.013 337.147 Q 638.945 340.388 643.009 344.711 "/>
    <path id="STROKE_4822dbac-4eb2-4265-b786-ec35846c805a" opacity="1.000" fill="none" stroke="#4245a3" stroke-width="5.977" stroke-opacity="1.000" stroke-linecap="round" stroke-linejoin="round" d="M 590.225 337.713 Q 591.545 336.859 591.975 336.591 Q 592.404 336.323 597.571 333.715 Q 602.737 331.107 606.342 329.661 Q 609.948 328.215 615.815 325.826 Q 621.682 323.438 627.303 320.607 Q 632.923 317.776 638.227 314.303 Q 643.531 310.831 646.406 308.507 Q 649.281 306.183 652.413 303.144 Q 655.544 300.104 658.471 296.519 Q 661.398 292.933 663.747 289.390 L 665.002 287.349 "/>
    <path id="STROKE_2c236e56-f287-44b6-84bf-2942f5ad1ea7" opacity="1.000" fill="none" stroke="#4245a3" stroke-width="5.676" stroke-opacity="1.000" stroke-linecap="round" stroke-linejoin="round" d="M 279.030 610.283 Q 279.644 611.787 280.836 614.217 Q 282.029 616.647 283.265 618.556 Q 284.501 620.465 286.697 622.845 Q 288.893 625.225 291.598 626.956 Q 294.303 628.686 296.058 629.159 Q 297.813 629.631 298.849 629.546 Q 299.884 629.461 300.520 629.195 Q 301.157 628.929 301.602 628.503 Q 302.047 628.078 302.389 627.299 Q 302.730 626.521 302.690 624.874 Q 302.649 623.227 300.145 618.606 Q 297.641 613.985 292.502 608.897 Q 287.363 603.809 283.514 601.081 Q 279.665 598.352 276.800 596.825 Q 273.935 595.297 270.009 593.850 Q 266.082 592.402 260.419 591.400 Q 254.755 590.397 250.943 590.450 Q 250.895 590.465 250.048 590.731 "/>
    <path id="STROKE_0dc0a7fb-cf79-4a1e-98bc-2df1b62e7a49" opacity="1.000" fill="none" stroke="#4245a3" stroke-width="5.000" stroke-opacity="1.000" stroke-linecap="round" stroke-linejoin="round" d="M 283.787 569.994 Q 284.023 570.752 284.513 572.154 Q 285.003 573.556 285.959 575.621 Q 286.914 577.687 288.201 579.509 Q 289.488 581.332 291.182 582.756 Q 292.875 584.180 294.258 584.679 Q 295.641 585.179 296.355 585.122 Q 297.070 585.064 297.501 584.798 Q 297.932 584.532 298.192 583.988 Q 298.453 583.443 298.384 582.253 Q 298.315 581.063 297.287 578.663 Q 296.260 576.263 295.415 574.591 Q 294.570 572.920 293.090 568.247 Q 293.080 568.063 293.370 567.167 Q 293.659 566.272 294.206 565.219 Q 294.753 564.166 295.342 563.223 Q 295.931 562.279 296.725 561.112 Q 297.518 559.945 299.687 556.609 "/>
    <path id="STROKE_b4706bc6-fa2d-47a5-93d2-20122c234774" opacity="1.000" fill="none" stroke="#4245a3" stroke-width="5.000" stroke-opacity="1.000" stroke-linecap="round" stroke-linejoin="round" d="M 253.518 521.608 Q 255.262 522.177 259.536 523.649 Q 263.810 525.121 267.034 526.282 Q 270.257 527.443 277.842 530.115 Q 285.426 532.786 304.937 538.580 L 307.132 539.182 "/>
    <path id="STROKE_e8f951ee-9d51-4dbf-8f72-2524491d4b5c" opacity="1.000" fill="none" stroke="#4245a3" stroke-width="5.000" stroke-opacity="1.000" stroke-linecap="round" stroke-linejoin="round" d="M 274.370 511.851 Q 274.455 512.308 275.303 516.540 Q 276.151 520.772 277.331 527.737 Q 278.511 534.702 279.378 539.138 Q 280.245 543.575 281.571 548.989 "/>
    <path id="STROKE_b4c22c90-106d-4e22-92fc-8476a032d6fc" opacity="1.000" fill="none" stroke="#4245a3" stroke-width="5.000" stroke-opacity="1.000" stroke-linecap="round" stroke-linejoin="round" d="M 300.453 487.743 Q 300.993 488.834 301.419 489.755 Q 301.845 490.677 302.199 491.601 Q 302.552 492.525 303.046 494.308 Q 303.540 496.091 303.663 498.650 Q 303.786 501.208 303.345 503.006 Q 302.903 504.804 302.065 506.217 Q 301.226 507.630 300.231 508.512 Q 299.236 509.394 298.448 509.787 Q 297.660 510.181 296.797 510.399 Q 295.934 510.616 294.796 510.628 Q 293.658 510.640 291.547 509.919 Q 289.435 509.198 287.999 508.147 Q 286.563 507.096 285.321 505.638 Q 284.079 504.181 283.826 503.630 Q 283.573 503.080 283.549 502.936 Q 283.526 502.793 283.578 502.718 Q 283.630 502.644 283.758 502.680 Q 283.887 502.717 284.109 502.968 Q 284.331 503.219 284.922 504.343 Q 285.513 505.468 286.253 507.876 Q 286.992 510.285 287.827 513.829 "/>
    <path id="STROKE_6c569808-6137-4492-a174-6110e54037dd" opacity="1.000" fill="none" stroke="#4245a3" stroke-width="5.000" stroke-opacity="1.000" stroke-linecap="round" stroke-linejoin="round" d="M 269.043 337.347 Q 268.694 338.063 268.483 338.526 Q 268.271 338.990 268.144 339.374 Q 268.016 339.758 267.881 340.347 Q 267.745 340.937 267.597 342.561 Q 267.449 344.184 267.908 346.365 Q 268.366 348.545 269.012 349.658 Q 269.658 350.770 270.093 351.224 Q 270.527 351.678 271.136 352.048 Q 271.746 352.418 272.135 352.490 Q 272.525 352.561 272.856 352.508 Q 273.188 352.454 273.491 352.253 Q 273.794 352.053 274.064 351.654 Q 274.335 351.256 274.626 350.264 Q 274.917 349.273 275.086 346.607 Q 275.255 343.940 275.921 341.791 Q 275.987 341.693 278.977 341.807 Q 281.968 341.921 285.814 343.522 Q 289.659 345.123 293.013 347.004 Q 296.366 348.885 298.433 350.109 "/>
    <path id="STROKE_c7930e7c-9877-49d5-bb32-6f8a1cd1922f" opacity="1.000" fill="none" stroke="#4245a3" stroke-width="6.075" stroke-opacity="1.000" stroke-linecap="round" stroke-linejoin="round" d="M 245.388 305.765 Q 246.276 306.064 253.855 309.056 Q 261.434 312.049 269.178 315.292 Q 276.922 318.536 283.419 321.291 Q 289.917 324.045 297.701 327.397 Q 305.484 330.749 309.877 332.569 Q 314.270 334.388 318.245 335.902 L 319.611 336.260 "/>
    <path id="STROKE_7c68d22c-23f1-40d0-9f32-bf85dc824446" opacity="1.000" fill="none" stroke="#4245a3" stroke-width="5.000" stroke-opacity="1.000" stroke-linecap="round" stroke-linejoin="round" d="M 268.375 292.905 Q 268.635 293.015 271.615 294.447 Q 274.596 295.878 276.585 296.438 Q 278.573 296.999 279.744 297.093 Q 280.914 297.187 282.440 296.941 Q 283.967 296.695 286.468 295.176 Q 288.970 293.657 290.456 292.615 Q 291.942 291.573 292.760 291.183 Q 293.578 290.794 294.122 290.641 Q 294.666 290.489 295.149 290.471 Q 295.632 290.453 296.556 290.720 Q 297.480 290.988 298.570 292.027 Q 299.659 293.066 300.359 294.706 Q 301.059 296.347 301.289 298.069 Q 301.519 299.791 301.351 301.795 Q 301.184 303.800 300.914 304.957 Q 300.644 306.115 299.816 308.289 Q 298.989 310.463 298.314 311.822 Q 297.638 313.181 296.527 315.254 "/>
    <path id="STROKE_24073758-f955-4c01-bdc0-5c7aac6bdec8" opacity="1.000" fill="none" stroke="#4245a3" stroke-width="5.000" stroke-opacity="1.000" stroke-linecap="round" stroke-linejoin="round" d="M 273.963 293.675 Q 273.904 293.462 272.602 289.190 Q 271.300 284.917 269.920 278.562 Q 268.541 272.206 268.099 267.536 Q 267.657 262.867 267.544 256.647 "/>
    <path id="STROKE_d6fd08fb-32b3-47d3-9f82-98497b87c9b0" opacity="1.000" fill="none" stroke="#4245a3" stroke-width="8.733" stroke-opacity="1.000" stroke-linecap="round" stroke-linejoin="round" d="M 232.453 218.019 Q 233.394 218.391 239.957 222.284 Q 246.519 226.176 251.870 229.892 Q 257.221 233.607 259.900 235.529 Q 262.580 237.452 266.952 240.646 Q 271.325 243.840 274.847 246.454 Q 278.369 249.067 285.155 254.128 Q 291.941 259.189 297.365 263.159 Q 302.789 267.128 310.223 272.646 Q 317.657 278.164 324.501 283.888 L 326.079 285.285 "/>
    <path id="STROKE_6ea0e39b-47ea-402b-b051-8e0bcf9c5fdb" opacity="1.000" fill="none" stroke="#4245a3" stroke-width="5.000" stroke-opacity="1.000" stroke-linecap="round" stroke-linejoin="round" d="M 264.596 217.286 Q 265.451 217.417 268.784 218.030 Q 272.116 218.643 276.766 219.874 Q 281.415 221.104 284.442 222.139 Q 287.469 223.174 292.020 225.274 Q 296.571 227.374 298.362 228.615 L 299.736 229.999 "/>
    <path id="STROKE_6f7dd21c-d8f3-4927-88ce-9e52a0a1a596" opacity="1.000" fill="none" stroke="#4245a3" stroke-width="5.000" stroke-opacity="1.000" stroke-linecap="round" stroke-linejoin="round" d="M 266.404 174.921 Q 266.547 176.389 266.687 177.463 Q 266.827 178.538 267.359 180.921 Q 267.891 183.304 269.417 186.629 Q 270.943 189.955 272.164 191.348 Q 273.385 192.741 274.014 193.198 Q 274.643 193.654 275.462 193.991 Q 276.281 194.328 276.902 194.367 Q 277.524 194.407 278.060 194.260 Q 278.596 194.114 279.143 193.640 Q 279.689 193.166 280.269 191.717 Q 280.848 190.267 280.736 187.561 Q 280.624 184.855 279.747 181.776 Q 278.871 178.697 278.448 177.281 Q 278.026 175.866 277.994 175.275 Q 277.962 174.685 277.964 174.682 Q 277.967 174.679 281.478 175.636 Q 284.989 176.593 291.114 179.068 Q 297.239 181.543 302.039 183.248 Q 306.841 184.953 311.482 186.510 L 314.333 187.524 "/>
    <path id="STROKE_3f31ddca-4e82-4ee1-9cce-c69c8453bfe1" opacity="1.000" fill="none" stroke="#4245a3" stroke-width="5.000" stroke-opacity="1.000" stroke-linecap="round" stroke-linejoin="round" d="M 720.180 640.570 Q 720.720 640.840 725.138 642.397 Q 729.556 643.954 736.730 645.941 Q 743.904 647.927 748.287 648.952 Q 752.670 649.977 758.021 651.077 Q 763.372 652.177 765.562 652.363 Q 767.752 652.549 767.004 651.997 Q 766.255 651.445 765.365 650.870 Q 764.474 650.294 762.385 648.852 Q 760.297 647.409 758.854 646.250 Q 757.412 645.090 755.046 642.494 Q 752.680 639.898 751.671 637.991 Q 750.662 636.085 750.344 634.770 Q 750.026 633.456 750.049 632.163 Q 750.072 630.871 750.319 629.983 Q 750.567 629.095 751.291 627.987 Q 752.016 626.878 753.483 625.886 Q 754.950 624.894 755.994 624.608 Q 757.038 624.323 758.995 624.336 Q 760.951 624.349 763.275 625.206 Q 765.599 626.063 768.541 628.588 Q 771.482 631.113 772.720 632.880 Q 773.958 634.646 775.120 637.186 Q 776.282 639.727 776.833 642.532 Q 777.383 645.338 777.204 647.483 Q 777.026 649.628 776.618 650.814 Q 776.211 652.000 775.717 652.808 Q 775.223 653.617 774.662 654.254 Q 774.101 654.892 773.275 655.531 Q 772.449 656.171 770.536 657.533 "/>
    <path id="STROKE_72f82da2-d543-426f-b012-109109ec17a6" opacity="1.000" fill="none" stroke="#4245a3" stroke-width="5.241" stroke-opacity="1.000" stroke-linecap="round" stroke-linejoin="round" d="M 755.255 601.258 Q 755.970 601.510 764.531 604.480 Q 773.093 607.451 778.051 609.128 Q 783.008 610.806 786.972 612.130 Q 790.936 613.455 797.091 615.337 Q 803.247 617.218 806.215 617.858 Q 809.182 618.497 811.657 618.416 Q 811.727 618.355 811.249 617.733 Q 810.771 617.112 809.701 616.243 "/>
    <path id="STROKE_5a72f056-b199-4dcd-a335-7e404ab2919a" opacity="1.000" fill="none" stroke="#4245a3" stroke-width="5.000" stroke-opacity="1.000" stroke-linecap="round" stroke-linejoin="round" d="M 759.768 603.957 Q 758.063 602.306 757.553 601.728 Q 757.043 601.150 756.118 600.003 Q 755.193 598.855 753.675 596.090 Q 752.157 593.324 751.547 591.131 Q 750.938 588.937 750.811 587.361 Q 750.685 585.785 750.906 583.924 Q 751.128 582.063 751.675 580.608 Q 752.223 579.154 753.061 577.978 Q 753.900 576.802 755.087 575.853 Q 756.274 574.904 758.318 574.215 Q 760.362 573.527 762.249 573.527 Q 764.136 573.526 766.644 574.302 Q 769.153 575.077 772.133 577.128 Q 775.113 579.178 776.614 580.806 Q 778.115 582.434 779.912 585.419 Q 781.709 588.405 782.599 591.373 Q 783.490 594.341 783.559 597.052 Q 783.628 599.762 783.236 601.488 Q 782.843 603.214 782.331 604.357 Q 781.818 605.499 781.247 606.388 Q 780.676 607.276 780.154 607.877 Q 779.633 608.478 777.004 611.016 "/>
    <path id="STROKE_bbea1cd9-9f2a-4af7-9686-72005f9056e5" opacity="1.000" fill="none" stroke="#4245a3" stroke-width="5.000" stroke-opacity="1.000" stroke-linecap="round" stroke-linejoin="round" d="M 723.895 441.531 L 724.704 441.416 Q 730.838 441.878 734.501 442.362 Q 738.165 442.847 746.008 444.154 Q 753.851 445.462 760.148 446.389 Q 766.445 447.317 775.187 448.248 L 778.144 448.480 "/>
    <path id="STROKE_53ee661d-c75b-4045-9c91-4add1a8d7ce8" opacity="1.000" fill="none" stroke="#4245a3" stroke-width="5.002" stroke-opacity="1.000" stroke-linecap="round" stroke-linejoin="round" d="M 714.169 407.568 Q 714.468 407.720 720.324 410.896 Q 726.180 414.071 729.560 415.795 Q 732.941 417.518 735.918 418.868 Q 738.895 420.219 740.337 420.801 Q 741.779 421.384 743.862 422.126 Q 745.946 422.869 748.607 423.623 Q 751.269 424.377 753.635 424.840 Q 756.002 425.302 759.048 425.521 Q 762.095 425.740 765.114 425.412 Q 768.133 425.085 770.565 424.150 Q 772.996 423.214 774.368 422.171 Q 775.739 421.129 776.524 420.078 Q 777.308 419.028 777.773 417.792 Q 778.239 416.555 778.284 414.830 Q 778.330 413.105 777.386 410.735 Q 776.441 408.365 774.582 406.548 Q 772.723 404.731 771.332 404.186 Q 769.941 403.641 769.030 403.650 Q 768.119 403.658 767.606 403.819 Q 767.093 403.981 766.680 404.230 Q 766.268 404.480 765.488 405.451 Q 764.708 406.423 764.026 409.869 Q 763.343 413.316 763.606 416.504 Q 763.868 419.691 764.883 424.934 "/>
    <path id="STROKE_564940b7-3eda-4682-b4cb-e9beddb6ff26" opacity="1.000" fill="none" stroke="#4245a3" stroke-width="5.579" stroke-opacity="1.000" stroke-linecap="round" stroke-linejoin="round" d="M 727.316 374.888 Q 729.415 370.399 730.335 368.869 Q 731.255 367.339 732.127 366.266 Q 732.999 365.192 734.196 364.149 Q 735.393 363.107 737.650 361.961 Q 739.908 360.816 744.729 360.208 Q 749.549 359.601 753.710 360.306 Q 757.872 361.011 762.307 362.790 Q 766.743 364.570 770.214 366.811 Q 773.685 369.051 775.903 371.139 Q 778.121 373.228 779.738 375.540 Q 781.356 377.852 782.098 379.736 Q 782.840 381.619 783.060 383.463 Q 783.280 385.308 783.128 386.538 Q 782.976 387.767 782.672 388.696 Q 782.369 389.624 781.445 391.119 Q 780.521 392.614 778.784 394.074 Q 777.046 395.533 774.061 396.663 Q 771.075 397.792 767.374 398.011 Q 763.673 398.230 759.506 397.406 Q 755.340 396.581 750.910 394.561 Q 746.479 392.542 743.847 390.683 Q 741.214 388.825 738.818 386.427 Q 736.421 384.030 735.108 382.130 Q 733.796 380.230 732.979 378.530 Q 732.162 376.831 731.777 375.711 Q 731.391 374.590 731.094 373.287 Q 730.796 371.984 730.264 369.136 "/>
    <path id="STROKE_b6739076-fbbe-46ce-80d4-ee38d198587d" opacity="1.000" fill="none" stroke="#4245a3" stroke-width="7.626" stroke-opacity="1.000" stroke-linecap="round" stroke-linejoin="round" d="M 705.583 296.227 Q 708.148 296.827 712.734 298.431 Q 717.320 300.036 720.083 301.391 Q 722.847 302.745 726.643 304.982 Q 730.440 307.218 737.390 311.790 Q 744.340 316.362 746.208 317.600 Q 748.075 318.838 759.998 326.620 Q 771.921 334.402 777.675 338.060 Q 783.430 341.718 790.428 345.928 Q 797.426 350.138 802.984 352.704 Q 808.543 355.269 811.288 355.885 Q 814.034 356.500 815.038 356.554 Q 816.042 356.609 816.784 356.599 Q 817.293 356.526 818.970 356.276 "/>
    <path id="STROKE_637eba56-83ca-46cc-831b-ae950c380476" opacity="1.000" fill="none" stroke="#4245a3" stroke-width="5.042" stroke-opacity="1.000" stroke-linecap="round" stroke-linejoin="round" d="M 730.313 283.001 L 732.098 282.663 Q 732.940 282.542 735.047 282.417 Q 737.153 282.292 748.407 284.720 Q 759.661 287.148 766.411 289.174 Q 773.162 291.200 776.175 291.981 Q 779.187 292.762 781.796 293.311 Q 784.404 293.861 786.229 294.160 Q 788.055 294.460 789.768 294.664 Q 791.481 294.868 795.169 295.238 "/>
    <path id="STROKE_dce1c909-ceef-426a-844f-54fcf83729d1" opacity="1.000" fill="none" stroke="#4245a3" stroke-width="5.000" stroke-opacity="1.000" stroke-linecap="round" stroke-linejoin="round" d="M 733.474 247.365 Q 734.573 245.571 735.789 243.811 Q 737.005 242.051 738.672 240.216 Q 740.339 238.381 741.194 237.688 Q 742.049 236.996 743.219 236.317 Q 744.388 235.638 746.838 234.967 Q 749.289 234.297 752.883 234.649 Q 756.477 235.002 758.402 235.688 Q 760.327 236.375 762.574 237.575 Q 764.821 238.774 768.257 241.536 Q 771.693 244.298 773.557 246.597 Q 775.421 248.896 776.485 251.068 Q 777.548 253.239 777.841 254.913 Q 778.135 256.587 778.012 257.760 Q 777.889 258.933 777.551 259.844 Q 777.212 260.755 776.462 261.769 Q 775.711 262.783 774.311 263.793 Q 772.912 264.804 769.967 265.635 Q 767.023 266.466 762.912 266.289 Q 758.800 266.112 754.421 264.706 Q 750.042 263.299 747.232 261.663 Q 744.422 260.028 742.058 257.909 Q 739.695 255.791 738.505 254.201 Q 737.314 252.612 736.601 251.229 Q 735.888 249.846 735.374 248.255 Q 734.860 246.664 734.699 245.525 Q 734.538 244.385 734.191 241.247 "/>
    <path id="STROKE_a0fdd04a-329b-4c36-87dd-d5a3e27423c0" opacity="1.000" fill="none" stroke="#4245a3" stroke-width="5.294" stroke-opacity="1.000" stroke-linecap="round" stroke-linejoin="round" d="M 743.363 208.481 Q 743.155 204.034 743.268 202.616 Q 743.382 201.197 743.618 200.199 Q 743.854 199.200 744.241 198.317 Q 744.629 197.434 745.037 196.814 Q 745.445 196.194 746.422 195.221 Q 747.399 194.248 749.504 193.181 Q 751.609 192.114 753.130 191.780 Q 754.651 191.446 757.594 191.426 Q 760.537 191.407 762.329 191.715 Q 764.121 192.023 766.978 192.997 Q 769.834 193.970 771.302 194.706 Q 772.769 195.442 775.391 197.256 Q 778.013 199.070 780.377 201.566 Q 782.742 204.063 783.995 206.283 Q 785.249 208.504 785.697 210.244 Q 786.145 211.983 786.147 213.161 Q 786.148 214.339 785.858 215.532 Q 785.567 216.724 784.763 217.987 Q 783.958 219.249 782.698 220.201 Q 781.438 221.153 780.097 221.654 Q 778.756 222.154 776.505 222.361 Q 774.254 222.569 770.550 221.781 Q 766.845 220.994 763.403 219.323 Q 759.961 217.653 756.239 214.899 Q 752.518 212.146 748.290 207.883 Q 744.062 203.620 741.732 200.759 Q 739.403 197.898 738.184 196.215 Q 736.966 194.532 734.354 190.687 "/>
  </g>
</svg>