<?xml version="1.0" encoding="utf-8"?>
<svg width="5.072408in" height="6.928949in" version="1.1" viewBox="568.864 307.292 467.923 525.107" xmlns="http://www.w3.org/2000/svg">
  <title>Untitled 5</title>
  <desc>Drawing exported from Concepts: Smarter Sketching</desc>
  <g id="Pen" opacity="1.000" transform="matrix(0, 1, -1, 0, 1221.666992, 39.472008)">
    <path id="STROKE_a6d6e993-6218-4984-b596-ccae4f3370e5" opacity="0.680" fill="none" stroke="#149265" stroke-width="3.360" stroke-opacity="1.000" stroke-linecap="round" stroke-linejoin="round" d="M 267.820 191.318 Q 268.685 251.993 268.964 271.440 Q 269.243 290.887 269.790 329.758 Q 270.336 368.630 270.614 388.086 Q 270.891 407.543 271.241 431.846 Q 271.590 456.150 272.223 499.893 Q 272.855 543.636 273.107 560.652 Q 273.359 577.668 273.598 594.655 Q 273.837 611.642 274.115 633.412 "/>
    <path id="STROKE_db73320b-3105-484c-a6a8-8fac5041fd99" opacity="0.680" fill="none" stroke="#149265" stroke-width="2.880" stroke-opacity="1.000" stroke-linecap="round" stroke-linejoin="round" d="M 276.095 636.990 Q 303.389 636.530 318.247 636.286 Q 333.105 636.042 352.946 635.729 Q 372.786 635.417 397.612 635.033 Q 422.438 634.649 434.822 634.454 Q 447.206 634.259 464.549 633.977 Q 481.891 633.696 511.686 633.199 Q 541.481 632.702 558.824 632.420 Q 576.167 632.138 608.397 631.629 Q 640.627 631.120 660.482 630.810 Q 680.337 630.500 702.647 630.145 Q 724.958 629.790 747.283 629.427 "/>
    <path id="STROKE_3d10f7a7-df54-4f77-90be-9c51da0eb314" opacity="0.680" fill="none" stroke="#149265" stroke-width="2.414" stroke-opacity="1.000" stroke-linecap="round" stroke-linejoin="round" d="M 272.260 186.677 Q 289.018 186.941 301.062 187.114 Q 313.106 187.286 325.154 187.472 Q 337.201 187.657 351.672 187.884 Q 366.144 188.112 383.001 188.372 Q 399.857 188.633 421.559 188.979 Q 443.261 189.325 486.622 190.040 Q 529.983 190.754 556.499 191.186 Q 583.014 191.617 609.520 192.040 Q 636.025 192.462 664.940 192.914 Q 693.855 193.366 705.938 193.553 Q 718.022 193.740 732.430 193.948 Q 746.838 194.157 763.624 194.427 "/>
    <path id="STROKE_96b3886a-9583-4a02-a835-f8050f4b185c" opacity="0.680" fill="none" stroke="#149265" stroke-width="8.408" stroke-opacity="1.000" stroke-linecap="round" stroke-linejoin="round" d="M 769.146 198.656 Q 769.106 200.972 769.013 205.633 Q 769.016 205.641 768.857 212.741 Q 768.699 219.841 768.590 224.579 Q 768.481 229.316 768.373 234.063 Q 768.264 238.809 768.057 248.280 Q 767.850 257.752 767.754 262.498 Q 767.657 267.244 767.417 279.078 Q 767.177 290.912 766.978 300.376 Q 766.779 309.839 766.730 312.230 Q 766.681 314.621 766.535 321.732 Q 766.388 328.843 766.245 335.950 Q 766.102 343.056 766.008 347.793 Q 765.914 352.529 765.684 364.360 Q 765.453 376.191 765.358 380.956 Q 765.263 385.720 765.116 392.819 Q 764.970 399.919 764.770 409.400 Q 764.571 418.882 764.375 428.356 Q 764.179 437.830 764.038 444.926 Q 763.898 452.023 763.850 454.401 Q 763.802 456.779 763.616 466.263 Q 763.430 475.748 763.238 485.214 Q 763.045 494.680 762.848 504.172 Q 762.650 513.664 762.553 518.413 Q 762.456 523.163 762.407 525.535 Q 762.357 527.907 762.163 537.364 Q 761.968 546.820 761.776 556.300 Q 761.584 565.781 761.485 570.529 Q 761.386 575.276 761.333 577.663 Q 761.280 580.050 761.228 582.427 Q 761.175 584.804 760.963 594.256 Q 760.752 603.708 760.698 606.095 Q 760.644 608.483 760.592 610.861 Q 760.540 613.240 760.489 615.597 Q 760.439 617.954 760.389 620.297 Q 760.339 622.641 760.343 622.655 Q 760.347 622.669 760.204 629.594 "/>
    <path id="STROKE_3827cdcb-0b52-43a2-9ef6-574060f13eb5" opacity="0.680" fill="none" stroke="#149265" stroke-width="3.083" stroke-opacity="1.000" stroke-linecap="round" stroke-linejoin="round" d="M 278.408 532.427 Q 280.770 532.412 326.862 532.174 Q 372.955 531.936 392.399 531.835 Q 411.843 531.734 431.261 531.642 Q 450.680 531.550 467.679 531.477 Q 484.678 531.404 513.803 531.300 Q 542.927 531.195 562.344 531.109 Q 581.761 531.023 603.607 530.916 Q 625.452 530.808 664.301 530.601 Q 703.149 530.394 724.986 530.282 Q 746.823 530.169 758.872 530.099 "/>
    <path id="STROKE_8fae2853-169d-44d9-81e5-085fa87da8ba" opacity="0.680" fill="none" stroke="#149265" stroke-width="3.130" stroke-opacity="1.000" stroke-linecap="round" stroke-linejoin="round" d="M 268.153 421.959 Q 344.542 421.716 376.643 421.627 Q 408.743 421.538 418.602 421.508 Q 428.460 421.477 472.839 421.324 Q 517.217 421.171 561.606 421.013 Q 605.995 420.855 625.739 420.796 Q 645.483 420.738 665.198 420.684 Q 684.914 420.631 702.199 420.579 Q 719.485 420.527 763.189 420.373 L 766.292 420.365 "/>
    <path id="STROKE_2cdc8cdb-f8dd-49b5-a43e-934438ce02d5" opacity="0.680" fill="none" stroke="#149265" stroke-width="2.867" stroke-opacity="1.000" stroke-linecap="round" stroke-linejoin="round" d="M 272.843 303.584 Q 279.941 303.782 289.513 304.033 Q 299.085 304.284 308.710 304.539 Q 318.334 304.794 344.736 305.485 Q 371.138 306.177 387.948 306.629 Q 404.759 307.082 443.196 308.136 Q 481.634 309.190 500.858 309.720 Q 520.081 310.251 541.705 310.841 Q 563.329 311.430 584.931 312.015 Q 606.534 312.599 630.540 313.251 Q 654.546 313.903 668.988 314.286 Q 683.429 314.670 702.616 315.172 Q 721.802 315.674 733.830 315.991 Q 745.857 316.308 750.651 316.438 Q 755.445 316.569 767.335 316.912 "/>
    <path id="STROKE_1492fdff-a47b-4114-9cb3-d07349e386c1" opacity="0.680" fill="none" stroke="#149265" stroke-width="3.008" stroke-opacity="1.000" stroke-linecap="round" stroke-linejoin="round" d="M 320.596 194.568 Q 320.730 211.724 320.782 219.095 Q 320.834 226.466 320.908 236.297 Q 320.983 246.129 321.131 268.271 Q 321.278 290.412 321.364 305.143 Q 321.450 319.875 321.515 332.164 Q 321.580 344.453 321.724 369.056 Q 321.869 393.659 322.056 428.076 Q 322.243 462.494 322.298 472.322 Q 322.354 482.151 322.406 491.993 Q 322.458 501.836 322.528 514.120 Q 322.598 526.404 322.710 543.620 Q 322.822 560.835 322.857 565.752 Q 322.892 570.668 322.990 582.952 Q 323.088 595.236 323.338 628.867 L 323.368 632.084 "/>
    <path id="STROKE_76e796c8-28cf-4205-b37b-4720359368fc" opacity="0.680" fill="none" stroke="#149265" stroke-width="3.390" stroke-opacity="1.000" stroke-linecap="round" stroke-linejoin="round" d="M 389.317 186.802 Q 388.837 199.039 388.122 216.197 Q 387.407 233.355 387.013 243.175 Q 386.618 252.995 386.121 265.259 Q 385.624 277.523 384.204 311.842 Q 382.784 346.161 381.976 365.801 Q 381.169 385.441 380.267 407.513 Q 379.365 429.586 377.650 471.310 Q 375.934 513.034 375.231 530.206 Q 374.528 547.378 374.031 559.639 Q 373.535 571.901 373.232 579.253 Q 372.929 586.605 372.316 601.302 Q 371.704 615.999 371.245 628.240 "/>
    <path id="STROKE_46237f2f-9a68-44d1-a1a7-6435a02c9f3e" opacity="0.680" fill="none" stroke="#149265" stroke-width="5.316" stroke-opacity="1.000" stroke-linecap="round" stroke-linejoin="round" d="M 467.334 197.224 Q 466.976 204.177 466.727 208.926 Q 466.477 213.675 465.880 225.537 Q 465.284 237.399 464.695 249.247 Q 464.106 261.095 463.753 268.243 Q 463.401 275.391 462.093 301.466 Q 460.786 327.541 460.194 339.404 Q 459.601 351.266 458.553 372.630 Q 457.505 393.994 456.235 420.088 Q 454.966 446.181 454.035 465.163 Q 453.104 484.144 452.869 488.881 Q 452.633 493.619 451.083 524.490 Q 449.532 555.362 448.827 569.591 Q 448.121 583.820 447.283 600.433 Q 446.445 617.046 445.973 626.022 Q 445.502 634.999 445.344 638.193 "/>
    <path id="STROKE_2579169e-1765-4bb4-a978-cc3683c8f999" opacity="0.680" fill="none" stroke="#149265" stroke-width="4.869" stroke-opacity="1.000" stroke-linecap="round" stroke-linejoin="round" d="M 539.703 184.880 Q 539.599 191.780 539.507 196.426 Q 539.414 201.071 539.190 212.805 Q 538.965 224.538 538.056 271.447 Q 537.146 318.356 537.013 325.385 Q 536.881 332.413 536.546 351.188 Q 536.212 369.962 535.613 402.795 Q 535.013 435.628 534.586 459.078 Q 534.159 482.528 534.027 489.572 Q 533.894 496.616 533.439 520.050 Q 532.983 543.484 532.486 569.316 Q 531.989 595.147 531.691 611.532 Q 531.392 627.916 531.352 630.223 Q 531.311 632.529 531.219 639.459 "/>
    <path id="STROKE_d19c28ac-dee2-45fd-9acf-8eb424309eac" opacity="0.680" fill="none" stroke="#149265" stroke-width="3.936" stroke-opacity="1.000" stroke-linecap="round" stroke-linejoin="round" d="M 608.486 188.662 Q 608.457 190.906 608.382 197.736 Q 608.308 204.565 608.129 218.404 Q 607.950 232.242 607.721 248.374 Q 607.492 264.506 607.110 292.158 Q 606.727 319.810 606.540 333.635 Q 606.353 347.459 606.057 370.511 Q 605.761 393.564 605.472 416.640 Q 605.184 439.716 604.972 455.853 Q 604.759 471.991 604.534 488.138 Q 604.310 504.286 603.872 534.254 Q 603.434 564.222 603.303 573.442 Q 603.173 582.662 602.970 598.794 Q 602.768 614.925 602.684 623.802 L 602.608 630.755 "/>
    <path id="STROKE_d1d21eff-3089-4cd9-9df9-96e54b52a156" opacity="0.680" fill="none" stroke="#149265" stroke-width="6.158" stroke-opacity="1.000" stroke-linecap="round" stroke-linejoin="round" d="M 691.464 197.552 Q 690.693 219.212 689.908 240.960 Q 689.123 262.708 688.186 289.285 Q 687.248 315.862 686.821 327.928 Q 686.393 339.994 685.877 354.515 Q 685.360 369.035 683.677 417.387 Q 681.994 465.739 681.231 487.487 Q 680.468 509.235 679.792 528.567 Q 679.115 547.899 678.943 552.726 Q 678.771 557.553 678.236 572.062 Q 677.701 586.570 677.340 596.223 Q 676.979 605.875 676.713 613.055 Q 676.447 620.235 676.165 627.568 "/>
  </g>
  <g id="New_Layer_1" opacity="1.000" transform="matrix(0, 1, -1, 0, 1221.666992, 39.472008)">
    <path id="STROKE_730e5ace-b310-4157-98d8-a288f353aceb" opacity="0.680" fill="none" stroke="#149265" stroke-width="3.172" stroke-opacity="1.000" stroke-linecap="round" stroke-linejoin="round" d="M 298.265 615.920 L 298.094 616.136 Q 297.824 616.547 297.656 617.154 Q 297.489 617.762 297.546 618.760 Q 297.602 619.759 297.869 620.448 Q 298.136 621.137 299.744 622.658 Q 301.352 624.179 303.819 624.753 Q 306.286 625.327 307.752 625.060 Q 309.218 624.792 310.252 624.181 Q 311.286 623.570 312.477 621.878 Q 313.667 620.185 314.261 618.036 Q 314.855 615.887 314.933 615.060 Q 315.011 614.232 314.817 612.167 Q 314.567 611.575 314.045 610.189 "/>
    <path id="STROKE_9653c273-871c-494e-9d32-4b0594b2ecb4" opacity="0.680" fill="none" stroke="#149265" stroke-width="1.908" stroke-opacity="1.000" stroke-linecap="round" stroke-linejoin="round" d="M 298.715 604.340 Q 299.116 602.779 299.288 602.331 Q 299.460 601.883 300.350 600.542 Q 301.240 599.200 302.739 598.275 Q 304.239 597.349 305.316 597.142 Q 306.393 596.934 307.117 596.948 Q 307.840 596.961 308.318 597.061 Q 308.796 597.161 309.477 597.443 Q 310.158 597.724 310.570 598.044 Q 310.983 598.363 311.594 599.241 Q 312.205 600.118 312.324 600.494 Q 312.443 600.869 312.444 601.289 Q 312.445 601.708 312.399 601.916 Q 312.353 602.123 311.968 602.815 Q 311.584 603.506 311.137 603.932 Q 310.689 604.359 310.359 604.573 Q 310.028 604.787 309.338 605.069 Q 308.648 605.350 307.027 605.494 Q 305.406 605.638 304.568 605.497 Q 303.730 605.357 303.191 605.179 Q 302.652 605.000 301.916 604.625 Q 301.179 604.250 300.352 603.448 L 299.321 602.288 "/>
    <path id="STROKE_80affc2c-6e0a-4310-bca4-10a98288974e" opacity="0.680" fill="none" stroke="#149265" stroke-width="3.156" stroke-opacity="1.000" stroke-linecap="round" stroke-linejoin="round" d="M 301.941 578.322 Q 301.359 578.726 301.089 578.955 Q 300.820 579.185 300.521 579.533 Q 300.223 579.880 299.956 580.321 Q 299.688 580.762 299.526 581.565 Q 299.363 582.368 299.454 582.768 Q 299.546 583.168 299.676 583.381 Q 299.806 583.594 300.004 583.769 Q 300.202 583.943 300.850 584.176 Q 301.498 584.410 302.354 584.345 Q 303.209 584.280 304.128 584.006 Q 305.047 583.732 306.644 583.176 Q 308.241 582.620 308.893 582.500 Q 309.545 582.381 309.902 582.410 Q 310.258 582.439 310.446 582.491 Q 310.635 582.543 310.994 583.012 Q 311.353 583.481 311.476 584.603 Q 311.600 585.725 311.390 586.552 Q 311.179 587.379 310.252 589.022 "/>
    <path id="STROKE_cc88b37e-a7df-4a2f-866d-682b387916fd" opacity="0.680" fill="none" stroke="#149265" stroke-width="2.879" stroke-opacity="1.000" stroke-linecap="round" stroke-linejoin="round" d="M 287.393 562.887 Q 288.186 562.883 292.332 563.125 Q 296.478 563.368 300.167 563.472 Q 303.856 563.576 306.758 563.623 Q 309.660 563.670 310.803 563.691 Q 311.946 563.711 312.632 563.807 Q 313.318 563.902 314.925 564.074 "/>
    <path id="STROKE_6666a12e-79b8-4c00-8d77-e70778fa4e72" opacity="0.680" fill="none" stroke="#149265" stroke-width="2.800" stroke-opacity="1.000" stroke-linecap="round" stroke-linejoin="round" d="M 296.036 555.734 Q 295.992 556.017 295.357 570.693 L 295.411 572.473 "/>
    <path id="STROKE_dad677ca-ed14-431f-b04b-499e6fdffbac" opacity="0.680" fill="none" stroke="#149265" stroke-width="2.329" stroke-opacity="1.000" stroke-linecap="round" stroke-linejoin="round" d="M 295.352 543.099 Q 295.905 543.620 296.125 543.887 Q 296.345 544.154 297.377 545.584 Q 298.408 547.014 299.127 547.749 Q 299.846 548.483 300.215 548.700 Q 300.585 548.917 301.215 549.070 Q 301.845 549.223 302.377 549.216 Q 302.910 549.209 303.640 549.091 Q 304.369 548.973 305.386 548.772 Q 306.403 548.570 306.937 548.539 Q 307.470 548.508 307.975 548.618 Q 308.481 548.728 308.677 548.833 Q 308.873 548.938 309.514 549.958 Q 310.154 550.977 310.065 553.657 Q 309.975 556.337 309.567 558.343 "/>
    <path id="STROKE_e04a1a44-bd6a-4deb-b62a-069ad55b67e8" opacity="0.680" fill="none" stroke="#149265" stroke-width="2.326" stroke-opacity="1.000" stroke-linecap="round" stroke-linejoin="round" d="M 291.695 507.611 Q 291.125 507.917 290.615 508.445 Q 290.517 508.810 290.502 509.078 Q 290.487 509.345 290.525 509.586 Q 290.564 509.827 290.784 510.319 Q 291.005 510.812 291.473 511.305 Q 291.940 511.797 292.730 512.095 Q 293.520 512.392 294.067 512.408 Q 294.615 512.425 295.272 512.317 Q 295.929 512.209 299.825 510.531 Q 303.722 508.853 304.082 508.779 Q 304.442 508.704 305.167 508.704 Q 305.893 508.703 306.414 508.938 Q 306.936 509.173 307.287 509.571 Q 307.638 509.968 307.864 510.848 Q 308.091 511.728 308.052 512.256 Q 308.013 512.784 307.484 514.047 Q 306.956 515.311 305.869 516.428 Q 304.783 517.544 301.805 519.133 "/>
    <path id="STROKE_388b4423-3971-4f59-b423-55a644ebd60c" opacity="0.680" fill="none" stroke="#149265" stroke-width="2.289" stroke-opacity="1.000" stroke-linecap="round" stroke-linejoin="round" d="M 287.648 511.716 Q 288.015 511.672 295.079 511.050 Q 302.143 510.428 305.134 509.973 Q 308.125 509.519 309.078 509.356 "/>
    <path id="STROKE_ce1baf6b-0740-4045-9f8f-866b05969b4e" opacity="0.680" fill="none" stroke="#149265" stroke-width="2.225" stroke-opacity="1.000" stroke-linecap="round" stroke-linejoin="round" d="M 297.033 496.281 Q 296.992 496.110 296.604 495.353 Q 296.217 494.595 296.114 494.262 Q 296.011 493.928 295.968 493.448 Q 295.926 492.969 295.978 492.707 Q 296.029 492.446 296.111 492.259 Q 296.193 492.073 297.060 491.535 Q 297.927 490.996 301.379 490.886 Q 304.831 490.776 309.189 490.016 Q 309.449 489.875 309.947 488.500 Q 310.446 487.126 310.582 485.876 Q 310.718 484.626 310.919 483.238 Q 311.119 481.850 311.284 481.285 Q 311.449 480.719 311.875 478.984 "/>
    <path id="STROKE_8575a61b-ed71-406f-9348-5d423d603bfc" opacity="0.680" fill="none" stroke="#149265" stroke-width="2.306" stroke-opacity="1.000" stroke-linecap="round" stroke-linejoin="round" d="M 294.668 477.298 Q 294.671 476.999 294.572 474.421 Q 294.472 471.843 294.706 470.723 Q 294.940 469.604 295.155 469.178 Q 295.370 468.752 295.656 468.410 Q 295.943 468.068 296.806 467.699 Q 297.670 467.330 298.530 467.268 Q 299.391 467.206 301.410 467.590 Q 303.430 467.975 305.587 468.499 Q 307.743 469.024 308.895 469.030 Q 310.047 469.036 310.628 468.817 Q 311.208 468.598 311.841 467.583 Q 312.474 466.568 311.932 462.149 Q 311.390 457.730 310.819 455.707 "/>
    <path id="STROKE_43cf8b4c-0ba1-4a6f-b5a5-f66934ff6673" opacity="0.680" fill="none" stroke="#149265" stroke-width="2.145" stroke-opacity="1.000" stroke-linecap="round" stroke-linejoin="round" d="M 288.528 387.298 L 288.480 387.515 Q 288.405 387.773 288.559 388.829 Q 288.714 389.885 289.268 390.952 Q 289.821 392.018 290.549 392.672 Q 291.276 393.327 292.139 393.680 Q 293.002 394.033 293.593 394.061 Q 294.184 394.089 295.004 393.816 Q 295.825 393.542 296.607 393.090 Q 297.389 392.638 299.033 391.502 Q 300.677 390.365 302.236 389.677 Q 303.796 388.988 305.512 389.293 Q 305.750 389.487 306.175 390.427 Q 306.599 391.367 306.485 392.525 Q 306.370 393.682 305.691 394.859 Q 305.012 396.037 304.497 396.555 Q 303.983 397.074 301.805 398.555 "/>
    <path id="STROKE_00a8d5b6-cb2f-4286-84a3-e0f00e74b59d" opacity="0.680" fill="none" stroke="#149265" stroke-width="2.939" stroke-opacity="1.000" stroke-linecap="round" stroke-linejoin="round" d="M 284.421 390.596 Q 285.694 390.722 291.003 391.263 Q 296.313 391.805 300.438 391.725 Q 304.563 391.645 306.303 391.280 Q 308.042 390.916 309.969 389.974 L 311.757 388.720 "/>
    <path id="STROKE_351da969-497a-4d06-ade4-a250928870d3" opacity="0.680" fill="none" stroke="#149265" stroke-width="2.197" stroke-opacity="1.000" stroke-linecap="round" stroke-linejoin="round" d="M 290.385 367.568 Q 290.855 367.538 297.224 367.858 Q 303.592 368.179 312.622 368.348 L 313.556 368.242 "/>
    <path id="STROKE_252bccbc-6038-4d88-b317-4f80e6d3a6e2" opacity="0.680" fill="none" stroke="#149265" stroke-width="1.729" stroke-opacity="1.000" stroke-linecap="round" stroke-linejoin="round" d="M 291.558 352.250 Q 293.174 348.317 293.852 347.421 Q 294.530 346.525 294.911 346.231 Q 295.291 345.938 296.872 345.331 Q 298.453 344.724 300.713 344.840 Q 302.973 344.957 304.723 345.887 Q 306.473 346.817 307.159 347.663 Q 307.846 348.509 308.052 349.487 Q 308.257 350.466 308.138 351.022 Q 308.019 351.579 307.588 352.188 Q 307.157 352.797 305.628 353.563 Q 304.099 354.328 300.520 354.020 Q 296.942 353.711 294.929 352.729 Q 292.916 351.747 291.011 350.565 "/>
    <path id="STROKE_7c23df9d-c197-4bd8-bba6-3f10fa64ccc5" opacity="0.680" fill="none" stroke="#149265" stroke-width="1.935" stroke-opacity="1.000" stroke-linecap="round" stroke-linejoin="round" d="M 284.597 277.435 Q 284.633 277.576 285.117 278.998 Q 285.600 280.420 286.227 281.483 Q 286.853 282.546 288.008 283.350 Q 289.164 284.155 290.736 283.529 Q 292.307 282.904 293.730 282.085 Q 295.153 281.266 295.995 280.958 Q 296.837 280.650 297.399 280.630 Q 297.961 280.610 298.243 280.774 Q 298.524 280.938 298.905 281.807 Q 299.286 282.676 299.185 283.363 Q 299.084 284.051 298.964 284.333 Q 298.843 284.616 298.556 285.084 Q 298.268 285.552 297.500 286.264 Q 296.732 286.976 295.606 287.887 "/>
    <path id="STROKE_1e62c35d-d2dc-4b66-80ab-d10411795dd8" opacity="0.680" fill="none" stroke="#149265" stroke-width="1.955" stroke-opacity="1.000" stroke-linecap="round" stroke-linejoin="round" d="M 281.117 283.592 Q 281.636 283.544 286.428 283.496 Q 291.221 283.448 299.105 281.623 Q 306.989 279.797 309.391 279.106 "/>
    <path id="STROKE_b8a3378c-a1c3-4ba1-9580-1463b6d06136" opacity="0.680" fill="none" stroke="#149265" stroke-width="2.161" stroke-opacity="1.000" stroke-linecap="round" stroke-linejoin="round" d="M 287.022 258.453 Q 287.335 258.414 294.208 257.957 Q 301.081 257.500 307.400 256.561 L 309.078 256.211 "/>
    <path id="STROKE_ae34856e-4e30-4b8e-b51d-b8a6fb82b227" opacity="0.680" fill="none" stroke="#149265" stroke-width="3.023" stroke-opacity="1.000" stroke-linecap="round" stroke-linejoin="round" d="M 347.971 507.245 Q 347.569 507.570 347.231 508.016 Q 346.893 508.462 346.697 509.477 Q 346.501 510.491 346.561 511.072 Q 346.622 511.653 347.128 512.672 Q 347.634 513.691 347.978 514.019 Q 348.322 514.347 348.716 514.525 Q 349.110 514.703 349.828 514.779 Q 350.547 514.854 352.914 513.514 Q 355.281 512.173 357.627 509.881 Q 359.973 507.589 360.970 506.908 Q 361.967 506.227 362.468 506.077 Q 362.969 505.927 363.378 505.930 Q 363.788 505.932 364.257 506.182 Q 364.726 506.432 364.949 506.699 Q 365.172 506.967 365.381 507.423 Q 365.591 507.878 365.677 508.648 Q 365.763 509.418 365.734 509.879 Q 365.705 510.339 365.153 512.027 Q 364.601 513.714 363.658 515.251 Q 362.716 516.789 360.133 519.939 "/>
    <path id="STROKE_67b4ee73-01e4-4fbf-a025-07650978c9fd" opacity="0.680" fill="none" stroke="#149265" stroke-width="2.266" stroke-opacity="1.000" stroke-linecap="round" stroke-linejoin="round" d="M 351.745 492.235 Q 352.477 492.190 355.575 491.929 Q 358.672 491.667 360.189 491.199 Q 361.706 490.731 362.246 490.341 Q 362.785 489.952 363.011 489.376 Q 363.237 488.800 363.176 488.336 Q 363.115 487.872 361.456 485.961 Q 359.797 484.051 356.023 481.432 Q 359.001 480.822 360.999 480.524 Q 362.997 480.226 365.784 479.409 "/>
    <path id="STROKE_6ce509fa-5548-4573-845c-f011ba3325d5" opacity="0.680" fill="none" stroke="#149265" stroke-width="2.489" stroke-opacity="1.000" stroke-linecap="round" stroke-linejoin="round" d="M 347.404 472.447 Q 348.528 472.133 349.221 471.971 Q 349.913 471.808 358.903 470.029 Q 358.885 469.994 357.224 469.194 Q 355.564 468.393 354.057 467.476 Q 352.550 466.560 351.979 465.871 Q 351.408 465.182 351.285 464.686 Q 351.163 464.190 351.224 463.830 Q 351.285 463.469 351.435 463.152 Q 351.584 462.835 353.182 461.444 Q 354.779 460.052 356.542 458.548 Q 353.714 455.457 351.963 453.617 Q 350.213 451.776 349.780 450.773 Q 349.348 449.771 349.392 448.834 Q 349.436 447.898 351.729 446.297 Q 354.021 444.696 360.940 444.021 L 363.066 444.303 "/>
    <path id="STROKE_16290824-5d5a-4a1b-8099-e3ebb5757059" opacity="0.680" fill="none" stroke="#149265" stroke-width="3.484" stroke-opacity="1.000" stroke-linecap="round" stroke-linejoin="round" d="M 409.213 512.654 Q 408.952 513.066 408.807 513.395 Q 408.749 513.670 409.106 514.785 Q 409.462 515.901 410.116 516.721 Q 410.770 517.542 411.360 517.964 Q 411.950 518.386 412.980 518.808 Q 414.009 519.230 416.017 519.329 Q 418.024 519.428 419.344 518.919 Q 420.664 518.410 421.254 517.869 Q 421.844 517.329 422.203 516.505 Q 422.563 515.682 422.465 514.875 Q 422.368 514.068 421.930 513.329 Q 421.492 512.590 419.818 511.233 Q 418.143 509.877 416.163 508.686 Q 416.373 508.566 417.117 508.250 Q 417.862 507.935 426.108 504.669 L 427.359 504.123 "/>
    <path id="STROKE_d0788a02-7b88-46dc-af7b-240019de4e64" opacity="0.680" fill="none" stroke="#149265" stroke-width="1.897" stroke-opacity="1.000" stroke-linecap="round" stroke-linejoin="round" d="M 409.271 502.569 Q 410.194 502.509 413.755 502.056 Q 417.315 501.603 419.332 500.855 Q 421.349 500.107 422.165 499.451 Q 422.981 498.795 423.274 498.347 Q 423.567 497.898 423.683 497.533 Q 423.799 497.167 423.844 496.666 Q 423.889 496.164 423.085 494.726 Q 422.281 493.287 419.017 491.554 Q 415.753 489.820 410.876 489.646 Q 410.738 489.758 410.894 490.989 "/>
    <path id="STROKE_7b9bf7dc-fed7-4d7c-affb-de05beb5ae44" opacity="0.680" fill="none" stroke="#149265" stroke-width="1.800" stroke-opacity="1.000" stroke-linecap="round" stroke-linejoin="round" d="M 427.280 480.230 Q 427.193 480.359 426.874 481.085 Q 426.555 481.811 426.050 482.526 Q 425.546 483.240 425.126 483.621 Q 424.707 484.002 424.277 484.286 Q 423.848 484.569 423.260 484.835 Q 422.672 485.101 421.344 485.292 Q 420.015 485.483 418.910 485.254 Q 417.805 485.024 417.249 484.692 Q 416.693 484.360 416.416 484.050 Q 416.139 483.739 416.054 483.445 Q 415.969 483.150 415.993 482.977 Q 416.018 482.804 416.063 482.741 Q 416.107 482.678 416.434 482.513 Q 416.761 482.348 417.107 482.412 Q 417.454 482.477 417.611 482.539 Q 417.768 482.600 418.521 483.431 L 419.459 484.583 "/>
    <path id="STROKE_abcdfe0f-eccd-4ca5-9c95-7be9155e4824" opacity="0.680" fill="none" stroke="#149265" stroke-width="1.872" stroke-opacity="1.000" stroke-linecap="round" stroke-linejoin="round" d="M 425.247 476.492 Q 424.479 476.132 421.355 475.286 Q 418.230 474.439 416.394 473.612 Q 414.558 472.784 413.704 472.102 Q 412.851 471.420 412.512 470.748 Q 412.173 470.077 411.579 468.841 "/>
    <path id="STROKE_2019e9b5-befa-49ed-adbe-da596b32aa5a" opacity="0.680" fill="none" stroke="#149265" stroke-width="1.748" stroke-opacity="1.000" stroke-linecap="round" stroke-linejoin="round" d="M 410.894 459.504 Q 412.262 460.759 412.881 461.239 Q 413.499 461.720 415.792 462.900 Q 418.084 464.081 420.092 463.878 Q 420.236 463.367 419.709 462.716 Q 419.181 462.066 417.495 461.078 Q 415.808 460.090 415.132 459.789 Q 415.194 459.848 422.508 458.834 L 424.738 458.433 "/>
    <path id="STROKE_e315a451-d419-47a8-9fc1-95af33213481" opacity="0.680" fill="none" stroke="#149265" stroke-width="2.079" stroke-opacity="1.000" stroke-linecap="round" stroke-linejoin="round" d="M 410.151 450.166 Q 411.054 450.628 413.654 451.868 Q 416.254 453.108 419.075 453.147 Q 419.175 452.786 418.464 452.190 Q 417.752 451.594 416.603 451.010 Q 415.453 450.425 415.174 450.286 Q 414.895 450.147 416.745 450.421 Q 418.595 450.694 423.612 452.137 Q 428.628 453.579 431.315 454.984 Q 434.001 456.388 435.099 457.429 Q 436.197 458.470 436.682 459.379 Q 437.168 460.287 437.270 461.144 Q 437.371 462.001 436.990 462.996 Q 436.609 463.990 436.040 465.161 "/>
    <path id="STROKE_8f1878c6-b427-4176-81bc-49bab3c2bc60" opacity="0.680" fill="none" stroke="#149265" stroke-width="1.891" stroke-opacity="1.000" stroke-linecap="round" stroke-linejoin="round" d="M 430.272 433.910 Q 429.840 434.884 429.310 435.839 Q 428.780 436.794 428.490 437.184 Q 428.201 437.574 427.399 438.320 Q 426.598 439.067 425.190 439.742 Q 423.782 440.416 421.669 440.602 Q 419.556 440.787 417.608 440.154 Q 415.660 439.520 414.789 438.806 Q 413.917 438.092 413.636 437.593 Q 413.355 437.095 413.362 436.801 Q 413.368 436.506 413.548 436.401 Q 413.728 436.296 414.065 436.333 Q 414.402 436.369 414.833 436.650 Q 415.265 436.931 415.808 437.736 Q 416.352 438.541 416.624 439.660 Q 416.896 440.779 416.830 442.087 Q 416.764 443.396 416.663 444.494 "/>
    <path id="STROKE_f0532c35-cb1a-4ca2-871e-07303352da2e" opacity="0.680" fill="none" stroke="#149265" stroke-width="1.871" stroke-opacity="1.000" stroke-linecap="round" stroke-linejoin="round" d="M 290.698 245.246 L 291.023 244.431 Q 292.103 241.148 292.542 240.227 Q 292.982 239.306 293.332 238.768 Q 293.682 238.230 293.903 237.965 Q 294.124 237.700 295.075 236.886 Q 296.026 236.073 297.848 235.335 Q 299.671 234.598 302.320 234.455 Q 304.969 234.312 306.802 234.831 Q 308.635 235.350 309.839 236.373 Q 311.043 237.396 311.451 238.220 Q 311.859 239.044 311.964 239.708 Q 312.068 240.372 311.971 241.052 Q 311.874 241.731 311.491 242.479 Q 311.108 243.226 310.639 243.713 Q 310.169 244.201 308.749 245.095 Q 307.329 245.989 306.028 246.427 Q 304.727 246.865 304.109 246.981 Q 303.491 247.096 302.424 247.173 Q 301.358 247.251 299.895 247.136 Q 298.433 247.022 297.271 246.716 Q 296.108 246.410 294.928 245.925 Q 293.748 245.441 293.035 245.070 Q 292.323 244.699 289.759 243.135 "/>
    <path id="STROKE_60979366-75a2-4b9f-9263-688bbb264cab" opacity="0.680" fill="none" stroke="#149265" stroke-width="3.172" stroke-opacity="1.000" stroke-linecap="round" stroke-linejoin="round" d="M 291.261 1066.851 L 291.090 1067.067 Q 290.819 1067.478 290.652 1068.086 Q 290.484 1068.693 290.541 1069.692 Q 290.598 1070.690 290.865 1071.379 Q 291.132 1072.068 292.740 1073.589 Q 294.348 1075.111 296.815 1075.685 Q 299.281 1076.259 300.747 1075.991 Q 302.214 1075.724 303.248 1075.113 Q 304.282 1074.502 305.473 1072.809 Q 306.663 1071.117 307.257 1068.968 Q 307.851 1066.818 307.929 1065.991 Q 308.007 1065.163 307.813 1063.099 Q 307.562 1062.506 307.041 1061.120 "/>
    <path id="STROKE_9a3e0a03-3141-4d5a-b81f-077c83d6a23b" opacity="0.680" fill="none" stroke="#149265" stroke-width="1.908" stroke-opacity="1.000" stroke-linecap="round" stroke-linejoin="round" d="M 291.711 1055.271 Q 292.112 1053.710 292.284 1053.263 Q 292.456 1052.815 293.346 1051.473 Q 294.235 1050.131 295.735 1049.206 Q 297.234 1048.281 298.311 1048.073 Q 299.388 1047.866 300.112 1047.879 Q 300.836 1047.893 301.314 1047.993 Q 301.792 1048.093 302.472 1048.374 Q 303.153 1048.655 303.566 1048.975 Q 303.979 1049.295 304.590 1050.172 Q 305.201 1051.050 305.319 1051.425 Q 305.438 1051.800 305.439 1052.220 Q 305.441 1052.640 305.394 1052.847 Q 305.348 1053.055 304.964 1053.746 Q 304.580 1054.437 304.132 1054.863 Q 303.685 1055.290 303.354 1055.504 Q 303.024 1055.719 302.334 1056.000 Q 301.643 1056.282 300.023 1056.425 Q 298.402 1056.569 297.563 1056.429 Q 296.725 1056.289 296.187 1056.110 Q 295.648 1055.931 294.911 1055.556 Q 294.174 1055.182 293.348 1054.379 L 292.317 1053.219 "/>
    <path id="STROKE_aad2303f-542f-42bd-af5c-9025ec74d0c2" opacity="0.680" fill="none" stroke="#149265" stroke-width="3.156" stroke-opacity="1.000" stroke-linecap="round" stroke-linejoin="round" d="M 294.937 1029.253 Q 294.354 1029.657 294.085 1029.887 Q 293.815 1030.116 293.517 1030.464 Q 293.219 1030.812 292.951 1031.253 Q 292.684 1031.694 292.521 1032.496 Q 292.359 1033.299 292.450 1033.699 Q 292.541 1034.099 292.671 1034.312 Q 292.802 1034.526 293.000 1034.700 Q 293.198 1034.874 293.846 1035.108 Q 294.494 1035.341 295.349 1035.276 Q 296.205 1035.211 297.124 1034.937 Q 298.043 1034.663 299.640 1034.107 Q 301.237 1033.551 301.889 1033.432 Q 302.541 1033.312 302.897 1033.341 Q 303.254 1033.370 303.442 1033.422 Q 303.630 1033.474 303.989 1033.943 Q 304.348 1034.412 304.472 1035.534 Q 304.596 1036.656 304.385 1037.483 Q 304.175 1038.310 303.247 1039.954 "/>
    <path id="STROKE_dd054422-7ea3-441c-b6e7-d1b86e0d2375" opacity="0.680" fill="none" stroke="#149265" stroke-width="2.879" stroke-opacity="1.000" stroke-linecap="round" stroke-linejoin="round" d="M 280.389 1013.818 Q 281.182 1013.814 285.328 1014.057 Q 289.474 1014.300 293.163 1014.404 Q 296.852 1014.508 299.754 1014.554 Q 302.655 1014.601 303.798 1014.622 Q 304.941 1014.642 305.628 1014.738 Q 306.314 1014.833 307.921 1015.006 "/>
    <path id="STROKE_ebfde78b-9b0c-4ac9-9771-b37087dfd575" opacity="0.680" fill="none" stroke="#149265" stroke-width="2.800" stroke-opacity="1.000" stroke-linecap="round" stroke-linejoin="round" d="M 289.032 1006.665 Q 288.988 1006.948 288.352 1021.625 L 288.406 1023.405 "/>
    <path id="STROKE_e7d69880-a59d-46a4-a36e-3cd66a39ce0f" opacity="0.680" fill="none" stroke="#149265" stroke-width="2.329" stroke-opacity="1.000" stroke-linecap="round" stroke-linejoin="round" d="M 288.347 994.030 Q 288.900 994.551 289.121 994.818 Q 289.341 995.085 290.372 996.515 Q 291.404 997.946 292.123 998.680 Q 292.841 999.414 293.211 999.631 Q 293.580 999.848 294.210 1000.001 Q 294.840 1000.154 295.373 1000.147 Q 295.906 1000.140 296.635 1000.022 Q 297.365 999.905 298.382 999.703 Q 299.399 999.502 299.932 999.471 Q 300.466 999.440 300.971 999.549 Q 301.476 999.659 301.673 999.764 Q 301.869 999.869 302.509 1000.889 Q 303.150 1001.908 303.060 1004.588 Q 302.970 1007.269 302.563 1009.274 "/>
    <path id="STROKE_af55ed2c-340e-48bc-b70f-fba013fcccb1" opacity="0.680" fill="none" stroke="#149265" stroke-width="2.326" stroke-opacity="1.000" stroke-linecap="round" stroke-linejoin="round" d="M 284.691 958.543 Q 284.121 958.848 283.610 959.376 Q 283.513 959.742 283.498 960.009 Q 283.483 960.277 283.521 960.517 Q 283.559 960.758 283.780 961.251 Q 284.001 961.744 284.468 962.236 Q 284.936 962.729 285.726 963.026 Q 286.516 963.323 287.063 963.340 Q 287.610 963.356 288.267 963.248 Q 288.924 963.140 292.821 961.462 Q 296.717 959.785 297.077 959.710 Q 297.437 959.635 298.163 959.635 Q 298.889 959.634 299.410 959.869 Q 299.932 960.104 300.282 960.502 Q 300.633 960.900 300.860 961.779 Q 301.086 962.659 301.047 963.187 Q 301.008 963.715 300.480 964.979 Q 299.951 966.243 298.865 967.359 Q 297.779 968.475 294.800 970.064 "/>
    <path id="STROKE_ca75fe62-efd5-43ea-9bea-bbdc0b574428" opacity="0.680" fill="none" stroke="#149265" stroke-width="2.289" stroke-opacity="1.000" stroke-linecap="round" stroke-linejoin="round" d="M 280.643 962.647 Q 281.011 962.603 288.075 961.981 Q 295.139 961.359 298.130 960.905 Q 301.121 960.450 302.074 960.287 "/>
    <path id="STROKE_e0ffb87b-0f95-43dc-87c4-2d57f4de6fca" opacity="0.680" fill="none" stroke="#149265" stroke-width="2.225" stroke-opacity="1.000" stroke-linecap="round" stroke-linejoin="round" d="M 290.029 947.212 Q 289.988 947.041 289.600 946.284 Q 289.212 945.526 289.109 945.193 Q 289.007 944.859 288.964 944.380 Q 288.922 943.900 288.973 943.639 Q 289.025 943.377 289.107 943.191 Q 289.188 943.004 290.056 942.466 Q 290.923 941.928 294.375 941.818 Q 297.827 941.707 302.184 940.947 Q 302.444 940.806 302.943 939.432 Q 303.441 938.057 303.577 936.807 Q 303.714 935.557 303.914 934.169 Q 304.115 932.781 304.280 932.216 Q 304.445 931.651 304.870 929.915 "/>
    <path id="STROKE_e423dbab-8c01-4d78-a429-b857201448f4" opacity="0.680" fill="none" stroke="#149265" stroke-width="2.306" stroke-opacity="1.000" stroke-linecap="round" stroke-linejoin="round" d="M 287.663 928.230 Q 287.667 927.930 287.567 925.352 Q 287.468 922.774 287.702 921.655 Q 287.936 920.535 288.151 920.109 Q 288.365 919.683 288.652 919.341 Q 288.938 918.999 289.802 918.630 Q 290.666 918.261 291.526 918.199 Q 292.386 918.137 294.406 918.521 Q 296.426 918.906 298.582 919.431 Q 300.739 919.955 301.891 919.961 Q 303.043 919.968 303.624 919.749 Q 304.204 919.530 304.837 918.514 Q 305.470 917.499 304.928 913.080 Q 304.385 908.662 303.814 906.638 "/>
    <path id="STROKE_284cce96-8508-4604-aaaf-badbf2ac2458" opacity="0.680" fill="none" stroke="#149265" stroke-width="2.145" stroke-opacity="1.000" stroke-linecap="round" stroke-linejoin="round" d="M 281.523 838.229 L 281.475 838.446 Q 281.400 838.704 281.555 839.760 Q 281.710 840.816 282.263 841.883 Q 282.817 842.949 283.544 843.604 Q 284.272 844.258 285.135 844.611 Q 285.998 844.964 286.588 844.992 Q 287.179 845.020 288.000 844.747 Q 288.821 844.474 289.603 844.022 Q 290.385 843.569 292.029 842.433 Q 293.672 841.297 295.232 840.608 Q 296.792 839.919 298.508 840.224 Q 298.746 840.418 299.170 841.358 Q 299.595 842.298 299.480 843.456 Q 299.365 844.613 298.686 845.791 Q 298.007 846.968 297.493 847.487 Q 296.979 848.005 294.800 849.486 "/>
    <path id="STROKE_8ff49883-b633-451a-bae6-51eb2a4d9369" opacity="0.680" fill="none" stroke="#149265" stroke-width="2.939" stroke-opacity="1.000" stroke-linecap="round" stroke-linejoin="round" d="M 277.417 841.527 Q 278.689 841.653 283.999 842.195 Q 289.308 842.736 293.433 842.656 Q 297.559 842.576 299.298 842.211 Q 301.038 841.847 302.964 840.905 L 304.753 839.651 "/>
    <path id="STROKE_3b6364df-98e8-46ce-9cb1-67f1c4512e2e" opacity="0.680" fill="none" stroke="#149265" stroke-width="2.197" stroke-opacity="1.000" stroke-linecap="round" stroke-linejoin="round" d="M 283.381 818.499 Q 283.851 818.469 290.219 818.790 Q 296.588 819.110 305.617 819.279 L 306.552 819.174 "/>
    <path id="STROKE_7372e229-55b1-4a52-a2c1-122cc5084c8e" opacity="0.680" fill="none" stroke="#149265" stroke-width="1.729" stroke-opacity="1.000" stroke-linecap="round" stroke-linejoin="round" d="M 284.554 803.182 Q 286.169 799.248 286.848 798.352 Q 287.526 797.456 287.906 797.163 Q 288.287 796.870 289.868 796.262 Q 291.449 795.655 293.709 795.772 Q 295.969 795.888 297.719 796.818 Q 299.468 797.748 300.155 798.594 Q 300.842 799.440 301.047 800.419 Q 301.253 801.397 301.134 801.954 Q 301.015 802.511 300.584 803.119 Q 300.152 803.728 298.623 804.494 Q 297.095 805.260 293.516 804.951 Q 289.937 804.643 287.924 803.661 Q 285.911 802.679 284.007 801.496 "/>
    <path id="STROKE_77986266-6e5d-4196-845b-0562cdc25a52" opacity="0.680" fill="none" stroke="#149265" stroke-width="1.935" stroke-opacity="1.000" stroke-linecap="round" stroke-linejoin="round" d="M 277.593 728.367 Q 277.628 728.507 278.112 729.929 Q 278.596 731.351 279.222 732.414 Q 279.848 733.477 281.004 734.281 Q 282.160 735.086 283.731 734.461 Q 285.303 733.835 286.726 733.016 Q 288.149 732.197 288.990 731.889 Q 289.832 731.581 290.394 731.561 Q 290.956 731.541 291.238 731.705 Q 291.520 731.869 291.901 732.738 Q 292.281 733.607 292.181 734.295 Q 292.080 734.982 291.959 735.265 Q 291.839 735.547 291.551 736.015 Q 291.264 736.483 290.495 737.195 Q 289.727 737.907 288.602 738.818 "/>
    <path id="STROKE_622ac811-fe79-4a00-ad2e-0823e5984c30" opacity="0.680" fill="none" stroke="#149265" stroke-width="1.955" stroke-opacity="1.000" stroke-linecap="round" stroke-linejoin="round" d="M 274.112 734.523 Q 274.631 734.475 279.424 734.427 Q 284.216 734.380 292.101 732.554 Q 299.985 730.728 302.387 730.038 "/>
    <path id="STROKE_e260a676-235d-4425-89a0-f54f803cfa8a" opacity="0.680" fill="none" stroke="#149265" stroke-width="2.161" stroke-opacity="1.000" stroke-linecap="round" stroke-linejoin="round" d="M 280.018 709.384 Q 280.330 709.345 287.204 708.888 Q 294.077 708.431 300.396 707.492 L 302.074 707.142 "/>
    <path id="STROKE_a915bf1d-a7e7-4d7d-b7b4-eee289dd3491" opacity="0.680" fill="none" stroke="#149265" stroke-width="3.023" stroke-opacity="1.000" stroke-linecap="round" stroke-linejoin="round" d="M 340.966 958.176 Q 340.565 958.501 340.227 958.947 Q 339.889 959.393 339.693 960.408 Q 339.496 961.422 339.557 962.003 Q 339.617 962.584 340.124 963.603 Q 340.630 964.622 340.974 964.950 Q 341.318 965.278 341.712 965.457 Q 342.106 965.635 342.824 965.710 Q 343.543 965.786 345.909 964.445 Q 348.276 963.104 350.622 960.812 Q 352.968 958.520 353.965 957.839 Q 354.963 957.158 355.463 957.009 Q 355.964 956.859 356.374 956.861 Q 356.784 956.863 357.253 957.113 Q 357.722 957.363 357.945 957.631 Q 358.167 957.898 358.377 958.354 Q 358.586 958.810 358.673 959.579 Q 358.759 960.349 358.730 960.810 Q 358.701 961.271 358.149 962.958 Q 357.596 964.645 356.654 966.183 Q 355.712 967.720 353.129 970.870 "/>
    <path id="STROKE_a08d1518-6ba6-4e6a-9bd1-fb53397ca35d" opacity="0.680" fill="none" stroke="#149265" stroke-width="2.266" stroke-opacity="1.000" stroke-linecap="round" stroke-linejoin="round" d="M 344.740 943.166 Q 345.473 943.121 348.570 942.860 Q 351.668 942.599 353.185 942.131 Q 354.701 941.662 355.241 941.273 Q 355.781 940.883 356.007 940.307 Q 356.232 939.731 356.171 939.267 Q 356.111 938.803 354.452 936.893 Q 352.793 934.982 349.019 932.364 Q 351.996 931.753 353.995 931.455 Q 355.993 931.157 358.780 930.340 "/>
    <path id="STROKE_211c100d-1663-4e47-ad19-12badccb9d8f" opacity="0.680" fill="none" stroke="#149265" stroke-width="2.489" stroke-opacity="1.000" stroke-linecap="round" stroke-linejoin="round" d="M 340.399 923.378 Q 341.524 923.064 342.216 922.902 Q 342.909 922.740 351.898 920.960 Q 351.881 920.926 350.220 920.125 Q 348.559 919.324 347.052 918.408 Q 345.546 917.491 344.975 916.802 Q 344.404 916.114 344.281 915.618 Q 344.158 915.122 344.220 914.761 Q 344.281 914.401 344.431 914.084 Q 344.580 913.767 346.177 912.375 Q 347.775 910.983 349.538 909.479 Q 346.710 906.389 344.959 904.548 Q 343.208 902.707 342.776 901.705 Q 342.344 900.702 342.388 899.766 Q 342.432 898.829 344.724 897.228 Q 347.017 895.627 353.935 894.953 L 356.062 895.234 "/>
    <path id="STROKE_2bf7630c-f9ec-47d2-98fd-37da68f5408a" opacity="0.680" fill="none" stroke="#149265" stroke-width="3.484" stroke-opacity="1.000" stroke-linecap="round" stroke-linejoin="round" d="M 402.208 963.585 Q 401.948 963.997 401.803 964.326 Q 401.745 964.601 402.101 965.716 Q 402.458 966.832 403.112 967.653 Q 403.766 968.473 404.356 968.895 Q 404.946 969.317 405.975 969.739 Q 407.005 970.161 409.012 970.260 Q 411.020 970.359 412.340 969.850 Q 413.660 969.341 414.249 968.801 Q 414.839 968.260 415.199 967.437 Q 415.558 966.613 415.461 965.806 Q 415.364 964.999 414.926 964.260 Q 414.488 963.521 412.813 962.165 Q 411.139 960.808 409.159 959.617 Q 409.369 959.497 410.113 959.182 Q 410.857 958.866 419.104 955.600 L 420.354 955.054 "/>
    <path id="STROKE_be632f0b-3bd7-4527-a600-d93edf554c45" opacity="0.680" fill="none" stroke="#149265" stroke-width="1.897" stroke-opacity="1.000" stroke-linecap="round" stroke-linejoin="round" d="M 402.267 953.500 Q 403.190 953.440 406.750 952.987 Q 410.311 952.534 412.328 951.786 Q 414.345 951.038 415.161 950.382 Q 415.977 949.726 416.270 949.278 Q 416.563 948.829 416.679 948.464 Q 416.795 948.099 416.839 947.597 Q 416.884 947.096 416.080 945.657 Q 415.277 944.218 412.012 942.485 Q 408.748 940.751 403.871 940.578 Q 403.733 940.689 403.890 941.920 "/>
    <path id="STROKE_3c6a905a-b89c-4be2-b7f2-e23c1946c456" opacity="0.680" fill="none" stroke="#149265" stroke-width="1.800" stroke-opacity="1.000" stroke-linecap="round" stroke-linejoin="round" d="M 420.276 931.161 Q 420.188 931.291 419.869 932.016 Q 419.550 932.742 419.046 933.457 Q 418.541 934.172 418.122 934.553 Q 417.702 934.933 417.273 935.217 Q 416.844 935.501 416.256 935.766 Q 415.668 936.032 414.339 936.223 Q 413.011 936.414 411.905 936.185 Q 410.800 935.956 410.244 935.623 Q 409.688 935.291 409.412 934.981 Q 409.135 934.671 409.050 934.376 Q 408.965 934.081 408.989 933.908 Q 409.014 933.735 409.058 933.672 Q 409.103 933.609 409.430 933.444 Q 409.757 933.279 410.103 933.344 Q 410.449 933.408 410.606 933.470 Q 410.764 933.531 411.517 934.363 L 412.455 935.515 "/>
    <path id="STROKE_0b0e22ab-a38f-4ec6-bc5c-72722358880c" opacity="0.680" fill="none" stroke="#149265" stroke-width="1.872" stroke-opacity="1.000" stroke-linecap="round" stroke-linejoin="round" d="M 418.242 927.423 Q 417.475 927.064 414.350 926.217 Q 411.226 925.370 409.390 924.543 Q 407.553 923.715 406.700 923.033 Q 405.846 922.351 405.508 921.679 Q 405.169 921.008 404.574 919.772 "/>
    <path id="STROKE_547d4560-1319-4ad6-8160-ea1085e86a35" opacity="0.680" fill="none" stroke="#149265" stroke-width="1.748" stroke-opacity="1.000" stroke-linecap="round" stroke-linejoin="round" d="M 403.890 910.435 Q 405.258 911.690 405.876 912.171 Q 406.495 912.651 408.787 913.831 Q 411.079 915.012 413.088 914.809 Q 413.232 914.298 412.704 913.647 Q 412.177 912.997 410.490 912.009 Q 408.804 911.021 408.127 910.720 Q 408.190 910.779 415.504 909.765 L 417.734 909.365 "/>
    <path id="STROKE_2cfd6337-c78e-416e-8774-dc22c899b3f3" opacity="0.680" fill="none" stroke="#149265" stroke-width="2.079" stroke-opacity="1.000" stroke-linecap="round" stroke-linejoin="round" d="M 403.147 901.098 Q 404.050 901.559 406.650 902.799 Q 409.250 904.039 412.071 904.078 Q 412.170 903.717 411.459 903.121 Q 410.748 902.525 409.598 901.941 Q 408.449 901.356 408.170 901.217 Q 407.890 901.079 409.741 901.352 Q 411.591 901.626 416.607 903.068 Q 421.624 904.511 424.310 905.915 Q 426.997 907.319 428.095 908.360 Q 429.193 909.402 429.678 910.310 Q 430.163 911.219 430.265 912.076 Q 430.367 912.933 429.986 913.927 Q 429.605 914.921 429.036 916.093 "/>
    <path id="STROKE_e02f8dc7-b863-48e0-9f6d-a9b22dfd77bc" opacity="0.680" fill="none" stroke="#149265" stroke-width="1.891" stroke-opacity="1.000" stroke-linecap="round" stroke-linejoin="round" d="M 423.268 884.842 Q 422.835 885.815 422.305 886.770 Q 421.775 887.725 421.486 888.115 Q 421.196 888.505 420.395 889.252 Q 419.593 889.998 418.185 890.673 Q 416.777 891.348 414.664 891.533 Q 412.551 891.718 410.604 891.085 Q 408.656 890.452 407.784 889.737 Q 406.913 889.023 406.632 888.525 Q 406.351 888.026 406.357 887.732 Q 406.364 887.438 406.544 887.333 Q 406.724 887.228 407.061 887.264 Q 407.397 887.301 407.829 887.582 Q 408.261 887.863 408.804 888.667 Q 409.347 889.472 409.620 890.591 Q 409.892 891.710 409.826 893.019 Q 409.759 894.327 409.658 895.425 "/>
    <path id="STROKE_43527f31-dcb3-4c08-a1b4-2d17dfbc9031" opacity="0.680" fill="none" stroke="#149265" stroke-width="1.871" stroke-opacity="1.000" stroke-linecap="round" stroke-linejoin="round" d="M 283.694 696.177 L 284.018 695.362 Q 285.099 692.079 285.538 691.158 Q 285.977 690.237 286.327 689.700 Q 286.677 689.162 286.898 688.896 Q 287.119 688.631 288.071 687.817 Q 289.022 687.004 290.844 686.267 Q 292.667 685.529 295.315 685.386 Q 297.964 685.243 299.797 685.762 Q 301.630 686.281 302.834 687.304 Q 304.038 688.327 304.446 689.151 Q 304.854 689.975 304.959 690.639 Q 305.064 691.303 304.966 691.983 Q 304.869 692.663 304.486 693.410 Q 304.104 694.158 303.634 694.645 Q 303.165 695.132 301.745 696.026 Q 300.325 696.920 299.024 697.358 Q 297.723 697.797 297.105 697.912 Q 296.486 698.027 295.420 698.105 Q 294.353 698.182 292.891 698.068 Q 291.429 697.953 290.266 697.647 Q 289.104 697.341 287.924 696.857 Q 286.743 696.372 286.031 696.001 Q 285.319 695.630 282.755 694.067 "/>
  </g>
</svg>