<?xml version="1.0" encoding="utf-8"?>
<svg width="2.904594in" height="4.840401in" version="1.1" viewBox="61.318 -279.315 600 600" xmlns="http://www.w3.org/2000/svg">
  <title>Untitled 7</title>
  <desc>Drawing exported from Concepts: Smarter Sketching</desc>
  <g id="Pen" opacity="1.000" transform="matrix(0, 0.848185, -0.836364, 0, 703.148987, -371.49472)">
    <path id="STROKE_cb83dee3-fbb6-4e25-8cf0-a5f456826cfa" opacity="0.680" fill="none" stroke="#fac141" stroke-width="43.533" stroke-opacity="1.000" stroke-linecap="round" stroke-linejoin="round" d="M 320.198 479.047 Q 320.172 478.354 320.130 474.292 Q 320.089 470.229 320.167 467.254 Q 320.245 464.278 320.392 462.202 Q 320.540 460.125 321.205 455.386 Q 321.870 450.646 322.505 447.954 Q 323.141 445.261 324.160 442.506 Q 325.179 439.752 327.833 435.291 Q 330.487 430.830 333.806 426.890 Q 337.126 422.950 340.172 420.429 Q 343.218 417.908 346.235 416.197 Q 349.251 414.486 355.113 413.167 Q 360.974 411.849 366.801 411.958 Q 372.629 412.067 378.665 413.233 Q 384.701 414.398 389.341 415.851 Q 393.981 417.304 398.099 419.183 Q 402.217 421.062 404.774 422.696 Q 407.332 424.330 408.382 425.163 Q 409.433 425.996 411.634 428.335 Q 413.835 430.674 415.523 433.816 Q 417.212 436.958 418.049 439.431 Q 418.885 441.904 419.579 447.383 Q 420.272 452.862 419.872 458.997 Q 419.471 465.132 418.613 469.225 Q 417.755 473.318 415.594 478.646 Q 413.432 483.973 410.719 488.057 Q 408.007 492.141 404.895 495.012 Q 401.782 497.882 399.734 499.199 Q 397.685 500.515 393.997 501.940 Q 390.308 503.365 384.980 504.187 Q 379.653 505.010 372.180 505.296 Q 364.708 505.583 359.208 505.283 Q 353.708 504.984 351.284 504.576 Q 348.860 504.168 346.510 503.332 Q 344.161 502.497 342.066 501.100 Q 339.971 499.704 337.774 496.994 Q 335.576 494.283 334.404 491.680 Q 333.231 489.076 332.782 487.257 Q 332.332 485.437 332.131 482.296 Q 331.931 479.156 333.368 473.101 Q 334.805 467.046 336.366 463.848 Q 337.928 460.650 339.349 458.782 Q 340.771 456.915 341.586 456.050 Q 342.401 455.184 344.492 453.716 Q 346.584 452.249 352.587 449.942 Q 358.590 447.636 361.946 446.797 Q 365.303 445.958 369.341 445.792 Q 373.379 445.627 375.463 445.883 Q 377.546 446.139 380.364 447.182 Q 383.183 448.225 385.864 449.910 Q 388.545 451.595 390.903 453.996 Q 393.261 456.397 394.826 459.184 Q 396.391 461.972 396.814 464.710 Q 397.236 467.448 396.992 468.931 Q 396.749 470.414 396.104 471.558 Q 395.460 472.702 393.260 474.147 Q 391.061 475.592 386.359 476.026 Q 381.657 476.460 378.905 476.124 Q 376.152 475.789 371.887 474.464 Q 367.622 473.140 365.106 471.816 Q 362.590 470.492 360.564 468.891 Q 358.538 467.291 357.001 465.409 Q 355.464 463.528 354.583 461.724 Q 353.701 459.920 353.386 457.675 Q 353.071 455.431 353.364 453.559 Q 353.657 451.687 355.688 448.607 Q 357.719 445.526 360.906 443.303 Q 364.094 441.079 367.346 439.997 Q 370.598 438.915 374.263 438.747 Q 377.929 438.578 380.709 439.148 Q 383.489 439.717 386.396 441.193 Q 389.303 442.669 390.867 443.893 Q 392.431 445.118 393.221 445.888 Q 394.010 446.659 395.348 448.407 Q 396.686 450.155 397.650 452.140 Q 398.614 454.124 399.095 456.810 Q 399.576 459.496 399.225 462.075 Q 398.873 464.655 397.566 467.121 Q 396.259 469.587 393.087 472.481 Q 389.914 475.375 385.788 477.366 Q 381.663 479.356 377.340 480.122 Q 373.017 480.887 370.212 480.766 Q 367.406 480.645 364.718 479.858 Q 362.030 479.071 359.314 477.333 Q 356.598 475.595 354.813 473.563 Q 353.028 471.530 352.082 469.689 Q 351.135 467.848 350.740 465.745 Q 350.344 463.642 350.515 461.802 Q 350.687 459.962 351.554 458.148 Q 352.421 456.335 353.955 454.843 Q 355.489 453.351 357.563 452.440 Q 359.638 451.529 362.094 451.313 Q 364.550 451.096 366.896 451.758 Q 369.241 452.419 370.489 453.178 Q 371.736 453.937 372.997 455.222 Q 374.257 456.507 374.948 458.064 Q 375.639 459.620 375.798 460.968 Q 375.956 462.315 375.756 463.489 Q 375.557 464.663 375.133 465.734 Q 374.709 466.806 373.357 468.478 Q 372.006 470.149 370.598 471.688 "/>
    <path id="STROKE_7b8780ec-7387-4f40-b056-d156256735bc" opacity="0.680" fill="none" stroke="#000000" stroke-width="11.432" stroke-opacity="1.000" stroke-linecap="round" stroke-linejoin="round" d="M 351.192 488.875 Q 351.186 488.883 351.096 488.679 Q 351.007 488.476 350.869 488.333 Q 350.731 488.189 350.418 487.774 L 350.433 487.590 Q 351.026 487.212 351.305 487.185 Q 351.584 487.158 351.767 487.220 Q 351.950 487.283 351.952 487.443 Q 351.955 487.604 351.553 487.676 Q 351.152 487.748 350.928 487.722 Q 350.704 487.696 350.611 487.589 Q 350.517 487.483 350.503 487.437 Q 350.489 487.391 350.524 487.345 Q 350.559 487.299 350.735 487.313 Q 350.912 487.328 351.022 487.361 Q 351.132 487.394 351.259 487.516 Q 351.386 487.638 351.389 487.945 Q 351.391 488.252 351.130 489.406 "/>
    <path id="STROKE_51d6e267-f1d6-4851-ba73-1da9e7cbe767" opacity="0.680" fill="none" stroke="#000000" stroke-width="8.361" stroke-opacity="1.000" stroke-linecap="round" stroke-linejoin="round" d="M 348.212 445.609 Q 348.547 445.404 349.024 445.336 Q 349.500 445.268 350.038 445.243 Q 350.577 445.217 350.901 445.258 Q 351.225 445.298 351.276 445.298 Q 351.326 445.297 351.691 445.622 Q 351.731 445.688 351.706 445.696 Q 351.681 445.703 351.654 445.654 Q 351.627 445.606 351.610 445.494 Q 351.594 445.382 351.657 445.303 Q 351.720 445.224 351.865 445.256 Q 352.009 445.287 352.047 445.326 Q 352.085 445.365 352.059 445.541 Q 352.033 445.717 351.765 445.913 Q 351.498 446.109 349.742 446.520 Q 347.986 446.931 347.816 447.000 "/>
    <path id="STROKE_640454a2-6f9a-4fc1-bf45-733dca23f2d9" opacity="0.680" fill="none" stroke="#000000" stroke-width="12.008" stroke-opacity="1.000" stroke-linecap="round" stroke-linejoin="round" d="M 391.983 441.031 Q 392.238 441.203 392.992 441.494 Q 393.747 441.785 395.137 442.577 Q 396.526 443.369 397.952 444.454 Q 399.378 445.539 399.963 446.094 Q 400.549 446.648 400.909 447.063 Q 401.268 447.478 403.553 450.939 Q 405.838 454.401 407.450 457.794 Q 409.061 461.188 409.860 463.556 Q 410.658 465.923 411.029 468.405 Q 411.401 470.887 411.462 472.247 Q 411.522 473.606 411.041 476.386 Q 410.561 479.165 409.938 480.856 Q 409.316 482.547 407.942 484.561 Q 406.568 486.576 405.767 487.531 Q 404.967 488.485 404.041 489.577 Q 403.116 490.670 402.740 491.072 Q 402.365 491.475 400.644 492.725 Q 398.923 493.974 397.964 494.673 Q 397.004 495.372 394.693 497.031 "/>
    <path id="STROKE_87ff75ad-5fea-4c67-a31f-e31279227a67" opacity="0.680" fill="none" stroke="#000000" stroke-width="7.044" stroke-opacity="1.000" stroke-linecap="round" stroke-linejoin="round" d="M 354.694 720.109 Q 356.119 720.099 360.190 720.224 Q 364.261 720.350 368.081 720.453 Q 371.900 720.557 374.184 720.602 Q 376.468 720.647 381.893 720.761 Q 387.318 720.875 394.510 720.838 Q 401.701 720.801 405.948 721.156 "/>
    <path id="STROKE_3a4059b7-a803-43c6-a230-1aa46b8387a4" opacity="0.680" fill="none" stroke="#000000" stroke-width="5.593" stroke-opacity="1.000" stroke-linecap="round" stroke-linejoin="round" d="M 320.594 715.531 Q 321.573 715.594 328.673 716.198 L 329.932 716.250 "/>
    <path id="STROKE_6a3d8c90-612d-4fb1-94a8-e334dcb7fadd" opacity="0.680" fill="none" stroke="#000000" stroke-width="5.576" stroke-opacity="1.000" stroke-linecap="round" stroke-linejoin="round" d="M 340.124 652.359 Q 339.784 652.604 337.491 654.191 Q 335.199 655.778 333.665 656.987 Q 332.130 658.195 331.465 658.729 Q 330.800 659.263 329.717 660.333 Q 328.634 661.404 327.796 662.448 Q 326.958 663.491 326.164 664.878 Q 325.369 666.266 325.110 666.876 Q 324.851 667.487 324.682 668.256 Q 324.512 669.025 324.434 669.433 Q 324.355 669.842 324.338 670.620 Q 324.321 671.398 324.319 672.448 L 324.385 672.814 L 324.444 673.677 Q 324.502 674.645 324.518 674.776 Q 324.534 674.907 324.613 675.259 Q 324.693 675.610 325.184 676.781 Q 325.675 677.953 325.868 678.192 Q 326.061 678.431 326.355 678.954 L 327.347 680.688 "/>
    <path id="STROKE_af30d3b2-dc87-496a-a26c-bd1d7a3d856a" opacity="0.680" fill="none" stroke="#000000" stroke-width="6.083" stroke-opacity="1.000" stroke-linecap="round" stroke-linejoin="round" d="M 328.139 680.750 Q 329.501 681.116 329.836 681.208 Q 330.171 681.300 333.741 682.094 Q 337.310 682.888 338.610 683.150 Q 339.910 683.412 344.022 684.049 Q 348.134 684.685 351.586 685.040 Q 355.038 685.396 357.551 685.553 Q 360.065 685.710 362.269 685.763 Q 364.473 685.816 369.944 685.661 Q 375.416 685.506 377.274 685.361 Q 379.132 685.216 381.696 684.990 Q 384.259 684.763 385.686 684.627 Q 387.114 684.490 388.802 684.273 Q 390.491 684.057 392.019 683.885 Q 393.548 683.713 394.472 683.595 Q 395.396 683.478 395.895 683.412 Q 396.393 683.346 397.942 683.249 Q 401.199 682.896 403.760 682.547 "/>
    <path id="STROKE_fecae9ea-1308-4118-a4e3-5533a6ab8eba" opacity="0.680" fill="none" stroke="#000000" stroke-width="8.178" stroke-opacity="1.000" stroke-linecap="round" stroke-linejoin="round" d="M 369.597 666.031 Q 369.646 667.484 369.700 668.286 Q 369.755 669.087 369.846 673.067 Q 369.936 677.047 369.933 679.214 Q 369.930 681.380 369.927 683.726 Q 369.923 686.072 369.935 688.286 Q 369.946 690.500 369.972 692.248 Q 369.998 693.997 370.028 694.206 Q 370.057 694.416 370.183 697.693 L 370.139 700.000 "/>
    <path id="STROKE_761a1377-3a74-4f53-807e-bc6b363c62b3" opacity="0.680" fill="none" stroke="#4245a3" stroke-width="6.518" stroke-opacity="1.000" stroke-linecap="round" stroke-linejoin="round" d="M 655.998 584.632 Q 655.292 582.578 655.227 582.402 Q 655.163 582.225 654.061 579.013 Q 652.959 575.800 651.094 570.325 Q 649.229 564.850 648.225 561.980 Q 647.221 559.110 645.856 555.491 Q 644.490 551.872 641.945 545.894 Q 639.399 539.916 637.600 536.076 Q 635.802 532.236 634.510 529.640 Q 633.218 527.044 630.369 521.743 Q 627.519 516.443 625.540 513.142 Q 623.561 509.841 621.450 506.734 Q 619.339 503.626 617.917 501.715 Q 616.496 499.803 609.156 491.767 Q 601.817 483.731 598.335 480.840 Q 594.852 477.949 591.156 475.555 Q 587.460 473.161 584.429 471.681 Q 581.398 470.200 579.745 469.579 Q 578.091 468.959 575.765 468.338 Q 573.439 467.718 570.630 467.343 Q 567.820 466.969 566.151 466.903 Q 564.481 466.836 561.341 467.097 Q 558.201 467.357 556.350 467.742 Q 554.499 468.127 551.703 468.989 Q 548.907 469.850 547.375 470.539 Q 545.843 471.227 545.293 471.485 Q 544.744 471.743 542.979 472.726 Q 541.214 473.708 540.189 474.385 Q 539.163 475.062 536.698 476.936 Q 534.234 478.811 532.844 480.063 Q 531.455 481.314 531.066 481.716 Q 530.678 482.118 528.820 484.210 Q 526.962 486.302 525.491 488.377 Q 524.019 490.452 523.075 492.056 Q 522.131 493.660 521.591 494.695 Q 521.050 495.730 520.391 497.042 Q 519.732 498.354 519.458 498.932 Q 519.185 499.511 518.292 501.777 Q 517.399 504.042 516.703 506.048 Q 516.008 508.054 515.370 510.435 Q 514.733 512.816 514.652 513.178 Q 514.570 513.541 514.334 514.775 Q 514.097 516.008 513.884 517.144 Q 513.670 518.280 513.500 519.175 Q 513.329 520.071 512.908 522.166 Q 512.487 524.262 512.358 525.040 Q 512.228 525.818 512.120 526.649 Q 512.012 527.480 511.917 528.689 Q 511.823 529.897 511.746 530.813 Q 511.669 531.729 511.526 533.374 Q 511.383 535.019 511.215 537.759 Q 511.048 540.498 510.967 542.073 Q 510.885 543.647 510.839 544.462 Q 510.794 545.277 510.693 547.862 Q 510.593 550.447 510.523 555.015 Q 510.454 559.582 510.444 562.332 Q 510.434 565.081 510.447 567.104 Q 510.461 569.127 510.568 572.509 Q 510.675 575.891 510.893 579.913 Q 511.111 583.935 511.258 585.670 Q 511.404 587.405 511.899 591.890 Q 512.395 596.374 512.874 599.372 Q 513.352 602.369 513.589 603.714 Q 513.826 605.059 514.262 606.920 Q 514.698 608.780 515.343 611.109 Q 515.988 613.437 516.476 615.022 Q 516.965 616.607 519.171 621.869 Q 521.377 627.132 522.590 629.497 Q 523.802 631.862 524.301 632.749 Q 524.800 633.635 526.343 635.918 Q 527.886 638.201 528.619 639.138 Q 529.353 640.075 530.594 641.431 Q 531.834 642.787 532.957 643.961 Q 534.080 645.135 534.595 645.594 Q 535.111 646.053 536.094 646.828 Q 537.077 647.603 538.194 648.344 Q 539.312 649.086 541.316 650.047 Q 543.320 651.009 545.166 651.550 Q 547.012 652.092 548.700 652.346 Q 550.388 652.601 552.337 652.625 Q 554.286 652.650 557.392 652.131 Q 560.498 651.612 562.554 650.864 Q 564.610 650.117 566.340 649.267 Q 568.069 648.417 569.210 647.741 Q 570.351 647.065 571.346 646.419 Q 572.341 645.773 573.703 644.757 Q 575.065 643.741 575.346 643.535 Q 575.626 643.328 576.765 642.483 Q 577.904 641.637 578.627 641.036 Q 579.350 640.434 580.469 639.443 Q 581.588 638.451 582.717 637.334 Q 583.846 636.217 584.283 635.705 Q 584.720 635.193 585.907 633.778 Q 587.094 632.364 587.807 631.315 Q 588.520 630.266 589.284 628.926 Q 590.048 627.586 590.809 626.027 Q 591.570 624.468 592.263 622.779 Q 592.956 621.089 594.023 617.669 Q 595.089 614.248 595.500 612.282 Q 595.910 610.315 596.012 609.771 Q 596.113 609.227 596.616 604.740 Q 597.119 600.253 597.216 598.158 Q 597.313 596.063 597.313 594.012 Q 597.312 591.962 597.253 589.059 Q 597.194 586.157 597.131 584.046 Q 597.069 581.935 596.997 579.598 Q 596.926 577.262 596.908 575.874 Q 596.891 574.487 596.837 571.671 Q 596.783 568.855 596.841 566.715 Q 596.898 564.574 597.041 563.090 Q 597.185 561.606 597.836 558.694 Q 598.487 555.782 598.766 555.149 Q 599.045 554.516 599.420 553.941 Q 599.795 553.366 599.970 553.152 Q 600.144 552.937 600.659 552.496 Q 601.174 552.055 602.307 551.550 Q 603.440 551.045 603.896 550.978 Q 604.352 550.912 605.827 551.016 Q 607.302 551.120 608.598 551.450 Q 609.895 551.779 612.013 552.605 Q 614.132 553.431 615.257 554.018 Q 616.382 554.605 618.207 555.711 Q 620.032 556.817 620.930 557.433 Q 621.827 558.050 623.212 559.044 Q 624.597 560.038 625.579 560.766 Q 626.561 561.495 627.161 561.956 Q 627.761 562.416 630.180 564.250 Q 632.599 566.085 635.176 568.084 Q 637.752 570.084 638.763 570.886 Q 639.774 571.688 640.381 572.196 Q 640.987 572.704 642.492 573.928 Q 643.996 575.151 645.383 576.320 Q 646.770 577.488 647.222 577.866 Q 647.674 578.244 648.354 578.779 Q 649.035 579.314 650.618 580.613 Q 652.202 581.912 653.967 583.371 Q 655.733 584.830 657.568 586.311 "/>
    <path id="STROKE_1345c1df-a69b-4d39-8ce3-3ada3392d22f" opacity="0.680" fill="none" stroke="#4245a3" stroke-width="6.399" stroke-opacity="1.000" stroke-linecap="round" stroke-linejoin="round" d="M 527.939 391.297 Q 529.025 391.264 534.354 391.402 Q 539.682 391.541 544.525 391.637 Q 549.369 391.734 551.398 391.777 Q 553.427 391.821 563.029 392.006 Q 572.631 392.191 578.162 392.328 Q 583.693 392.464 593.739 392.948 Q 603.786 393.432 605.849 393.589 Q 607.912 393.747 610.207 393.953 Q 612.502 394.158 613.272 394.262 Q 614.042 394.365 618.170 394.750 "/>
    <path id="STROKE_c53e44a1-0447-4043-aa3e-01f32a576c21" opacity="0.680" fill="none" stroke="#4245a3" stroke-width="5.382" stroke-opacity="1.000" stroke-linecap="round" stroke-linejoin="round" d="M 533.358 351.422 L 534.808 351.399 Q 537.331 351.407 551.385 351.651 Q 565.440 351.895 572.972 352.127 Q 580.504 352.359 586.888 352.644 Q 593.273 352.929 595.697 353.059 Q 598.120 353.190 602.280 353.455 Q 606.440 353.720 611.090 354.186 Q 611.435 354.247 615.669 354.734 "/>
    <path id="STROKE_948f9a7f-cb92-44e0-ba54-efd4e4859eed" opacity="0.680" fill="none" stroke="#4245a3" stroke-width="5.854" stroke-opacity="1.000" stroke-linecap="round" stroke-linejoin="round" d="M 576.338 354.938 Q 576.610 356.139 576.715 356.609 Q 576.819 357.079 576.824 357.174 Q 576.829 357.269 577.313 360.508 Q 577.798 363.747 578.095 366.076 Q 578.391 368.404 578.772 372.027 Q 579.152 375.649 579.615 379.065 Q 580.078 382.481 580.182 382.802 Q 580.287 383.122 580.694 384.859 "/>
    <path id="STROKE_aa17d3ac-ce17-43ff-b454-5e6e73363bd6" opacity="0.680" fill="none" stroke="#4245a3" stroke-width="7.644" stroke-opacity="1.000" stroke-linecap="round" stroke-linejoin="round" d="M 545.218 311.078 Q 546.239 311.194 546.642 311.217 Q 547.044 311.241 559.919 313.107 Q 572.794 314.974 579.395 316.093 Q 585.996 317.212 588.947 317.751 Q 591.897 318.289 596.633 319.225 Q 601.368 320.161 604.419 320.806 Q 607.469 321.450 608.792 321.741 Q 610.115 322.033 610.277 322.078 Q 610.439 322.123 613.147 322.750 "/>
    <path id="STROKE_4b29fc27-d24e-43ce-837a-d040af37c656" opacity="0.680" fill="none" stroke="#4245a3" stroke-width="6.299" stroke-opacity="1.000" stroke-linecap="round" stroke-linejoin="round" d="M 545.281 305.031 Q 547.512 303.680 548.026 303.382 Q 548.540 303.085 549.997 302.358 Q 551.455 301.631 554.884 299.942 Q 558.314 298.254 563.433 295.908 Q 568.552 293.563 576.490 290.438 Q 584.427 287.314 588.069 286.042 Q 591.712 284.771 597.322 283.032 Q 602.932 281.293 608.276 279.785 Q 613.620 278.278 617.524 277.297 "/>
    <path id="STROKE_1cb5864b-e24c-470c-9775-2893b929737c" opacity="0.680" fill="none" stroke="#4245a3" stroke-width="6.681" stroke-opacity="1.000" stroke-linecap="round" stroke-linejoin="round" d="M 584.675 288.578 Q 585.033 290.633 585.140 295.280 Q 585.248 299.928 585.237 302.289 Q 585.226 304.650 585.328 306.702 Q 585.431 308.755 585.800 311.078 "/>
    <path id="STROKE_51a5aa88-28db-4b73-93fd-af49162d3338" opacity="0.680" fill="none" stroke="#4245a3" stroke-width="7.449" stroke-opacity="1.000" stroke-linecap="round" stroke-linejoin="round" d="M 552.826 256.797 Q 553.802 256.684 560.004 256.390 Q 566.205 256.096 577.268 255.402 Q 588.331 254.707 593.893 254.258 Q 599.456 253.809 604.392 253.368 Q 609.328 252.926 614.795 252.376 Q 620.262 251.826 621.082 251.731 Q 621.901 251.636 626.654 251.094 "/>
    <path id="STROKE_58cfb724-2f57-490c-8274-f6648e064805" opacity="0.680" fill="none" stroke="#4245a3" stroke-width="5.734" stroke-opacity="1.000" stroke-linecap="round" stroke-linejoin="round" d="M 553.285 249.828 L 553.444 248.639 Q 553.826 246.100 554.132 244.476 Q 554.438 242.851 554.786 241.462 Q 555.135 240.072 555.553 238.670 Q 555.971 237.268 556.802 235.005 Q 557.633 232.742 558.105 231.699 Q 558.576 230.656 558.948 229.989 Q 559.320 229.322 559.544 228.966 Q 559.769 228.610 560.632 227.401 Q 561.495 226.193 562.214 225.517 Q 562.933 224.841 564.962 223.801 Q 566.992 222.760 567.817 222.660 Q 568.642 222.559 569.379 222.626 Q 570.117 222.693 571.718 223.367 Q 573.320 224.041 573.945 224.494 Q 574.571 224.946 575.016 225.348 Q 575.461 225.750 576.671 227.251 Q 577.880 228.751 578.436 229.701 Q 578.991 230.652 579.563 231.828 Q 580.135 233.005 580.640 234.181 Q 581.145 235.358 581.477 236.262 Q 581.808 237.166 582.486 239.247 Q 583.163 241.329 583.531 242.447 Q 583.898 243.566 584.800 246.578 "/>
    <path id="STROKE_a34fc302-6e9a-40c9-bee3-5c48e46febc5" opacity="0.680" fill="none" stroke="#4245a3" stroke-width="5.905" stroke-opacity="1.000" stroke-linecap="round" stroke-linejoin="round" d="M 555.077 200.859 Q 574.036 199.688 582.249 199.072 Q 590.462 198.455 600.334 197.502 Q 610.207 196.548 614.649 195.980 Q 619.092 195.412 622.056 195.021 Q 625.021 194.631 631.905 193.482 L 635.471 192.844 "/>
    <path id="STROKE_8a289690-588e-4c30-912b-a1123196a655" opacity="0.680" fill="none" stroke="#4245a3" stroke-width="5.896" stroke-opacity="1.000" stroke-linecap="round" stroke-linejoin="round" d="M 557.057 198.016 Q 557.011 197.055 556.980 196.347 Q 556.948 195.639 556.971 192.706 Q 556.994 189.773 557.157 187.139 Q 557.321 184.505 557.686 182.266 Q 558.052 180.027 558.458 178.515 Q 558.865 177.003 559.301 175.734 Q 559.737 174.464 560.265 173.410 Q 560.793 172.355 561.232 171.624 Q 561.672 170.892 562.075 170.313 Q 562.478 169.734 563.268 168.915 Q 564.057 168.097 565.414 167.358 Q 566.771 166.619 567.912 166.350 Q 569.053 166.081 570.650 166.172 Q 572.247 166.263 573.118 166.516 Q 573.989 166.769 574.775 167.174 Q 575.562 167.579 575.635 167.610 Q 575.708 167.641 576.799 168.456 Q 577.889 169.272 578.520 169.881 Q 579.151 170.490 580.014 171.507 Q 580.878 172.523 581.604 173.636 Q 582.331 174.749 583.031 176.073 Q 583.730 177.397 584.708 179.498 Q 585.686 181.599 586.746 183.970 Q 587.807 186.341 588.141 187.201 Q 588.476 188.062 588.843 189.038 Q 589.210 190.014 590.240 193.109 "/>
    <path id="STROKE_fb13a127-f594-4f44-aaf0-394a9869c203" opacity="0.680" fill="none" stroke="#4245a3" stroke-width="6.454" stroke-opacity="1.000" stroke-linecap="round" stroke-linejoin="round" d="M 549.053 138.625 Q 555.752 136.031 559.680 134.352 Q 563.607 132.673 565.749 131.749 Q 567.891 130.825 571.755 129.133 Q 575.619 127.441 577.925 126.353 Q 580.230 125.266 585.157 123.339 L 587.051 122.500 "/>
    <path id="STROKE_9591c883-f2e1-441b-8ce7-57492331db21" opacity="0.680" fill="none" stroke="#4245a3" stroke-width="7.917" stroke-opacity="1.000" stroke-linecap="round" stroke-linejoin="round" d="M 544.822 104.797 Q 545.346 104.929 546.681 105.229 Q 548.651 105.891 554.237 107.393 Q 559.822 108.896 565.750 110.508 Q 571.678 112.120 575.524 113.189 Q 579.369 114.258 586.897 116.327 Q 594.426 118.396 599.157 119.637 Q 603.889 120.878 611.511 122.837 Q 619.132 124.797 625.426 126.361 Q 631.721 127.925 635.005 128.689 Q 638.289 129.453 641.183 130.095 Q 644.077 130.736 645.942 131.086 Q 647.807 131.436 651.478 132.188 "/>
  </g>
</svg>