<?xml version="1.0" encoding="utf-8"?>
<svg width="4.496892in" height="2.992633in" version="1.1" viewBox="238.106 92.679 449.572 623.902" xmlns="http://www.w3.org/2000/svg">
  <title>Untitled 16</title>
  <desc>Drawing exported from Concepts: Smarter Sketching</desc>
  <g id="Pen" opacity="1.000" transform="matrix(0, 1, -1, 0, 856.972534, -68.810501)">
    <path id="STROKE_a24b28a5-c39b-4cc0-9814-117aecf764c4" opacity="1.000" fill="none" stroke="#fac141" stroke-width="15.952" stroke-opacity="1.000" stroke-linecap="round" stroke-linejoin="round" d="M 329.869 410.047 Q 329.140 409.314 328.312 408.177 Q 327.483 407.039 327.136 406.657 Q 326.790 406.276 326.405 405.787 Q 326.020 405.299 325.612 404.599 Q 325.204 403.898 324.631 402.667 Q 324.057 401.435 323.896 400.989 Q 323.736 400.544 323.590 400.173 Q 323.444 399.803 322.991 397.089 Q 322.539 394.376 322.634 392.624 Q 322.729 390.871 323.479 388.675 Q 324.230 386.479 325.596 384.091 Q 326.962 381.702 329.366 378.659 Q 331.769 375.617 333.304 374.097 Q 334.839 372.578 335.627 371.873 Q 336.416 371.168 338.926 369.424 Q 341.435 367.680 342.996 366.889 Q 344.556 366.099 345.660 365.679 Q 346.765 365.259 348.851 364.690 Q 350.936 364.122 355.351 363.686 Q 359.766 363.250 363.032 363.521 Q 366.297 363.792 370.117 365.029 Q 373.937 366.266 376.292 367.470 Q 378.648 368.673 380.808 370.248 Q 382.969 371.823 383.780 372.618 "/>
    <path id="STROKE_8f721662-a53f-4a92-9542-7a371348ba2c" opacity="1.000" fill="none" stroke="#fac141" stroke-width="33.107" stroke-opacity="1.000" stroke-linecap="round" stroke-linejoin="round" d="M 381.367 417.218 Q 376.655 420.259 373.664 421.418 Q 370.673 422.578 365.984 423.188 Q 361.295 423.799 358.189 423.731 Q 355.083 423.663 350.858 422.544 Q 346.633 421.425 344.940 420.574 Q 343.247 419.723 341.387 418.360 Q 339.526 416.997 338.147 415.242 Q 336.768 413.487 336.054 411.967 Q 335.340 410.448 334.825 407.840 Q 334.310 405.232 334.316 403.495 Q 334.323 401.757 334.571 399.851 Q 334.819 397.945 335.626 395.736 Q 336.433 393.527 337.816 391.464 Q 339.198 389.401 340.328 388.191 Q 341.459 386.980 342.991 385.777 Q 344.523 384.574 346.342 383.592 Q 348.162 382.610 348.759 382.363 Q 349.356 382.115 352.184 381.223 Q 355.011 380.331 357.422 380.032 Q 359.833 379.733 361.293 379.850 Q 362.753 379.967 364.308 380.481 Q 365.862 380.994 367.166 381.715 Q 368.471 382.436 369.513 383.251 Q 370.554 384.066 371.365 384.956 "/>
    <path id="STROKE_e58052d7-1b25-4c63-ae49-b1dfc3bea57d" opacity="1.000" fill="none" stroke="#fac141" stroke-width="22.897" stroke-opacity="1.000" stroke-linecap="round" stroke-linejoin="round" d="M 371.775 402.906 Q 371.185 403.175 370.123 403.444 Q 369.061 403.714 367.097 403.712 Q 365.132 403.709 364.103 403.552 Q 363.074 403.394 361.660 402.724 Q 360.246 402.053 359.669 401.541 Q 359.093 401.028 358.747 400.409 Q 358.402 399.790 358.392 399.764 Q 358.382 399.737 358.699 397.402 Q 358.715 396.976 360.059 396.554 Q 361.402 396.132 362.668 396.089 Q 363.934 396.047 364.761 396.047 "/>
    <path id="STROKE_cdddf332-9191-4ba4-bd11-1244ddad9a36" opacity="1.000" fill="none" stroke="#171612" stroke-width="6.442" stroke-opacity="1.000" stroke-linecap="round" stroke-linejoin="round" d="M 424.771 397.185 Q 424.424 398.986 424.415 400.688 "/>
    <path id="STROKE_11272c53-d61f-4027-8d53-7ccc10dc1461" opacity="1.000" fill="none" stroke="#171612" stroke-width="5.071" stroke-opacity="1.000" stroke-linecap="round" stroke-linejoin="round" d="M 425.479 401.422 L 425.232 400.770 L 424.939 400.531 Q 424.935 400.600 425.045 400.549 Q 425.154 400.498 424.957 399.766 "/>
    <path id="STROKE_13456345-db92-45d3-8ee0-d282679efaa5" opacity="1.000" fill="none" stroke="#171612" stroke-width="7.153" stroke-opacity="1.000" stroke-linecap="round" stroke-linejoin="round" d="M 425.830 398.184 Q 425.490 400.318 425.254 401.384 Q 425.017 402.451 424.633 403.820 Q 424.248 405.189 423.807 405.938 L 423.471 406.484 L 422.528 406.864 Q 421.548 407.090 419.270 406.879 Q 416.993 406.669 414.481 405.926 Q 411.970 405.184 409.908 404.469 Q 407.847 403.755 404.196 402.438 Q 400.545 401.122 397.495 399.995 Q 394.445 398.869 389.876 397.299 Q 385.308 395.730 382.509 394.714 Q 379.710 393.697 378.808 393.334 Q 377.906 392.970 374.157 389.860 Q 374.620 389.170 374.844 388.871 Q 375.069 388.573 375.254 388.336 Q 375.439 388.098 376.306 387.267 Q 377.174 386.436 377.983 385.827 Q 378.792 385.218 379.343 384.809 Q 379.894 384.399 380.257 384.110 Q 380.619 383.821 382.145 382.857 Q 383.670 381.894 386.099 380.559 Q 388.528 379.223 390.420 378.102 Q 392.313 376.981 394.118 375.781 Q 395.923 374.582 398.750 372.530 Q 401.576 370.478 403.252 369.253 Q 404.928 368.029 406.152 367.295 Q 407.377 366.561 408.173 366.085 Q 408.970 365.608 409.596 365.205 Q 410.223 364.802 410.975 364.363 Q 411.727 363.925 412.225 363.672 Q 412.722 363.419 413.686 362.922 Q 414.649 362.424 415.411 362.141 "/>
    <path id="STROKE_88550c73-b779-4ac5-b4d2-298e45643e18" opacity="1.000" fill="none" stroke="#171612" stroke-width="6.288" stroke-opacity="1.000" stroke-linecap="round" stroke-linejoin="round" d="M 420.309 364.391 Q 420.303 364.634 420.466 365.223 L 420.615 365.628 L 420.918 367.569 Q 420.964 368.550 421.845 372.131 "/>
    <path id="STROKE_9042e578-26ad-4be2-b821-d9ca2a41034c" opacity="1.000" fill="none" stroke="#171612" stroke-width="7.232" stroke-opacity="1.000" stroke-linecap="round" stroke-linejoin="round" d="M 425.687 398.438 L 425.815 397.367 L 425.951 397.129 L 426.051 396.384 L 426.045 395.799 L 426.285 393.636 L 426.265 393.150 L 426.667 391.406 "/>
    <path id="STROKE_d64c4d39-1aa1-40ae-8d7b-27a60cd5b388" opacity="1.000" fill="none" stroke="#171612" stroke-width="8.143" stroke-opacity="1.000" stroke-linecap="round" stroke-linejoin="round" d="M 428.001 389.281 L 428.767 388.941 L 429.782 388.773 Q 430.910 388.668 437.751 387.348 Q 444.593 386.028 454.730 383.943 Q 455.085 383.965 455.743 383.828 "/>
    <path id="STROKE_ec29037f-a37e-4d02-b205-39e6f1d0a252" opacity="1.000" fill="none" stroke="#171612" stroke-width="6.674" stroke-opacity="1.000" stroke-linecap="round" stroke-linejoin="round" d="M 426.938 373.953 L 427.555 373.664 Q 427.851 373.593 431.370 372.928 Q 434.890 372.264 437.898 371.772 Q 440.907 371.280 442.928 370.954 Q 444.950 370.628 450.439 369.567 Q 455.928 368.507 457.077 368.109 "/>
    <path id="STROKE_3adf50bb-f235-4601-8240-077f79820fb5" opacity="1.000" fill="none" stroke="#171612" stroke-width="10.598" stroke-opacity="1.000" stroke-linecap="round" stroke-linejoin="round" d="M 458.390 368.969 Q 458.237 369.536 458.243 372.875 Q 458.248 376.213 458.286 378.588 Q 458.325 380.962 458.244 381.552 Q 458.163 382.141 458.108 382.974 Q 458.052 383.808 458.119 385.234 "/>
    <path id="STROKE_7b8fd1e5-cb8d-4454-94c7-2d703ebb12ba" opacity="1.000" fill="none" stroke="#fac141" stroke-width="24.323" stroke-opacity="1.000" stroke-linecap="round" stroke-linejoin="round" d="M 317.759 439.500 L 316.912 439.754 Q 316.133 440.231 315.882 440.424 Q 315.631 440.617 310.652 444.479 Q 305.673 448.341 303.441 450.415 Q 301.209 452.489 296.824 456.380 Q 292.439 460.272 290.089 462.082 Q 287.739 463.891 286.024 465.011 Q 284.310 466.130 283.148 466.838 Q 281.985 467.546 278.796 469.137 Q 275.607 470.729 269.819 472.672 "/>
    <path id="STROKE_1e849e25-7102-4d61-a624-166dbcd44ede" opacity="1.000" fill="none" stroke="#fac141" stroke-width="16.239" stroke-opacity="1.000" stroke-linecap="round" stroke-linejoin="round" d="M 316.967 385.422 Q 316.817 385.294 316.468 384.949 Q 316.118 384.605 316.001 384.510 Q 315.884 384.415 311.449 382.603 Q 307.015 380.790 298.180 376.911 Q 289.344 373.032 283.298 370.303 Q 277.251 367.574 267.045 363.138 Q 266.998 363.077 266.047 362.531 "/>
    <path id="STROKE_d666df5a-612e-40ae-9cb7-d6100c735f79" opacity="1.000" fill="none" stroke="#fac141" stroke-width="18.427" stroke-opacity="1.000" stroke-linecap="round" stroke-linejoin="round" d="M 351.130 334.672 L 350.045 333.597 Q 349.885 333.421 347.549 328.784 Q 345.213 324.147 343.833 321.187 Q 342.452 318.227 341.063 315.375 Q 339.675 312.523 336.379 306.957 Q 333.083 301.391 330.138 296.769 Q 327.193 292.146 325.199 288.319 L 324.700 287.422 "/>
    <path id="STROKE_cbf1a332-2681-4d7b-96fb-292f85ad25ac" opacity="1.000" fill="none" stroke="#fac141" stroke-width="27.219" stroke-opacity="1.000" stroke-linecap="round" stroke-linejoin="round" d="M 398.403 460.078 L 398.817 460.369 Q 399.574 461.054 400.676 462.188 Q 401.777 463.322 403.720 465.435 Q 405.662 467.548 410.287 472.956 Q 414.913 478.365 417.224 481.172 Q 419.535 483.979 422.286 487.432 Q 425.037 490.886 427.301 493.233 Q 427.429 493.262 428.605 493.844 "/>
    <path id="STROKE_1bfbbdbd-8e6a-4914-bd1f-d46c64455055" opacity="1.000" fill="none" stroke="#fac141" stroke-width="17.346" stroke-opacity="1.000" stroke-linecap="round" stroke-linejoin="round" d="M 401.258 350.266 Q 401.462 350.083 402.031 349.047 Q 402.601 348.011 403.751 346.843 Q 404.901 345.675 409.828 341.773 Q 414.756 337.871 421.193 332.821 Q 427.631 327.771 432.786 323.014 Q 437.941 318.258 440.357 315.681 Q 442.772 313.105 444.637 310.739 Q 446.501 308.374 448.777 303.746 Q 448.713 303.500 448.639 303.310 Q 448.566 303.121 448.531 302.094 "/>
    <path id="STROKE_20a29e7e-bd50-40ab-9fce-27cf04729fff" opacity="1.000" fill="none" stroke="#fac141" stroke-width="14.432" stroke-opacity="1.000" stroke-linecap="round" stroke-linejoin="round" d="M 421.706 422.578 Q 421.784 422.654 422.174 422.836 Q 422.414 422.987 428.345 424.237 Q 434.275 425.486 446.794 426.560 Q 459.313 427.634 463.489 427.671 Q 467.666 427.708 468.666 427.625 "/>
    <path id="STROKE_cfcdd3fd-cf99-4e84-a8e5-d86edd5e8266" opacity="1.000" fill="none" stroke="#fac141" stroke-width="20.576" stroke-opacity="1.000" stroke-linecap="round" stroke-linejoin="round" d="M 363.115 459.078 L 362.659 459.556 Q 362.498 459.751 361.975 460.778 Q 361.452 461.805 360.537 464.489 Q 359.623 467.173 357.546 474.664 Q 355.469 482.156 353.292 488.714 Q 351.114 495.272 348.627 503.376 Q 346.139 511.480 344.336 519.471 Q 342.534 527.462 341.547 531.543 Q 340.560 535.624 340.333 536.438 "/>
    <path id="STROKE_bbaec327-6965-4b33-8de1-a4eed849fd4b" opacity="1.000" fill="none" stroke="#fac141" stroke-width="15.508" stroke-opacity="1.000" stroke-linecap="round" stroke-linejoin="round" d="M 301.605 413.359 Q 301.680 413.277 301.829 412.909 Q 301.977 412.542 302.041 412.232 Q 302.105 411.921 301.858 411.703 Q 301.612 411.485 288.660 411.621 Q 275.708 411.758 266.029 412.649 Q 256.351 413.540 251.604 413.958 Q 251.297 413.968 251.143 413.953 "/>
    <path id="STROKE_ea03359b-6457-47e0-8c20-7bce992da3d9" opacity="1.000" fill="none" stroke="#fac141" stroke-width="18.411" stroke-opacity="1.000" stroke-linecap="round" stroke-linejoin="round" d="M 311.339 344.625 L 310.866 344.109 Q 309.752 343.038 309.620 342.931 Q 309.487 342.824 302.244 338.147 Q 295.000 333.470 290.822 331.069 Q 286.643 328.668 278.718 323.584 Q 270.792 318.500 267.082 315.848 Q 263.373 313.195 260.572 310.543 Q 257.770 307.890 256.528 306.272 Q 255.285 304.653 254.740 301.880 Q 254.841 301.563 255.363 301.249 Q 255.885 300.935 256.438 300.500 "/>
    <path id="STROKE_caa4d407-966d-44f8-ad57-ca8b07e0afc1" opacity="1.000" fill="none" stroke="#fac141" stroke-width="12.059" stroke-opacity="1.000" stroke-linecap="round" stroke-linejoin="round" d="M 379.456 321.203 Q 379.551 320.872 379.735 320.164 Q 379.919 319.456 379.885 317.483 Q 379.850 315.510 379.810 313.338 Q 379.769 311.166 379.967 308.390 Q 380.165 305.614 383.499 296.921 Q 386.834 288.227 388.607 284.144 Q 390.380 280.062 390.982 278.531 "/>
    <path id="STROKE_e98744d0-403c-4ca7-9f19-61f46455ca8f" opacity="1.000" fill="none" stroke="#45b046" stroke-width="7.725" stroke-opacity="1.000" stroke-linecap="round" stroke-linejoin="round" d="M 607.046 436.391 Q 607.656 436.278 609.572 436.218 Q 611.487 436.158 617.642 436.459 Q 623.798 436.761 629.998 437.010 Q 636.198 437.258 639.767 437.305 Q 643.336 437.352 645.098 437.350 Q 646.861 437.347 648.087 437.312 "/>
    <path id="STROKE_60746434-0690-4cf1-a42a-52d9e746297a" opacity="1.000" fill="none" stroke="#45b046" stroke-width="8.427" stroke-opacity="1.000" stroke-linecap="round" stroke-linejoin="round" d="M 646.711 398.703 Q 646.612 399.251 646.930 400.779 Q 647.248 402.306 646.956 405.492 Q 646.663 408.677 645.998 410.597 Q 645.332 412.517 644.913 413.348 Q 644.494 414.179 644.023 414.686 Q 643.552 415.193 642.202 416.088 Q 640.852 416.982 638.971 417.968 Q 637.090 418.954 635.303 419.307 Q 633.517 419.661 631.747 419.460 Q 629.977 419.259 629.045 418.941 Q 628.113 418.624 627.170 418.041 Q 626.228 417.459 625.022 416.274 Q 623.816 415.089 622.462 411.954 Q 621.108 408.819 620.861 407.243 Q 620.614 405.667 620.656 404.968 Q 620.698 404.269 620.942 403.534 Q 621.185 402.800 621.912 401.661 Q 622.639 400.521 623.097 400.062 Q 623.555 399.603 623.765 399.462 Q 623.976 399.321 624.908 399.067 Q 625.839 398.814 626.495 398.813 Q 627.151 398.813 627.766 398.972 Q 628.382 399.130 628.595 399.252 Q 628.807 399.373 629.584 400.184 Q 630.362 400.994 630.539 401.215 Q 630.715 401.435 631.518 402.957 Q 632.320 404.479 632.949 406.344 Q 633.578 408.209 633.989 409.780 Q 634.400 411.350 634.499 411.675 Q 634.597 412.000 635.706 414.219 "/>
    <path id="STROKE_1dbf6352-83b6-45e5-a7bf-5c198ab8d0c9" opacity="1.000" fill="none" stroke="#45b046" stroke-width="9.692" stroke-opacity="1.000" stroke-linecap="round" stroke-linejoin="round" d="M 608.901 365.062 Q 608.369 365.022 607.817 365.005 Q 607.264 364.988 605.831 365.294 Q 604.397 365.600 602.148 367.147 Q 599.899 368.694 599.000 369.933 Q 598.100 371.172 597.760 372.077 Q 597.420 372.982 597.406 373.962 Q 597.391 374.943 597.664 375.727 Q 597.937 376.512 598.837 377.548 Q 599.737 378.585 600.780 379.195 Q 601.823 379.805 602.546 380.171 Q 603.269 380.537 612.788 381.592 Q 622.307 382.647 644.772 382.502 Q 644.820 382.470 644.780 382.711 Q 644.741 382.951 644.856 383.297 "/>
    <path id="STROKE_e0743dea-3a57-4438-8ee6-6fbeb832d77a" opacity="1.000" fill="none" stroke="#45b046" stroke-width="12.317" stroke-opacity="1.000" stroke-linecap="round" stroke-linejoin="round" d="M 623.408 370.703 Q 623.216 371.286 622.833 375.723 Q 622.451 380.159 622.061 383.086 Q 621.672 386.013 619.752 392.172 L 619.615 392.469 "/>
    <path id="STROKE_61adea20-d5ef-4961-9689-3b258dcff11c" opacity="1.000" fill="none" stroke="#45b046" stroke-width="8.555" stroke-opacity="1.000" stroke-linecap="round" stroke-linejoin="round" d="M 603.128 330.891 L 603.503 330.850 L 604.463 330.979 Q 605.548 331.380 615.814 332.138 Q 626.080 332.897 631.255 333.073 Q 636.430 333.250 638.304 333.475 Q 640.177 333.701 641.158 334.012 Q 641.208 334.093 641.605 334.734 "/>
    <path id="STROKE_f2289794-c7f9-4cd5-bb9d-56d9aaea767d" opacity="1.000" fill="none" stroke="#45b046" stroke-width="13.597" stroke-opacity="1.000" stroke-linecap="round" stroke-linejoin="round" d="M 618.969 316.750 Q 619.025 317.358 619.080 317.626 Q 619.134 317.893 619.206 318.514 Q 619.278 319.134 619.227 321.967 Q 619.176 324.799 618.276 329.670 Q 617.377 334.541 616.857 338.277 Q 616.337 342.013 616.357 344.676 Q 616.378 347.339 616.776 349.447 Q 617.174 351.555 617.301 352.047 "/>
    <path id="STROKE_7283cdd4-5649-48e2-a4a9-23ab1e197c2a" opacity="1.000" fill="none" stroke="#fac141" stroke-width="9.390" stroke-opacity="1.000" stroke-linecap="round" stroke-linejoin="round" d="M 569.236 476.203 Q 568.833 477.298 568.407 479.442 Q 567.982 481.586 568.030 482.825 Q 568.078 484.065 568.488 485.294 Q 568.897 486.524 569.973 487.750 Q 571.048 488.975 571.821 489.386 Q 572.593 489.797 573.745 489.953 Q 574.897 490.110 575.897 489.810 Q 576.897 489.509 577.883 488.894 Q 578.868 488.279 581.489 486.097 Q 584.110 483.916 585.222 482.834 Q 586.334 481.751 587.633 480.379 Q 588.932 479.007 589.731 478.299 Q 590.529 477.591 591.127 477.191 Q 591.724 476.792 593.485 475.827 Q 595.245 474.862 596.343 474.594 Q 597.442 474.327 598.334 474.431 Q 599.227 474.535 599.502 474.659 Q 599.778 474.784 600.333 475.229 Q 600.889 475.675 601.569 477.956 Q 602.250 480.237 602.212 482.382 Q 602.175 484.527 601.958 485.741 Q 601.742 486.956 599.965 490.351 Q 598.187 493.746 597.312 495.172 "/>
    <path id="STROKE_518ab4c4-1e6f-4173-8f28-dc17f78f5ab6" opacity="1.000" fill="none" stroke="#fac141" stroke-width="8.208" stroke-opacity="1.000" stroke-linecap="round" stroke-linejoin="round" d="M 569.841 456.562 Q 570.440 456.567 573.983 457.408 Q 577.526 458.248 580.071 458.508 Q 582.617 458.768 584.370 458.597 Q 586.124 458.425 587.563 457.970 Q 589.002 457.514 590.281 456.359 Q 591.561 455.203 592.301 453.174 Q 593.042 451.145 593.018 450.090 Q 592.995 449.035 592.549 448.056 Q 592.104 447.077 591.609 446.392 Q 591.114 445.707 589.341 444.114 Q 587.568 442.520 585.965 441.433 Q 584.362 440.346 579.587 437.430 Q 579.428 437.430 591.215 435.922 L 591.956 435.719 "/>
    <path id="STROKE_4165ebdd-3f5d-4f13-a23a-a60c10ac40e1" opacity="1.000" fill="none" stroke="#fac141" stroke-width="8.914" stroke-opacity="1.000" stroke-linecap="round" stroke-linejoin="round" d="M 569.841 422.984 Q 570.922 422.642 575.663 422.691 Q 580.403 422.740 583.066 422.742 Q 585.730 422.743 586.599 422.587 Q 587.468 422.431 587.418 422.454 Q 587.367 422.477 584.650 420.818 Q 581.932 419.158 579.957 417.888 Q 577.981 416.619 576.928 415.820 Q 575.874 415.021 574.748 413.887 Q 573.621 412.753 573.007 411.847 Q 572.392 410.941 572.204 409.834 Q 572.016 408.727 572.067 408.127 Q 572.117 407.527 572.316 406.931 Q 572.515 406.335 572.733 406.022 Q 572.952 405.709 573.230 405.448 Q 573.508 405.188 573.765 404.958 Q 574.021 404.728 577.508 403.728 Q 580.996 402.727 583.284 402.695 Q 585.571 402.663 587.407 402.859 Q 589.242 403.054 591.339 403.589 Q 591.795 403.947 593.331 404.531 "/>
    <path id="STROKE_e7b93c09-bb2d-437e-bf06-2e259761ad31" opacity="1.000" fill="none" stroke="#4245a3" stroke-width="9.526" stroke-opacity="1.000" stroke-linecap="round" stroke-linejoin="round" d="M 600.355 257.766 Q 600.958 257.726 605.548 258.031 Q 610.138 258.335 615.204 258.596 Q 620.270 258.858 641.585 260.942 Q 641.800 261.101 642.730 261.875 "/>
    <path id="STROKE_87d40290-e1d8-4747-9ec8-41f650fefeba" opacity="1.000" fill="none" stroke="#4245a3" stroke-width="6.826" stroke-opacity="1.000" stroke-linecap="round" stroke-linejoin="round" d="M 608.630 228.500 Q 608.491 227.077 608.349 226.396 Q 608.206 225.715 608.188 224.875 Q 608.170 224.035 608.514 222.596 Q 608.858 221.158 609.921 219.949 Q 610.984 218.741 613.851 217.644 Q 616.718 216.547 620.873 216.639 Q 625.029 216.731 628.230 217.959 Q 631.431 219.187 632.998 220.441 Q 634.565 221.694 635.331 222.885 Q 636.096 224.076 636.427 226.180 Q 636.758 228.284 636.206 229.907 Q 635.655 231.531 633.996 233.279 Q 632.337 235.028 629.376 236.016 Q 626.415 237.005 624.144 236.959 Q 621.873 236.914 619.808 236.253 Q 617.743 235.592 615.764 234.141 Q 613.784 232.689 612.700 231.165 Q 611.617 229.642 611.294 228.597 Q 610.971 227.552 610.694 226.781 "/>
    <path id="STROKE_2d42f2bf-6e10-40db-9f4a-f8d58a6b0313" opacity="1.000" fill="none" stroke="#4245a3" stroke-width="11.079" stroke-opacity="1.000" stroke-linecap="round" stroke-linejoin="round" d="M 678.623 261.484 Q 677.327 261.219 676.236 260.980 Q 675.145 260.742 674.382 260.456 Q 673.620 260.171 672.500 259.064 Q 671.381 257.958 670.822 256.887 Q 670.263 255.817 670.115 255.261 Q 669.968 254.705 669.986 253.404 Q 670.005 252.103 670.469 250.974 Q 670.934 249.844 672.676 248.802 Q 674.419 247.760 677.090 247.713 Q 679.762 247.667 688.094 251.408 Q 696.425 255.149 700.566 257.046 Q 704.707 258.944 706.681 259.365 Q 708.655 259.787 709.712 259.692 Q 710.769 259.597 711.373 259.270 Q 711.977 258.942 712.754 257.272 Q 713.530 255.602 713.784 253.428 Q 714.039 251.253 714.091 249.759 Q 714.142 248.264 714.164 244.568 Q 714.017 244.135 713.327 241.719 "/>
    <path id="STROKE_487bf0d5-e72f-4a2d-9751-3f896b7482e6" opacity="1.000" fill="none" stroke="#4245a3" stroke-width="7.347" stroke-opacity="1.000" stroke-linecap="round" stroke-linejoin="round" d="M 677.893 218.031 Q 677.927 217.238 678.061 216.243 Q 678.196 215.247 678.474 214.487 Q 678.753 213.727 678.932 213.362 Q 679.111 212.997 681.260 211.204 Q 683.408 209.410 686.195 208.524 Q 688.983 207.639 691.886 207.588 Q 694.788 207.537 697.238 208.235 Q 699.688 208.932 701.210 209.973 Q 702.733 211.014 703.448 212.018 Q 704.163 213.021 704.355 213.582 Q 704.547 214.142 704.646 214.732 Q 704.745 215.321 704.729 216.008 Q 704.712 216.695 704.604 217.138 Q 704.495 217.581 704.047 218.514 Q 703.598 219.446 701.923 220.869 Q 700.249 222.292 698.483 222.953 Q 696.716 223.615 693.885 223.797 Q 691.054 223.979 688.124 223.400 Q 685.193 222.821 682.359 221.763 Q 679.524 220.705 678.216 220.006 Q 676.908 219.308 676.160 218.698 Q 676.113 218.486 675.580 217.031 "/>
    <path id="STROKE_3b914e08-2fbc-4cd3-a8af-e4ad6acb8224" opacity="1.000" fill="none" stroke="#45b046" stroke-width="11.170" stroke-opacity="1.000" stroke-linecap="round" stroke-linejoin="round" d="M 680.540 423.906 Q 681.153 423.939 681.544 424.064 Q 681.935 424.189 691.593 424.271 Q 701.251 424.352 707.611 424.372 Q 713.971 424.391 716.557 424.613 Q 719.143 424.834 720.368 425.023 Q 721.594 425.211 722.484 425.599 L 723.374 425.906 "/>
    <path id="STROKE_c9b8a8c0-bd94-4adc-9373-88a74097c3d2" opacity="1.000" fill="none" stroke="#45b046" stroke-width="13.793" stroke-opacity="1.000" stroke-linecap="round" stroke-linejoin="round" d="M 699.737 407.922 L 699.651 408.392 Q 699.682 408.753 700.150 412.443 Q 700.617 416.132 700.852 419.752 Q 701.087 423.372 701.630 426.775 Q 702.173 430.179 702.840 432.435 Q 703.506 434.690 704.046 435.729 Q 704.586 436.767 704.969 437.641 "/>
    <path id="STROKE_0a3eb19c-7d25-4843-91a4-870c27e2dd06" opacity="1.000" fill="none" stroke="#45b046" stroke-width="9.818" stroke-opacity="1.000" stroke-linecap="round" stroke-linejoin="round" d="M 697.820 380.391 Q 697.942 380.271 698.112 379.465 Q 698.281 378.659 698.417 378.226 Q 698.552 377.792 698.886 377.246 Q 699.220 376.701 699.559 376.360 Q 699.898 376.020 701.184 374.976 Q 702.470 373.933 704.729 372.967 Q 706.989 372.001 709.178 371.806 Q 711.368 371.610 712.867 371.933 Q 714.366 372.256 715.368 372.783 Q 716.371 373.310 717.230 374.095 Q 718.089 374.880 718.649 376.143 Q 719.209 377.405 719.237 378.900 Q 719.264 380.395 718.195 382.461 Q 717.125 384.526 715.084 386.205 Q 713.042 387.884 710.984 388.609 Q 708.925 389.335 707.722 389.360 Q 706.518 389.386 705.299 388.997 Q 704.079 388.609 703.340 387.807 Q 702.601 387.006 702.232 386.072 Q 701.863 385.138 701.801 384.015 Q 701.739 382.893 702.197 379.922 "/>
    <path id="STROKE_bbc4003b-90fa-4794-b9ff-ae9fd9bf98ba" opacity="1.000" fill="none" stroke="#45b046" stroke-width="11.060" stroke-opacity="1.000" stroke-linecap="round" stroke-linejoin="round" d="M 698.278 355.172 Q 699.429 354.843 702.972 354.675 Q 706.516 354.508 710.278 354.556 Q 714.041 354.605 717.805 354.814 Q 721.569 355.023 746.755 356.577 L 748.469 356.766 "/>
    <path id="STROKE_c7587685-935a-45a0-bb33-3b1470d3d8bb" opacity="1.000" fill="none" stroke="#45b046" stroke-width="9.254" stroke-opacity="1.000" stroke-linecap="round" stroke-linejoin="round" d="M 700.133 350.797 Q 699.343 349.760 698.259 347.970 Q 697.176 346.181 696.245 343.674 Q 695.315 341.168 695.172 339.334 Q 695.028 337.500 695.210 336.164 Q 695.393 334.828 696.311 333.097 Q 697.230 331.366 698.450 330.226 Q 699.670 329.086 701.435 328.422 Q 703.201 327.758 704.668 327.727 Q 706.136 327.695 707.795 328.272 Q 709.455 328.848 711.004 330.205 Q 712.553 331.562 713.252 332.612 Q 713.951 333.662 714.457 335.158 Q 714.964 336.654 715.045 338.940 Q 715.127 341.226 712.995 345.283 Q 710.864 349.340 709.013 351.719 "/>
    <path id="STROKE_301c557c-7899-4433-97a4-f516f7198fee" opacity="1.000" fill="none" stroke="#eae5d6" stroke-width="5.981" stroke-opacity="1.000" stroke-linecap="round" stroke-linejoin="round" d="M 182.881 333.875 Q 182.852 333.761 182.762 331.790 Q 182.672 329.819 182.658 328.816 Q 182.645 327.813 182.700 327.536 Q 182.755 327.260 183.210 326.735 Q 183.164 326.949 182.983 327.530 Q 182.802 328.110 182.676 328.381 Q 182.550 328.653 181.660 333.394 Q 180.769 338.136 179.740 345.034 Q 178.711 351.932 178.277 355.572 Q 177.844 359.212 177.579 364.102 Q 177.314 368.992 177.358 376.188 Q 177.403 383.384 178.074 390.228 Q 178.744 397.072 179.784 403.918 Q 180.824 410.765 181.321 414.879 Q 181.818 418.992 182.111 428.751 Q 182.405 438.510 183.043 447.759 Q 183.682 457.009 184.304 461.948 Q 184.925 466.888 185.413 470.568 Q 185.902 474.249 186.902 483.703 Q 187.902 493.157 188.084 504.339 Q 188.266 515.521 188.020 522.010 Q 187.774 528.499 187.662 532.876 Q 187.549 537.253 187.695 540.947 Q 187.840 544.640 188.522 550.475 Q 189.204 556.310 189.711 562.082 Q 190.219 567.853 190.614 578.047 "/>
    <path id="STROKE_62e28b6a-2b36-4b77-8210-a7ffb76b8c45" opacity="1.000" fill="none" stroke="#eae5d6" stroke-width="6.509" stroke-opacity="1.000" stroke-linecap="round" stroke-linejoin="round" d="M 202.140 564.172 L 202.545 564.183 Q 202.925 564.089 217.373 565.257 Q 231.821 566.426 259.133 567.255 Q 286.444 568.084 300.470 568.262 Q 314.495 568.439 334.629 568.406 Q 354.762 568.372 371.683 568.512 Q 388.603 568.653 399.613 569.162 Q 410.622 569.671 417.444 570.103 Q 424.266 570.536 436.900 571.358 Q 449.534 572.180 456.645 572.778 Q 463.756 573.377 466.861 573.649 Q 469.967 573.921 479.659 574.907 Q 489.352 575.893 495.315 576.766 Q 501.279 577.639 513.876 580.625 "/>
  </g>
</svg>